<svg width="48" height="76" viewBox="0 0 48 76" fill="none" xmlns="http://www.w3.org/2000/svg">
<rect y="0.000976562" width="48" height="48" rx="5" fill="#E7F4FF"/>
<path d="M22.8 20.401H25.2V18.001H22.8M24 33.601C18.708 33.601 14.4 29.293 14.4 24.001C14.4 18.709 18.708 14.401 24 14.401C29.292 14.401 33.6 18.709 33.6 24.001C33.6 29.293 29.292 33.601 24 33.601ZM24 12.001C22.4241 12.001 20.8637 12.3114 19.4078 12.9144C17.9519 13.5175 16.629 14.4014 15.5147 15.5157C13.2643 17.7661 12 20.8184 12 24.001C12 27.1836 13.2643 30.2358 15.5147 32.4863C16.629 33.6006 17.9519 34.4845 19.4078 35.0875C20.8637 35.6906 22.4241 36.001 24 36.001C27.1826 36.001 30.2348 34.7367 32.4853 32.4863C34.7357 30.2358 36 27.1836 36 24.001C36 22.4251 35.6896 20.8647 35.0866 19.4088C34.4835 17.9529 33.5996 16.63 32.4853 15.5157C31.371 14.4014 30.0481 13.5175 28.5922 12.9144C27.1363 12.3114 25.5759 12.001 24 12.001ZM22.8 30.001H25.2V22.801H22.8V30.001Z" fill="#25435B"/>
<path d="M1.88636 72.001H0.409091L4.68182 60.3646H6.13636L10.4091 72.001H8.93182L5.45455 62.2055H5.36364L1.88636 72.001ZM2.43182 67.4555H8.38636V68.7055H2.43182V67.4555ZM12.2216 72.001V60.3646H13.5625V64.6601H13.6761C13.7746 64.5086 13.911 64.3154 14.0852 64.0805C14.2633 63.8419 14.517 63.6298 14.8466 63.4442C15.1799 63.2548 15.6307 63.1601 16.1989 63.1601C16.9337 63.1601 17.5814 63.3438 18.142 63.7112C18.7027 64.0786 19.1402 64.5995 19.4545 65.2737C19.7689 65.9479 19.9261 66.7434 19.9261 67.6601C19.9261 68.5843 19.7689 69.3854 19.4545 70.0635C19.1402 70.7377 18.7045 71.2604 18.1477 71.6317C17.5909 71.9991 16.9489 72.1828 16.2216 72.1828C15.661 72.1828 15.2121 72.09 14.875 71.9044C14.5379 71.715 14.2784 71.501 14.0966 71.2623C13.9148 71.0199 13.7746 70.8192 13.6761 70.6601H13.517V72.001H12.2216ZM13.5398 67.6373C13.5398 68.2964 13.6364 68.8779 13.8295 69.3817C14.0227 69.8817 14.3049 70.2737 14.6761 70.5578C15.0473 70.8381 15.5019 70.9782 16.0398 70.9782C16.6004 70.9782 17.0682 70.8305 17.4432 70.5351C17.822 70.2358 18.1061 69.8343 18.2955 69.3305C18.4886 68.8229 18.5852 68.2586 18.5852 67.6373C18.5852 67.0237 18.4905 66.4707 18.3011 65.9782C18.1155 65.482 17.8333 65.09 17.4545 64.8021C17.0795 64.5104 16.608 64.3646 16.0398 64.3646C15.4943 64.3646 15.036 64.5029 14.6648 64.7794C14.2936 65.0521 14.0133 65.4347 13.8239 65.9271C13.6345 66.4157 13.5398 66.9858 13.5398 67.6373ZM25.5227 72.1828C24.7348 72.1828 24.0436 71.9953 23.4489 71.6203C22.858 71.2453 22.3958 70.7207 22.0625 70.0464C21.733 69.3722 21.5682 68.5843 21.5682 67.6828C21.5682 66.7737 21.733 65.9801 22.0625 65.3021C22.3958 64.6241 22.858 64.0976 23.4489 63.7226C24.0436 63.3476 24.7348 63.1601 25.5227 63.1601C26.3106 63.1601 27 63.3476 27.5909 63.7226C28.1856 64.0976 28.6477 64.6241 28.9773 65.3021C29.3106 65.9801 29.4773 66.7737 29.4773 67.6828C29.4773 68.5843 29.3106 69.3722 28.9773 70.0464C28.6477 70.7207 28.1856 71.2453 27.5909 71.6203C27 71.9953 26.3106 72.1828 25.5227 72.1828ZM25.5227 70.9782C26.1212 70.9782 26.6136 70.8248 27 70.518C27.3864 70.2112 27.6723 69.8078 27.858 69.3078C28.0436 68.8078 28.1364 68.2661 28.1364 67.6828C28.1364 67.0995 28.0436 66.5559 27.858 66.0521C27.6723 65.5483 27.3864 65.1411 27 64.8305C26.6136 64.5199 26.1212 64.3646 25.5227 64.3646C24.9242 64.3646 24.4318 64.5199 24.0455 64.8305C23.6591 65.1411 23.3731 65.5483 23.1875 66.0521C23.0019 66.5559 22.9091 67.0995 22.9091 67.6828C22.9091 68.2661 23.0019 68.8078 23.1875 69.3078C23.3731 69.8078 23.6591 70.2112 24.0455 70.518C24.4318 70.8248 24.9242 70.9782 25.5227 70.9782ZM37.0241 68.4328V63.2737H38.3651V72.001H37.0241V70.5237H36.9332C36.7287 70.9669 36.4105 71.3438 35.9787 71.6544C35.5469 71.9612 35.0014 72.1146 34.3423 72.1146C33.7969 72.1146 33.312 71.9953 32.8878 71.7567C32.4635 71.5142 32.1302 71.1506 31.8878 70.6657C31.6454 70.1771 31.5241 69.5616 31.5241 68.8192V63.2737H32.8651V68.7282C32.8651 69.3646 33.0431 69.8722 33.3991 70.251C33.759 70.6298 34.2173 70.8192 34.7741 70.8192C35.1075 70.8192 35.4465 70.7339 35.7912 70.5635C36.1397 70.393 36.4313 70.1317 36.6662 69.7794C36.9048 69.4271 37.0241 68.9782 37.0241 68.4328ZM44.6165 63.2737V64.4101H40.0938V63.2737H44.6165ZM41.4119 61.1828H42.7528V69.501C42.7528 69.8798 42.8078 70.1639 42.9176 70.3532C43.0313 70.5389 43.1752 70.6639 43.3494 70.7282C43.5275 70.7889 43.715 70.8192 43.9119 70.8192C44.0597 70.8192 44.1809 70.8116 44.2756 70.7964C44.3703 70.7775 44.446 70.7623 44.5028 70.751L44.7756 71.9555C44.6847 71.9896 44.5578 72.0237 44.3949 72.0578C44.232 72.0957 44.0256 72.1146 43.7756 72.1146C43.3968 72.1146 43.0256 72.0332 42.6619 71.8703C42.3021 71.7074 42.0028 71.4593 41.7642 71.126C41.5294 70.7926 41.4119 70.3722 41.4119 69.8646V61.1828Z" fill="#090A0A"/>
</svg>
