<svg width="68" height="92" viewBox="0 0 68 92" fill="none" xmlns="http://www.w3.org/2000/svg">
<rect x="14" width="40" height="43.2857" rx="5" fill="#E7F4FF"/>
<path d="M32.8571 28V21.1429H26V18.8571H32.8571V12H35.1429V18.8571H42V21.1429H35.1429V28H32.8571Z" fill="#25435B"/>
<path d="M42 31.2857H26V29H42V31.2857Z" fill="#25435B"/>
<path d="M1.79901 66.2852H0.506392L4.24503 56.1033H5.51776L9.25639 66.2852H7.96378L4.92116 57.7141H4.84162L1.79901 66.2852ZM2.27628 62.3079H7.48651V63.4016H2.27628V62.3079ZM13.5668 66.4442C12.9304 66.4442 12.3686 66.2835 11.8814 65.962C11.3942 65.6372 11.013 65.1798 10.7379 64.5898C10.4628 63.9966 10.3253 63.2956 10.3253 62.4869C10.3253 61.6848 10.4628 60.9888 10.7379 60.3988C11.013 59.8088 11.3958 59.3531 11.8864 59.0316C12.3769 58.7101 12.9437 58.5494 13.5866 58.5494C14.0838 58.5494 14.4766 58.6322 14.7649 58.7979C15.0566 58.9603 15.2786 59.146 15.4311 59.3548C15.5869 59.5603 15.7079 59.7293 15.794 59.8619H15.8935V56.1033H17.0668V66.2852H15.9332V65.1119H15.794C15.7079 65.2511 15.5852 65.4267 15.4261 65.6388C15.267 65.8477 15.04 66.0349 14.745 66.2006C14.45 66.363 14.0573 66.4442 13.5668 66.4442ZM13.7259 65.3903C14.1965 65.3903 14.5942 65.2676 14.919 65.0224C15.2438 64.7738 15.4908 64.4308 15.6598 63.9933C15.8288 63.5524 15.9134 63.0437 15.9134 62.467C15.9134 61.8969 15.8305 61.3981 15.6648 60.9705C15.4991 60.5397 15.2538 60.2049 14.929 59.9663C14.6042 59.7243 14.2031 59.6033 13.7259 59.6033C13.2287 59.6033 12.8144 59.7309 12.483 59.9862C12.1548 60.238 11.9079 60.5811 11.7422 61.0153C11.5798 61.4461 11.4986 61.93 11.4986 62.467C11.4986 63.0105 11.5814 63.5044 11.7472 63.9485C11.9162 64.3893 12.1648 64.7406 12.4929 65.0025C12.8243 65.261 13.2353 65.3903 13.7259 65.3903ZM22.2621 66.4442C21.6257 66.4442 21.0639 66.2835 20.5767 65.962C20.0895 65.6372 19.7083 65.1798 19.4332 64.5898C19.1581 63.9966 19.0206 63.2956 19.0206 62.4869C19.0206 61.6848 19.1581 60.9888 19.4332 60.3988C19.7083 59.8088 20.0911 59.3531 20.5817 59.0316C21.0722 58.7101 21.639 58.5494 22.282 58.5494C22.7791 58.5494 23.1719 58.6322 23.4602 58.7979C23.7519 58.9603 23.974 59.146 24.1264 59.3548C24.2822 59.5603 24.4032 59.7293 24.4893 59.8619H24.5888V56.1033H25.7621V66.2852H24.6286V65.1119H24.4893C24.4032 65.2511 24.2805 65.4267 24.1214 65.6388C23.9624 65.8477 23.7353 66.0349 23.4403 66.2006C23.1454 66.363 22.7526 66.4442 22.2621 66.4442ZM22.4212 65.3903C22.8918 65.3903 23.2895 65.2676 23.6143 65.0224C23.9392 64.7738 24.1861 64.4308 24.3551 63.9933C24.5241 63.5524 24.6087 63.0437 24.6087 62.467C24.6087 61.8969 24.5258 61.3981 24.3601 60.9705C24.1944 60.5397 23.9491 60.2049 23.6243 59.9663C23.2995 59.7243 22.8984 59.6033 22.4212 59.6033C21.924 59.6033 21.5097 59.7309 21.1783 59.9862C20.8501 60.238 20.6032 60.5811 20.4375 61.0153C20.2751 61.4461 20.1939 61.93 20.1939 62.467C20.1939 63.0105 20.2768 63.5044 20.4425 63.9485C20.6115 64.3893 20.8601 64.7406 21.1882 65.0025C21.5196 65.261 21.9306 65.3903 22.4212 65.3903ZM31.6733 55.6261L28.392 67.8164H27.3182L30.5994 55.6261H31.6733ZM36.3652 66.2852H33.2232V56.1033H36.5044C37.4921 56.1033 38.3373 56.3072 39.04 56.7148C39.7426 57.1192 40.2812 57.7009 40.6557 58.4599C41.0302 59.2156 41.2175 60.1204 41.2175 61.1744C41.2175 62.235 41.0286 63.1481 40.6507 63.9137C40.2729 64.676 39.7227 65.2627 39.0002 65.6737C38.2776 66.0813 37.3993 66.2852 36.3652 66.2852ZM34.4561 65.1914H36.2857C37.1275 65.1914 37.8252 65.029 38.3787 64.7042C38.9322 64.3794 39.3449 63.917 39.6167 63.3171C39.8884 62.7172 40.0243 62.003 40.0243 61.1744C40.0243 60.3524 39.8901 59.6448 39.6216 59.0515C39.3532 58.4549 38.9521 57.9975 38.4185 57.6793C37.8849 57.3578 37.2203 57.1971 36.4249 57.1971H34.4561V65.1914ZM43.1266 66.2852V58.6488H44.2601V59.8022H44.3397C44.4789 59.4244 44.7308 59.1178 45.0953 58.8825C45.4599 58.6471 45.8709 58.5295 46.3283 58.5295C46.4145 58.5295 46.5222 58.5311 46.6515 58.5344C46.7807 58.5378 46.8785 58.5427 46.9448 58.5494V59.7425C46.905 59.7326 46.8139 59.7177 46.6713 59.6978C46.5321 59.6746 46.3846 59.663 46.2289 59.663C45.8577 59.663 45.5262 59.7409 45.2346 59.8967C44.9462 60.0491 44.7175 60.2612 44.5485 60.533C44.3828 60.8015 44.2999 61.1081 44.2999 61.4528V66.2852H43.1266ZM51.2054 66.4442C50.516 66.4442 49.9112 66.2802 49.3908 65.9521C48.8738 65.6239 48.4694 65.1649 48.1777 64.5749C47.8894 63.985 47.7452 63.2956 47.7452 62.5067C47.7452 61.7113 47.8894 61.0169 48.1777 60.4237C48.4694 59.8304 48.8738 59.3697 49.3908 59.0415C49.9112 58.7134 50.516 58.5494 51.2054 58.5494C51.8948 58.5494 52.498 58.7134 53.0151 59.0415C53.5355 59.3697 53.9398 59.8304 54.2282 60.4237C54.5198 61.0169 54.6657 61.7113 54.6657 62.5067C54.6657 63.2956 54.5198 63.985 54.2282 64.5749C53.9398 65.1649 53.5355 65.6239 53.0151 65.9521C52.498 66.2802 51.8948 66.4442 51.2054 66.4442ZM51.2054 65.3903C51.7291 65.3903 52.16 65.256 52.498 64.9876C52.8361 64.7191 53.0864 64.3661 53.2488 63.9286C53.4112 63.4911 53.4924 63.0172 53.4924 62.5067C53.4924 61.9963 53.4112 61.5207 53.2488 61.0799C53.0864 60.6391 52.8361 60.2828 52.498 60.011C52.16 59.7392 51.7291 59.6033 51.2054 59.6033C50.6818 59.6033 50.2509 59.7392 49.9128 60.011C49.5748 60.2828 49.3245 60.6391 49.1621 61.0799C48.9997 61.5207 48.9185 61.9963 48.9185 62.5067C48.9185 63.0172 48.9997 63.4911 49.1621 63.9286C49.3245 64.3661 49.5748 64.7191 49.9128 64.9876C50.2509 65.256 50.6818 65.3903 51.2054 65.3903ZM56.4567 69.1488V58.6488H57.5902V59.8619H57.7294C57.8156 59.7293 57.9349 59.5603 58.0874 59.3548C58.2431 59.146 58.4652 58.9603 58.7536 58.7979C59.0452 58.6322 59.4396 58.5494 59.9368 58.5494C60.5798 58.5494 61.1465 58.7101 61.6371 59.0316C62.1276 59.3531 62.5104 59.8088 62.7855 60.3988C63.0606 60.9888 63.1982 61.6848 63.1982 62.4869C63.1982 63.2956 63.0606 63.9966 62.7855 64.5898C62.5104 65.1798 62.1293 65.6372 61.642 65.962C61.1548 66.2835 60.593 66.4442 59.9567 66.4442C59.4661 66.4442 59.0734 66.363 58.7784 66.2006C58.4834 66.0349 58.2564 65.8477 58.0973 65.6388C57.9382 65.4267 57.8156 65.2511 57.7294 65.1119H57.63V69.1488H56.4567ZM57.6101 62.467C57.6101 63.0437 57.6946 63.5524 57.8636 63.9933C58.0327 64.4308 58.2796 64.7738 58.6044 65.0224C58.9292 65.2676 59.3269 65.3903 59.7976 65.3903C60.2881 65.3903 60.6974 65.261 61.0256 65.0025C61.357 64.7406 61.6056 64.3893 61.7713 63.9485C61.9403 63.5044 62.0249 63.0105 62.0249 62.467C62.0249 61.93 61.942 61.4461 61.7763 61.0153C61.6139 60.5811 61.367 60.238 61.0355 59.9862C60.7074 59.7309 60.2947 59.6033 59.7976 59.6033C59.3203 59.6033 58.9193 59.7243 58.5945 59.9663C58.2696 60.2049 58.0244 60.5397 57.8587 60.9705C57.6929 61.3981 57.6101 61.8969 57.6101 62.467ZM19.7533 79.2852H18.5203C18.4474 78.9305 18.3198 78.619 18.1375 78.3505C17.9585 78.082 17.7398 77.8567 17.4813 77.6744C17.2261 77.4888 16.9427 77.3496 16.6311 77.2567C16.3196 77.1639 15.9948 77.1175 15.6567 77.1175C15.0402 77.1175 14.4817 77.2733 13.9813 77.5849C13.4841 77.8964 13.088 78.3555 12.7931 78.962C12.5014 79.5685 12.3556 80.3126 12.3556 81.1942C12.3556 82.0759 12.5014 82.82 12.7931 83.4265C13.088 84.033 13.4841 84.4921 13.9813 84.8036C14.4817 85.1152 15.0402 85.271 15.6567 85.271C15.9948 85.271 16.3196 85.2246 16.6311 85.1317C16.9427 85.0389 17.2261 84.9014 17.4813 84.7191C17.7398 84.5335 17.9585 84.3065 18.1375 84.038C18.3198 83.7662 18.4474 83.4547 18.5203 83.1033H19.7533C19.6605 83.6237 19.4914 84.0894 19.2462 84.5004C19.0009 84.9113 18.696 85.261 18.3314 85.5494C17.9668 85.8344 17.5575 86.0515 17.1034 86.2006C16.6527 86.3498 16.1704 86.4244 15.6567 86.4244C14.7883 86.4244 14.0161 86.2122 13.3399 85.788C12.6638 85.3638 12.1318 84.7605 11.7441 83.9783C11.3563 83.1961 11.1624 82.2681 11.1624 81.1942C11.1624 80.1204 11.3563 79.1924 11.7441 78.4102C12.1318 77.628 12.6638 77.0247 13.3399 76.6005C14.0161 76.1763 14.7883 75.9641 15.6567 75.9641C16.1704 75.9641 16.6527 76.0387 17.1034 76.1879C17.5575 76.337 17.9668 76.5558 18.3314 76.8441C18.696 77.1291 19.0009 77.4772 19.2462 77.8881C19.4914 78.2958 19.6605 78.7615 19.7533 79.2852ZM24.6888 86.4442C23.9994 86.4442 23.3946 86.2802 22.8742 85.9521C22.3572 85.6239 21.9528 85.1649 21.6611 84.5749C21.3728 83.985 21.2286 83.2956 21.2286 82.5067C21.2286 81.7113 21.3728 81.0169 21.6611 80.4237C21.9528 79.8304 22.3572 79.3697 22.8742 79.0415C23.3946 78.7134 23.9994 78.5494 24.6888 78.5494C25.3782 78.5494 25.9814 78.7134 26.4985 79.0415C27.0189 79.3697 27.4232 79.8304 27.7116 80.4237C28.0032 81.0169 28.1491 81.7113 28.1491 82.5067C28.1491 83.2956 28.0032 83.985 27.7116 84.5749C27.4232 85.1649 27.0189 85.6239 26.4985 85.9521C25.9814 86.2802 25.3782 86.4442 24.6888 86.4442ZM24.6888 85.3903C25.2125 85.3903 25.6434 85.256 25.9814 84.9876C26.3195 84.7191 26.5698 84.3661 26.7322 83.9286C26.8946 83.4911 26.9758 83.0172 26.9758 82.5067C26.9758 81.9963 26.8946 81.5207 26.7322 81.0799C26.5698 80.6391 26.3195 80.2828 25.9814 80.011C25.6434 79.7392 25.2125 79.6033 24.6888 79.6033C24.1652 79.6033 23.7343 79.7392 23.3962 80.011C23.0582 80.2828 22.8079 80.6391 22.6455 81.0799C22.4831 81.5207 22.4019 81.9963 22.4019 82.5067C22.4019 83.0172 22.4831 83.4911 22.6455 83.9286C22.8079 84.3661 23.0582 84.7191 23.3962 84.9876C23.7343 85.256 24.1652 85.3903 24.6888 85.3903ZM34.7526 83.163V78.6488H35.9259V86.2852H34.7526V84.9925H34.673C34.4941 85.3803 34.2156 85.7101 33.8378 85.9819C33.46 86.2504 32.9827 86.3846 32.406 86.3846C31.9287 86.3846 31.5045 86.2802 31.1333 86.0714C30.762 85.8593 30.4704 85.5411 30.2583 85.1168C30.0461 84.6893 29.9401 84.1507 29.9401 83.5011V78.6488H31.1134V83.4215C31.1134 83.9783 31.2691 84.4225 31.5807 84.7539C31.8956 85.0853 32.2966 85.2511 32.7838 85.2511C33.0755 85.2511 33.3721 85.1765 33.6737 85.0273C33.9787 84.8782 34.2339 84.6495 34.4394 84.3413C34.6482 84.033 34.7526 83.6403 34.7526 83.163ZM38.0748 86.2852V78.6488H39.2084V79.8022H39.2879C39.4271 79.4244 39.679 79.1178 40.0436 78.8825C40.4082 78.6471 40.8192 78.5295 41.2765 78.5295C41.3627 78.5295 41.4704 78.5311 41.5997 78.5344C41.729 78.5378 41.8267 78.5427 41.893 78.5494V79.7425C41.8532 79.7326 41.7621 79.7177 41.6196 79.6978C41.4804 79.6746 41.3329 79.663 41.1771 79.663C40.8059 79.663 40.4745 79.7409 40.1828 79.8967C39.8944 80.0491 39.6657 80.2612 39.4967 80.533C39.331 80.8015 39.2481 81.1081 39.2481 81.4528V86.2852H38.0748ZM48.6929 80.359L47.6389 80.6573C47.5727 80.4817 47.4749 80.311 47.3456 80.1452C47.2197 79.9762 47.0473 79.837 46.8286 79.7276C46.6098 79.6183 46.3298 79.5636 45.9884 79.5636C45.521 79.5636 45.1316 79.6713 44.82 79.8867C44.5118 80.0988 44.3577 80.369 44.3577 80.6971C44.3577 80.9888 44.4637 81.2191 44.6759 81.3881C44.888 81.5572 45.2194 81.698 45.6702 81.8107L46.8037 82.0891C47.4865 82.2549 47.9952 82.5084 48.33 82.8498C48.6647 83.1879 48.8321 83.6237 48.8321 84.1573C48.8321 84.5948 48.7062 84.9859 48.4543 85.3306C48.2057 85.6753 47.8577 85.9471 47.4102 86.146C46.9628 86.3448 46.4424 86.4442 45.8492 86.4442C45.0703 86.4442 44.4256 86.2752 43.9152 85.9371C43.4048 85.5991 43.0816 85.1052 42.9458 84.4556L44.0594 84.1772C44.1655 84.5882 44.366 84.8964 44.661 85.1019C44.9593 85.3074 45.3487 85.4102 45.8293 85.4102C46.3762 85.4102 46.8103 85.2942 47.1318 85.0621C47.4566 84.8268 47.6191 84.5451 47.6191 84.217C47.6191 83.9518 47.5262 83.7298 47.3406 83.5508C47.155 83.3685 46.87 83.2326 46.4855 83.1431L45.2128 82.8448C44.5135 82.6791 43.9997 82.4222 43.6716 82.0742C43.3468 81.7229 43.1844 81.2837 43.1844 80.7567C43.1844 80.3259 43.3054 79.9447 43.5473 79.6133C43.7926 79.2818 44.1257 79.0217 44.5466 78.8327C44.9709 78.6438 45.4514 78.5494 45.9884 78.5494C46.7441 78.5494 47.3373 78.7151 47.7682 79.0465C48.2024 79.378 48.5106 79.8155 48.6929 80.359ZM53.8 86.4442C53.0642 86.4442 52.4295 86.2818 51.8959 85.957C51.3656 85.6289 50.9562 85.1715 50.6679 84.5849C50.3828 83.9949 50.2403 83.3088 50.2403 82.5266C50.2403 81.7444 50.3828 81.055 50.6679 80.4585C50.9562 79.8585 51.3573 79.3912 51.871 79.0565C52.3881 78.7184 52.9913 78.5494 53.6807 78.5494C54.0784 78.5494 54.4711 78.6156 54.8589 78.7482C55.2467 78.8808 55.5997 79.0962 55.9179 79.3945C56.2361 79.6895 56.4896 80.0806 56.6785 80.5678C56.8675 81.055 56.9619 81.6549 56.9619 82.3675V82.8647H51.0756V81.8505H55.7687C55.7687 81.4196 55.6826 81.0352 55.5102 80.6971C55.3412 80.359 55.0992 80.0922 54.7844 79.8967C54.4728 79.7011 54.1049 79.6033 53.6807 79.6033C53.2133 79.6033 52.809 79.7193 52.4676 79.9513C52.1295 80.18 51.8693 80.4783 51.6871 80.8462C51.5048 81.2141 51.4136 81.6085 51.4136 82.0295V82.7056C51.4136 83.2823 51.5131 83.7712 51.7119 84.1722C51.9141 84.57 52.1942 84.8732 52.5521 85.082C52.9101 85.2875 53.326 85.3903 53.8 85.3903C54.1082 85.3903 54.3866 85.3472 54.6352 85.261C54.8871 85.1715 55.1042 85.0389 55.2865 84.8633C55.4688 84.6843 55.6096 84.4622 55.7091 84.1971L56.8426 84.5153C56.7233 84.8997 56.5228 85.2378 56.241 85.5295C55.9593 85.8178 55.6113 86.0432 55.197 86.2056C54.7827 86.3647 54.317 86.4442 53.8 86.4442Z" fill="#090A0A"/>
</svg>
