<svg width="89" height="96" viewBox="0 0 89 96" fill="none" xmlns="http://www.w3.org/2000/svg">
<rect x="20.5" width="48" height="48" rx="5" fill="#E7F4FF"/>
<path d="M50.5 12H53.5V15H56.5V18H53.5V21H50.5V18H47.5V15H50.5V12Z" fill="#25435B"/>
<path fill-rule="evenodd" clip-rule="evenodd" d="M44.5 24V15H32.5V36H53.5V24H44.5ZM35.5 18H41.5V24H35.5V18ZM41.5 27V33H35.5V27H41.5ZM50.5 27V33H44.5V27H50.5Z" fill="#25435B"/>
<path d="M1.9723 72H0.495028L4.76776 60.3636H6.2223L10.495 72H9.01776L5.54048 62.2045H5.44957L1.9723 72ZM2.51776 67.4545H8.4723V68.7045H2.51776V67.4545ZM18.3075 65.2273L17.103 65.5682C17.0272 65.3674 16.9155 65.1723 16.7678 64.983C16.6238 64.7898 16.4268 64.6307 16.1768 64.5057C15.9268 64.3807 15.6068 64.3182 15.2166 64.3182C14.6825 64.3182 14.2375 64.4413 13.8814 64.6875C13.5291 64.9299 13.353 65.2386 13.353 65.6136C13.353 65.947 13.4742 66.2102 13.7166 66.4034C13.959 66.5966 14.3378 66.7576 14.853 66.8864L16.1484 67.2045C16.9287 67.3939 17.5102 67.6837 17.8928 68.0739C18.2753 68.4602 18.4666 68.9583 18.4666 69.5682C18.4666 70.0682 18.3227 70.5152 18.0348 70.9091C17.7507 71.303 17.353 71.6136 16.8416 71.8409C16.3303 72.0682 15.7356 72.1818 15.0575 72.1818C14.1674 72.1818 13.4306 71.9886 12.8473 71.6023C12.264 71.2159 11.8946 70.6515 11.7393 69.9091L13.0121 69.5909C13.1333 70.0606 13.3625 70.4129 13.6996 70.6477C14.0405 70.8826 14.4856 71 15.0348 71C15.6598 71 16.156 70.8674 16.5234 70.6023C16.8946 70.3333 17.0803 70.0114 17.0803 69.6364C17.0803 69.3333 16.9742 69.0795 16.7621 68.875C16.55 68.6667 16.2242 68.5114 15.7848 68.4091L14.3303 68.0682C13.531 67.8788 12.9439 67.5852 12.5689 67.1875C12.1977 66.786 12.0121 66.2841 12.0121 65.6818C12.0121 65.1894 12.1503 64.7538 12.4268 64.375C12.7071 63.9962 13.0878 63.6989 13.5689 63.483C14.0537 63.267 14.603 63.1591 15.2166 63.1591C16.0803 63.1591 16.7583 63.3485 17.2507 63.7273C17.7469 64.1061 18.0992 64.6061 18.3075 65.2273ZM26.6669 65.2273L25.4624 65.5682C25.3866 65.3674 25.2749 65.1723 25.1271 64.983C24.9832 64.7898 24.7862 64.6307 24.5362 64.5057C24.2862 64.3807 23.9661 64.3182 23.576 64.3182C23.0419 64.3182 22.5968 64.4413 22.2408 64.6875C21.8885 64.9299 21.7124 65.2386 21.7124 65.6136C21.7124 65.947 21.8336 66.2102 22.076 66.4034C22.3184 66.5966 22.6972 66.7576 23.2124 66.8864L24.5078 67.2045C25.2881 67.3939 25.8696 67.6837 26.2521 68.0739C26.6347 68.4602 26.826 68.9583 26.826 69.5682C26.826 70.0682 26.6821 70.5152 26.3942 70.9091C26.1101 71.303 25.7124 71.6136 25.201 71.8409C24.6896 72.0682 24.0949 72.1818 23.4169 72.1818C22.5268 72.1818 21.79 71.9886 21.2067 71.6023C20.6233 71.2159 20.254 70.6515 20.0987 69.9091L21.3714 69.5909C21.4927 70.0606 21.7218 70.4129 22.0589 70.6477C22.3999 70.8826 22.8449 71 23.3942 71C24.0192 71 24.5154 70.8674 24.8828 70.6023C25.254 70.3333 25.4396 70.0114 25.4396 69.6364C25.4396 69.3333 25.3336 69.0795 25.1214 68.875C24.9093 68.6667 24.5836 68.5114 24.1442 68.4091L22.6896 68.0682C21.8904 67.8788 21.3033 67.5852 20.9283 67.1875C20.5571 66.786 20.3714 66.2841 20.3714 65.6818C20.3714 65.1894 20.5097 64.7538 20.7862 64.375C21.0665 63.9962 21.4472 63.6989 21.9283 63.483C22.4131 63.267 22.9624 63.1591 23.576 63.1591C24.4396 63.1591 25.1177 63.3485 25.6101 63.7273C26.1063 64.1061 26.4586 64.6061 26.6669 65.2273ZM28.8445 72V63.2727H30.1854V72H28.8445ZM29.5263 61.8182C29.2649 61.8182 29.0395 61.7292 28.8501 61.5511C28.6645 61.3731 28.5717 61.1591 28.5717 60.9091C28.5717 60.6591 28.6645 60.4451 28.8501 60.267C29.0395 60.089 29.2649 60 29.5263 60C29.7876 60 30.0111 60.089 30.1967 60.267C30.3861 60.4451 30.4808 60.6591 30.4808 60.9091C30.4808 61.1591 30.3861 61.3731 30.1967 61.5511C30.0111 61.7292 29.7876 61.8182 29.5263 61.8182ZM36.1641 75.4545C35.5163 75.4545 34.9595 75.3712 34.4936 75.2045C34.0277 75.0417 33.6394 74.8258 33.3288 74.5568C33.022 74.2917 32.7777 74.0076 32.5959 73.7045L33.6641 72.9545C33.7853 73.1136 33.9387 73.2955 34.1243 73.5C34.3099 73.7083 34.5637 73.8883 34.8857 74.0398C35.2114 74.1951 35.6375 74.2727 36.1641 74.2727C36.8686 74.2727 37.45 74.1023 37.9084 73.7614C38.3667 73.4205 38.5959 72.8864 38.5959 72.1591V70.3864H38.4822C38.3838 70.5455 38.2436 70.7424 38.0618 70.9773C37.8838 71.2083 37.6262 71.4148 37.2891 71.5966C36.9557 71.7746 36.505 71.8636 35.9368 71.8636C35.2322 71.8636 34.5997 71.697 34.0391 71.3636C33.4822 71.0303 33.041 70.5455 32.7152 69.9091C32.3932 69.2727 32.2322 68.5 32.2322 67.5909C32.2322 66.697 32.3894 65.9186 32.7038 65.2557C33.0182 64.589 33.4557 64.0739 34.0163 63.7102C34.5769 63.3428 35.2247 63.1591 35.9595 63.1591C36.5277 63.1591 36.9785 63.2538 37.3118 63.4432C37.6489 63.6288 37.9065 63.8409 38.0845 64.0795C38.2663 64.3144 38.4065 64.5076 38.505 64.6591H38.6413V63.2727H39.9368V72.25C39.9368 73 39.7663 73.6098 39.4254 74.0795C39.0883 74.553 38.6338 74.8996 38.0618 75.1193C37.4936 75.3428 36.861 75.4545 36.1641 75.4545ZM36.1186 70.6591C36.6565 70.6591 37.111 70.536 37.4822 70.2898C37.8535 70.0436 38.1357 69.6894 38.3288 69.2273C38.522 68.7652 38.6186 68.2121 38.6186 67.5682C38.6186 66.9394 38.5239 66.3845 38.3345 65.9034C38.1451 65.4223 37.8648 65.0455 37.4936 64.7727C37.1224 64.5 36.6641 64.3636 36.1186 64.3636C35.5504 64.3636 35.0769 64.5076 34.6982 64.7955C34.3232 65.0833 34.041 65.4697 33.8516 65.9545C33.666 66.4394 33.5732 66.9773 33.5732 67.5682C33.5732 68.1742 33.6679 68.7102 33.8572 69.1761C34.0504 69.6383 34.3345 70.0019 34.7095 70.267C35.0883 70.5284 35.558 70.6591 36.1186 70.6591ZM43.7322 66.75V72H42.3913V63.2727H43.6868V64.6364H43.8004C44.005 64.1932 44.3156 63.8371 44.7322 63.5682C45.1489 63.2955 45.6868 63.1591 46.3459 63.1591C46.9368 63.1591 47.4538 63.2803 47.897 63.5227C48.3402 63.7614 48.6849 64.125 48.9311 64.6136C49.1773 65.0985 49.3004 65.7121 49.3004 66.4545V72H47.9595V66.5455C47.9595 65.8598 47.7815 65.3258 47.4254 64.9432C47.0694 64.5568 46.5807 64.3636 45.9595 64.3636C45.5315 64.3636 45.1489 64.4564 44.8118 64.642C44.4785 64.8277 44.2152 65.0985 44.022 65.4545C43.8288 65.8106 43.7322 66.2424 43.7322 66.75ZM51.7507 72V63.2727H53.0462V64.6364H53.1598C53.3416 64.1705 53.6352 63.8087 54.0405 63.5511C54.4458 63.2898 54.9325 63.1591 55.5007 63.1591C56.0765 63.1591 56.5556 63.2898 56.9382 63.5511C57.3246 63.8087 57.6257 64.1705 57.8416 64.6364H57.9325C58.156 64.1856 58.4912 63.8277 58.9382 63.5625C59.3852 63.2936 59.9212 63.1591 60.5462 63.1591C61.3265 63.1591 61.9647 63.4034 62.4609 63.892C62.9572 64.3769 63.2053 65.1326 63.2053 66.1591V72H61.8643V66.1591C61.8643 65.5152 61.6882 65.0549 61.3359 64.7784C60.9837 64.5019 60.5689 64.3636 60.0916 64.3636C59.478 64.3636 59.0026 64.5492 58.6655 64.9205C58.3284 65.2879 58.1598 65.7538 58.1598 66.3182V72H56.7962V66.0227C56.7962 65.5265 56.6352 65.1269 56.3132 64.8239C55.9912 64.517 55.5765 64.3636 55.0689 64.3636C54.7204 64.3636 54.3946 64.4564 54.0916 64.642C53.7924 64.8277 53.55 65.0852 53.3643 65.4148C53.1825 65.7405 53.0916 66.1174 53.0916 66.5455V72H51.7507ZM69.3161 72.1818C68.4751 72.1818 67.7498 71.9962 67.1399 71.625C66.5339 71.25 66.0661 70.7273 65.7365 70.0568C65.4107 69.3826 65.2479 68.5985 65.2479 67.7045C65.2479 66.8106 65.4107 66.0227 65.7365 65.3409C66.0661 64.6553 66.5244 64.1212 67.1115 63.7386C67.7024 63.3523 68.3918 63.1591 69.1797 63.1591C69.6342 63.1591 70.0831 63.2348 70.5263 63.3864C70.9695 63.5379 71.3729 63.7841 71.7365 64.125C72.1001 64.4621 72.3899 64.9091 72.6058 65.4659C72.8217 66.0227 72.9297 66.7083 72.9297 67.5227V68.0909H66.2024V66.9318H71.5661C71.5661 66.4394 71.4676 66 71.2706 65.6136C71.0774 65.2273 70.8009 64.9223 70.4411 64.6989C70.085 64.4754 69.6645 64.3636 69.1797 64.3636C68.6456 64.3636 68.1835 64.4962 67.7933 64.7614C67.407 65.0227 67.1096 65.3636 66.9013 65.7841C66.6929 66.2045 66.5888 66.6553 66.5888 67.1364V67.9091C66.5888 68.5682 66.7024 69.1269 66.9297 69.5852C67.1607 70.0398 67.4808 70.3864 67.8899 70.625C68.299 70.8598 68.7744 70.9773 69.3161 70.9773C69.6683 70.9773 69.9865 70.928 70.2706 70.8295C70.5585 70.7273 70.8066 70.5758 71.0149 70.375C71.2232 70.1705 71.3842 69.9167 71.4979 69.6136L72.7933 69.9773C72.657 70.4167 72.4278 70.803 72.1058 71.1364C71.7839 71.4659 71.3861 71.7235 70.9126 71.9091C70.4392 72.0909 69.907 72.1818 69.3161 72.1818ZM76.3104 66.75V72H74.9695V63.2727H76.2649V64.6364H76.3786C76.5831 64.1932 76.8937 63.8371 77.3104 63.5682C77.727 63.2955 78.2649 63.1591 78.924 63.1591C79.5149 63.1591 80.032 63.2803 80.4751 63.5227C80.9183 63.7614 81.263 64.125 81.5092 64.6136C81.7554 65.0985 81.8786 65.7121 81.8786 66.4545V72H80.5376V66.5455C80.5376 65.8598 80.3596 65.3258 80.0036 64.9432C79.6475 64.5568 79.1589 64.3636 78.5376 64.3636C78.1096 64.3636 77.727 64.4564 77.3899 64.642C77.0566 64.8277 76.7933 65.0985 76.6001 65.4545C76.407 65.8106 76.3104 66.2424 76.3104 66.75ZM88.1243 63.2727V64.4091H83.6016V63.2727H88.1243ZM84.9197 61.1818H86.2607V69.5C86.2607 69.8788 86.3156 70.1629 86.4254 70.3523C86.5391 70.5379 86.683 70.6629 86.8572 70.7273C87.0353 70.7879 87.2228 70.8182 87.4197 70.8182C87.5675 70.8182 87.6887 70.8106 87.7834 70.7955C87.8781 70.7765 87.9538 70.7614 88.0107 70.75L88.2834 71.9545C88.1925 71.9886 88.0656 72.0227 87.9027 72.0568C87.7398 72.0947 87.5334 72.1136 87.2834 72.1136C86.9046 72.1136 86.5334 72.0322 86.1697 71.8693C85.8099 71.7064 85.5107 71.4583 85.272 71.125C85.0372 70.7917 84.9197 70.3712 84.9197 69.8636V61.1818ZM9.08097 92V80.3636H16.1037V81.6136H10.4901V85.5455H15.7401V86.7955H10.4901V90.75H16.1946V92H9.08097ZM19.4616 83.2727L21.5526 86.8409L23.6435 83.2727H25.1889L22.3707 87.6364L25.1889 92H23.6435L21.5526 88.6136L19.4616 92H17.9162L20.6889 87.6364L17.9162 83.2727H19.4616ZM30.8977 83.2727V84.4091H26.375V83.2727H30.8977ZM27.6932 81.1818H29.0341V89.5C29.0341 89.8788 29.089 90.1629 29.1989 90.3523C29.3125 90.5379 29.4564 90.6629 29.6307 90.7273C29.8087 90.7879 29.9962 90.8182 30.1932 90.8182C30.3409 90.8182 30.4621 90.8106 30.5568 90.7955C30.6515 90.7765 30.7273 90.7614 30.7841 90.75L31.0568 91.9545C30.9659 91.9886 30.839 92.0227 30.6761 92.0568C30.5133 92.0947 30.3068 92.1136 30.0568 92.1136C29.678 92.1136 29.3068 92.0322 28.9432 91.8693C28.5833 91.7064 28.2841 91.4583 28.0455 91.125C27.8106 90.7917 27.6932 90.3712 27.6932 89.8636V81.1818ZM36.4801 92.1818C35.6392 92.1818 34.9138 91.9962 34.304 91.625C33.6979 91.25 33.2301 90.7273 32.9006 90.0568C32.5748 89.3826 32.4119 88.5985 32.4119 87.7045C32.4119 86.8106 32.5748 86.0227 32.9006 85.3409C33.2301 84.6553 33.6884 84.1212 34.2756 83.7386C34.8665 83.3523 35.5559 83.1591 36.3438 83.1591C36.7983 83.1591 37.2472 83.2348 37.6903 83.3864C38.1335 83.5379 38.5369 83.7841 38.9006 84.125C39.2642 84.4621 39.554 84.9091 39.7699 85.4659C39.9858 86.0227 40.0938 86.7083 40.0938 87.5227V88.0909H33.3665V86.9318H38.7301C38.7301 86.4394 38.6316 86 38.4347 85.6136C38.2415 85.2273 37.965 84.9223 37.6051 84.6989C37.2491 84.4754 36.8286 84.3636 36.3438 84.3636C35.8097 84.3636 35.3475 84.4962 34.9574 84.7614C34.571 85.0227 34.2737 85.3636 34.0653 85.7841C33.857 86.2045 33.7528 86.6553 33.7528 87.1364V87.9091C33.7528 88.5682 33.8665 89.1269 34.0938 89.5852C34.3248 90.0398 34.6449 90.3864 35.054 90.625C35.4631 90.8598 35.9384 90.9773 36.4801 90.9773C36.8324 90.9773 37.1506 90.928 37.4347 90.8295C37.7225 90.7273 37.9706 90.5758 38.179 90.375C38.3873 90.1705 38.5483 89.9167 38.6619 89.6136L39.9574 89.9773C39.821 90.4167 39.5919 90.803 39.2699 91.1364C38.9479 91.4659 38.5502 91.7235 38.0767 91.9091C37.6032 92.0909 37.071 92.1818 36.4801 92.1818ZM43.4744 86.75V92H42.1335V83.2727H43.429V84.6364H43.5426C43.7472 84.1932 44.0578 83.8371 44.4744 83.5682C44.8911 83.2955 45.429 83.1591 46.0881 83.1591C46.679 83.1591 47.196 83.2803 47.6392 83.5227C48.0824 83.7614 48.4271 84.125 48.6733 84.6136C48.9195 85.0985 49.0426 85.7121 49.0426 86.4545V92H47.7017V86.5455C47.7017 85.8598 47.5237 85.3258 47.1676 84.9432C46.8116 84.5568 46.3229 84.3636 45.7017 84.3636C45.2737 84.3636 44.8911 84.4564 44.554 84.642C44.2206 84.8277 43.9574 85.0985 43.7642 85.4545C43.571 85.8106 43.4744 86.2424 43.4744 86.75ZM57.6747 85.2273L56.4702 85.5682C56.3944 85.3674 56.2827 85.1723 56.1349 84.983C55.991 84.7898 55.794 84.6307 55.544 84.5057C55.294 84.3807 54.974 84.3182 54.5838 84.3182C54.0497 84.3182 53.6046 84.4413 53.2486 84.6875C52.8963 84.9299 52.7202 85.2386 52.7202 85.6136C52.7202 85.947 52.8414 86.2102 53.0838 86.4034C53.3262 86.5966 53.705 86.7576 54.2202 86.8864L55.5156 87.2045C56.2959 87.3939 56.8774 87.6837 57.2599 88.0739C57.6425 88.4602 57.8338 88.9583 57.8338 89.5682C57.8338 90.0682 57.6899 90.5152 57.402 90.9091C57.1179 91.303 56.7202 91.6136 56.2088 91.8409C55.6974 92.0682 55.1027 92.1818 54.4247 92.1818C53.5346 92.1818 52.7978 91.9886 52.2145 91.6023C51.6312 91.2159 51.2618 90.6515 51.1065 89.9091L52.3793 89.5909C52.5005 90.0606 52.7296 90.4129 53.0668 90.6477C53.4077 90.8826 53.8527 91 54.402 91C55.027 91 55.5232 90.8674 55.8906 90.6023C56.2618 90.3333 56.4474 90.0114 56.4474 89.6364C56.4474 89.3333 56.3414 89.0795 56.1293 88.875C55.9171 88.6667 55.5914 88.5114 55.152 88.4091L53.6974 88.0682C52.8982 87.8788 52.3111 87.5852 51.9361 87.1875C51.5649 86.786 51.3793 86.2841 51.3793 85.6818C51.3793 85.1894 51.5175 84.7538 51.794 84.375C52.0743 83.9962 52.455 83.6989 52.9361 83.483C53.4209 83.267 53.9702 83.1591 54.5838 83.1591C55.4474 83.1591 56.1255 83.3485 56.6179 83.7273C57.1141 84.1061 57.4664 84.6061 57.6747 85.2273ZM59.8523 92V83.2727H61.1932V92H59.8523ZM60.5341 81.8182C60.2727 81.8182 60.0473 81.7292 59.858 81.5511C59.6723 81.3731 59.5795 81.1591 59.5795 80.9091C59.5795 80.6591 59.6723 80.4451 59.858 80.267C60.0473 80.089 60.2727 80 60.5341 80C60.7955 80 61.0189 80.089 61.2045 80.267C61.3939 80.4451 61.4886 80.6591 61.4886 80.9091C61.4886 81.1591 61.3939 81.3731 61.2045 81.5511C61.0189 81.7292 60.7955 81.8182 60.5341 81.8182ZM67.1946 92.1818C66.4067 92.1818 65.7154 91.9943 65.1207 91.6193C64.5298 91.2443 64.0677 90.7197 63.7344 90.0455C63.4048 89.3712 63.2401 88.5833 63.2401 87.6818C63.2401 86.7727 63.4048 85.9792 63.7344 85.3011C64.0677 84.6231 64.5298 84.0966 65.1207 83.7216C65.7154 83.3466 66.4067 83.1591 67.1946 83.1591C67.9825 83.1591 68.6719 83.3466 69.2628 83.7216C69.8575 84.0966 70.3196 84.6231 70.6491 85.3011C70.9825 85.9792 71.1491 86.7727 71.1491 87.6818C71.1491 88.5833 70.9825 89.3712 70.6491 90.0455C70.3196 90.7197 69.8575 91.2443 69.2628 91.6193C68.6719 91.9943 67.9825 92.1818 67.1946 92.1818ZM67.1946 90.9773C67.7931 90.9773 68.2855 90.8239 68.6719 90.517C69.0582 90.2102 69.3442 89.8068 69.5298 89.3068C69.7154 88.8068 69.8082 88.2652 69.8082 87.6818C69.8082 87.0985 69.7154 86.5549 69.5298 86.0511C69.3442 85.5473 69.0582 85.1402 68.6719 84.8295C68.2855 84.5189 67.7931 84.3636 67.1946 84.3636C66.5961 84.3636 66.1037 84.5189 65.7173 84.8295C65.331 85.1402 65.045 85.5473 64.8594 86.0511C64.6738 86.5549 64.581 87.0985 64.581 87.6818C64.581 88.2652 64.6738 88.8068 64.8594 89.3068C65.045 89.8068 65.331 90.2102 65.7173 90.517C66.1037 90.8239 66.5961 90.9773 67.1946 90.9773ZM74.5369 86.75V92H73.196V83.2727H74.4915V84.6364H74.6051C74.8097 84.1932 75.1203 83.8371 75.5369 83.5682C75.9536 83.2955 76.4915 83.1591 77.1506 83.1591C77.7415 83.1591 78.2585 83.2803 78.7017 83.5227C79.1449 83.7614 79.4896 84.125 79.7358 84.6136C79.982 85.0985 80.1051 85.7121 80.1051 86.4545V92H78.7642V86.5455C78.7642 85.8598 78.5862 85.3258 78.2301 84.9432C77.8741 84.5568 77.3854 84.3636 76.7642 84.3636C76.3362 84.3636 75.9536 84.4564 75.6165 84.642C75.2831 84.8277 75.0199 85.0985 74.8267 85.4545C74.6335 85.8106 74.5369 86.2424 74.5369 86.75Z" fill="#090A0A"/>
</svg>
