<svg width="21" height="21" viewBox="0 0 21 21" fill="none" xmlns="http://www.w3.org/2000/svg">
<g id="online-learning 1" clip-path="url(#clip0_16690_12153)">
<g id="icon/footer/course/off">
<path id="Subtract" d="M19.25 20.4712H4.25C3.25544 20.4712 2.30161 20.1551 1.59835 19.5925C0.895088 19.0299 0.5 18.2668 0.5 17.4712L0.5 3.47119C0.5 2.67554 0.895088 1.91248 1.59835 1.34987C2.30161 0.787262 3.25544 0.471191 4.25 0.471191L18 0.471191C18.663 0.471191 19.2989 0.681905 19.7677 1.05698C20.2366 1.43205 20.5 1.94076 20.5 2.47119V15.4612C20.5007 15.6253 20.4523 15.7871 20.3587 15.9332L19.6775 17.0242C19.5913 17.1633 19.5465 17.3164 19.5465 17.4717C19.5465 17.6269 19.5913 17.7801 19.6775 17.9192L20.3575 19.0062C20.4521 19.1495 20.501 19.3092 20.5 19.4712C20.5 19.7364 20.3683 19.9908 20.1339 20.1783C19.8994 20.3658 19.5815 20.4712 19.25 20.4712ZM4.25 16.4712C3.91848 16.4712 3.60053 16.5765 3.36611 16.7641C3.13169 16.9516 3 17.206 3 17.4712C3 17.7364 3.13169 17.9908 3.36611 18.1783C3.60053 18.3658 3.91848 18.4712 4.25 18.4712H17.2587C16.9739 17.824 16.9739 17.1184 17.2587 16.4712H4.25ZM7.99999 5.47119C7.66847 5.47119 7.35053 5.57655 7.11611 5.76408C6.88169 5.95162 6.74999 6.20598 6.74999 6.47119C6.74999 6.73641 6.88169 6.99076 7.11611 7.1783C7.35053 7.36583 7.66847 7.47119 7.99999 7.47119H13C13.3315 7.47119 13.6495 7.36583 13.8839 7.1783C14.1183 6.99076 14.25 6.73641 14.25 6.47119C14.25 6.20598 14.1183 5.95162 13.8839 5.76408C13.6495 5.57655 13.3315 5.47119 13 5.47119H7.99999Z" fill="#25435B"/>
</g>
</g>
<defs>
<clipPath id="clip0_16690_12153">
<rect width="20" height="21" fill="white" transform="translate(0.5)"/>
</clipPath>
</defs>
</svg>
