<svg width="21" height="21" viewBox="0 0 21 21" fill="none" xmlns="http://www.w3.org/2000/svg">
<path d="M19.25 20.4707H4.25C3.25544 20.4707 2.30161 20.1546 1.59835 19.592C0.895088 19.0294 0.5 18.2664 0.5 17.4707L0.5 3.4707C0.5 2.67505 0.895088 1.91199 1.59835 1.34938C2.30161 0.786774 3.25544 0.470703 4.25 0.470703L18 0.470703C18.663 0.470703 19.2989 0.681417 19.7677 1.05649C20.2366 1.43156 20.5 1.94027 20.5 2.4707V15.4607C20.5007 15.6248 20.4523 15.7867 20.3587 15.9327L19.6775 17.0237C19.5913 17.1628 19.5465 17.316 19.5465 17.4712C19.5465 17.6264 19.5913 17.7796 19.6775 17.9187L20.3575 19.0057C20.4521 19.149 20.501 19.3087 20.5 19.4707C20.5 19.7359 20.3683 19.9903 20.1339 20.1778C19.8994 20.3653 19.5815 20.4707 19.25 20.4707ZM4.25 16.4707C3.91848 16.4707 3.60053 16.5761 3.36611 16.7636C3.13169 16.9511 3 17.2055 3 17.4707C3 17.7359 3.13169 17.9903 3.36611 18.1778C3.60053 18.3653 3.91848 18.4707 4.25 18.4707H17.2587C16.9739 17.8235 16.9739 17.1179 17.2587 16.4707H4.25ZM7.99999 5.4707C7.66847 5.4707 7.35053 5.57606 7.11611 5.7636C6.88169 5.95113 6.74999 6.20549 6.74999 6.4707C6.74999 6.73592 6.88169 6.99027 7.11611 7.17781C7.35053 7.36535 7.66847 7.4707 7.99999 7.4707H13C13.3315 7.4707 13.6495 7.36535 13.8839 7.17781C14.1183 6.99027 14.25 6.73592 14.25 6.4707C14.25 6.20549 14.1183 5.95113 13.8839 5.7636C13.6495 5.57606 13.3315 5.4707 13 5.4707H7.99999Z" fill="#CDCFD0"/>
</svg>
