<svg width="22" height="23" viewBox="0 0 22 23" fill="none" xmlns="http://www.w3.org/2000/svg">
<path d="M5.5 19C5.0875 19 4.73425 18.853 4.44025 18.559C4.14625 18.265 3.9995 17.912 4 17.5V7C4 6.5875 4.147 6.23425 4.441 5.94025C4.735 5.64625 5.088 5.4995 5.5 5.5H8.65C8.8125 5.05 9.0845 4.6875 9.466 4.4125C9.8475 4.1375 10.2755 4 10.75 4C11.225 4 11.6533 4.1375 12.0348 4.4125C12.4163 4.6875 12.688 5.05 12.85 5.5H16C16.4125 5.5 16.7658 5.647 17.0598 5.941C17.3538 6.235 17.5005 6.588 17.5 7V17.5C17.5 17.9125 17.353 18.2657 17.059 18.5597C16.765 18.8538 16.412 19.0005 16 19H5.5ZM5.5 17.5H16V7H5.5V17.5ZM7 16H12.25V14.5H7V16ZM7 13H14.5V11.5H7V13ZM7 10H14.5V8.5H7V10ZM10.75 6.4375C10.9125 6.4375 11.0468 6.38425 11.1528 6.27775C11.2588 6.17125 11.312 6.037 11.3125 5.875C11.3125 5.7125 11.2593 5.57825 11.1528 5.47225C11.0463 5.36625 10.912 5.313 10.75 5.3125C10.5875 5.3125 10.4533 5.36575 10.3473 5.47225C10.2413 5.57875 10.188 5.713 10.1875 5.875C10.1875 6.0375 10.2408 6.17175 10.3473 6.27775C10.4538 6.38375 10.588 6.437 10.75 6.4375Z" fill="black"/>
</svg>
