<svg width="23" height="24" viewBox="0 0 23 24" fill="none" xmlns="http://www.w3.org/2000/svg">
<g id="Notification">
<path id="Vector" d="M4.75 13.0002V13V9C4.75 7.07718 5.51384 5.23312 6.87348 3.87348C8.23311 2.51384 10.0772 1.75 12 1.75C13.9228 1.75 15.7669 2.51384 17.1265 3.87348C18.4862 5.23311 19.25 7.07718 19.25 9V13V13.0002C19.2501 13.4642 19.4345 13.9092 19.7627 14.2373C19.7627 14.2374 19.7627 14.2374 19.7628 14.2374L22.1768 16.6515C22.2237 16.6984 22.25 16.762 22.25 16.8283V17C22.25 17.1381 22.1381 17.25 22 17.25H2C1.86193 17.25 1.75 17.1381 1.75 17V16.8283C1.75 16.762 1.77634 16.6984 1.82322 16.6515L4.23725 14.2374C4.56546 13.9093 4.7499 13.4643 4.75 13.0002ZM14.25 21C14.25 21.5967 14.0129 22.169 13.591 22.591C13.169 23.0129 12.5967 23.25 12 23.25C11.4033 23.25 10.831 23.0129 10.409 22.591C9.98705 22.169 9.75 21.5967 9.75 21V20.75H14.25V21Z" stroke="white" stroke-width="1.5"/>
<circle id="Ellipse 4" cx="6" cy="6" r="6" fill="#EB4C42"/>
</g>
</svg>
