<svg width="17" height="16" viewBox="0 0 17 16" fill="none" xmlns="http://www.w3.org/2000/svg">
<g id="campaign_FILL1_wght400_GRAD-25_opsz48 1">
<path id="Vector" d="M13.116 8.48319C12.9827 8.48319 12.8688 8.43597 12.7743 8.34152C12.6799 8.24708 12.6327 8.13319 12.6327 7.99986C12.6327 7.86652 12.6799 7.75263 12.7743 7.65819C12.8688 7.56374 12.9827 7.51652 13.116 7.51652H14.616C14.7493 7.51652 14.8632 7.56374 14.9577 7.65819C15.0521 7.75263 15.0993 7.86652 15.0993 7.99986C15.0993 8.13319 15.0521 8.24708 14.9577 8.34152C14.8632 8.43597 14.7493 8.48319 14.616 8.48319H13.116ZM13.0827 12.9665L11.866 12.0665C11.7549 11.9887 11.6882 11.886 11.666 11.7582C11.6438 11.6304 11.6771 11.511 11.766 11.3999C11.8549 11.2999 11.9632 11.2387 12.091 11.2165C12.2188 11.1943 12.3327 11.2221 12.4327 11.2999L13.6493 12.1999C13.7605 12.2776 13.8271 12.3832 13.8493 12.5165C13.8716 12.6499 13.8382 12.7665 13.7493 12.8665C13.6605 12.9776 13.5521 13.0443 13.4243 13.0665C13.2966 13.0887 13.1827 13.0554 13.0827 12.9665ZM12.4827 4.66652C12.3827 4.75541 12.2688 4.78874 12.141 4.76652C12.0132 4.7443 11.9049 4.67763 11.816 4.56652C11.7271 4.46652 11.6938 4.35263 11.716 4.22486C11.7382 4.09708 11.8049 3.98874 11.916 3.89986L13.0827 3.01652C13.1827 2.93874 13.2966 2.91097 13.4243 2.93319C13.5521 2.95541 13.6605 3.01652 13.7493 3.11652C13.8382 3.22763 13.8716 3.34708 13.8493 3.47486C13.8271 3.60263 13.7605 3.70541 13.6493 3.78319L12.4827 4.66652ZM4.04935 12.5999V9.94986H2.89935C2.62157 9.94986 2.38824 9.85541 2.19935 9.66652C2.01046 9.47763 1.91602 9.24986 1.91602 8.98319V7.01652C1.91602 6.74986 2.01046 6.5193 2.19935 6.32486C2.38824 6.13041 2.62157 6.03319 2.89935 6.03319H5.79935L8.36602 4.49986C8.52157 4.39986 8.6799 4.39708 8.84102 4.49152C9.00213 4.58597 9.08268 4.72208 9.08268 4.89986V11.0832C9.08268 11.261 9.00213 11.3971 8.84102 11.4915C8.6799 11.586 8.52157 11.5832 8.36602 11.4832L5.79935 9.94986H5.01602V12.5999H4.04935ZM9.86602 10.1999V5.79986C10.166 6.05541 10.4049 6.37208 10.5827 6.74986C10.7605 7.12763 10.8493 7.5443 10.8493 7.99986C10.8493 8.4443 10.7605 8.85541 10.5827 9.23319C10.4049 9.61097 10.166 9.93319 9.86602 10.1999Z" fill="#000026"/>
</g>
</svg>
