<svg width="60" height="60" viewBox="0 0 60 60" fill="none" xmlns="http://www.w3.org/2000/svg">
<g id="memory:cancel">
<path id="Vector" d="M57.273 19.0902V40.9084H54.5457V46.3629H51.8184V49.0902H49.0912V51.8175H46.3639V54.5447H40.9094V57.272H19.0912V54.5447H13.6366V51.8175H10.9094V49.0902H8.18208V46.3629H5.45481V40.9084H2.72754V19.0902H5.45481V13.6357H8.18208V10.9084H10.9094V8.18111H13.6366V5.45384H19.0912V2.72656H40.9094V5.45384H46.3639V8.18111H49.0912V10.9084H51.8184V13.6357H54.5457V19.0902H57.273ZM46.3639 16.3629V13.6357H43.6366V10.9084H38.1821V8.18111H21.8184V10.9084H16.3639V13.6357H19.0912V16.3629H21.8184V19.0902H24.5457V21.8175H27.273V24.5447H30.0003V27.272H32.7275V29.9993H35.4548V32.7266H38.1821V35.4538H40.9094V38.1811H43.6366V40.9084H46.3639V43.6357H49.0912V38.1811H51.8184V21.8175H49.0912V16.3629H46.3639ZM38.1821 43.6357V40.9084H35.4548V38.1811H32.7275V35.4538H30.0003V32.7266H27.273V29.9993H24.5457V27.272H21.8184V24.5447H19.0912V21.8175H16.3639V19.0902H13.6366V16.3629H10.9094V21.8175H8.18208V38.1811H10.9094V43.6357H13.6366V46.3629H16.3639V49.0902H21.8184V51.8175H38.1821V49.0902H43.6366V46.3629H40.9094V43.6357H38.1821Z" fill="#FF5247"/>
</g>
</svg>
