<svg width="26" height="26" viewBox="0 0 26 26" fill="none" xmlns="http://www.w3.org/2000/svg">
<g id="Articles">
<g id="Group 175">
<path id="Rectangle 885" d="M3.66602 4.06228L6.99935 3.66211C6.99935 3.66211 6.04697 6.06314 6.04697 9.26451C6.04697 12.4659 6.99935 14.4667 6.99935 14.4667H3.66602V4.06228Z" fill="#E3E5E6"/>
<path id="Vector" d="M22.8953 2.5174L22.8952 2.51738C22.1279 2.38686 21.3509 2.31967 20.5723 2.31651C17.9158 2.3144 15.315 3.06667 13.0797 4.48347L13 4.53397L12.9199 4.48404C10.6788 3.0858 8.07825 2.35199 5.42708 2.36993L5.42667 2.36993C4.64798 2.37308 3.87091 2.44027 3.10352 2.5708L22.8953 2.5174ZM22.8953 2.5174C23.1053 2.55294 23.2962 2.65824 23.4367 2.81538C23.5765 2.97165 23.658 3.16987 23.6683 3.37742L23.6683 16.1949L23.6683 16.1971C23.6703 16.3318 23.6422 16.4653 23.586 16.5881C23.5298 16.7109 23.4468 16.8202 23.3427 16.908C23.2387 16.9959 23.1162 17.0601 22.9839 17.096C22.8516 17.1318 22.7129 17.1385 22.5777 17.1155L22.5761 17.1152C20.9982 16.8636 19.3853 16.9274 17.8328 17.3027C16.283 17.6775 14.825 18.3551 13.5447 19.2957L13.4569 19.3463H13.378H13.3484L13.3209 19.3576C13.2191 19.3995 13.1098 19.4211 12.9993 19.4211C12.8889 19.4211 12.7796 19.3995 12.6778 19.3576L12.6503 19.3463H12.6207H12.5418L12.4531 19.2952C11.1636 18.3749 9.7011 17.7183 8.15133 17.364C6.59917 17.0091 4.99082 16.9646 3.42098 17.233C3.28577 17.256 3.14707 17.2494 3.0148 17.2135C2.88253 17.1776 2.76003 17.1134 2.65597 17.0256C2.55193 16.9377 2.4689 16.8285 2.41267 16.7056C2.35645 16.5828 2.32837 16.4493 2.33035 16.3146H2.33037V16.3124V3.49135H2.33039M22.8953 2.5174L2.33039 3.49135M2.33039 3.49135L2.33035 3.48914M2.33039 3.49135L2.33035 3.48914M2.33035 3.48914C2.32714 3.27088 2.40293 3.05839 2.54448 2.88996C2.68607 2.7215 2.88424 2.60814 3.1035 2.57081L2.33035 3.48914ZM22.8971 19.6125L22.8952 19.6122C22.1278 19.4816 21.3507 19.4144 20.572 19.4113C17.9157 19.4092 15.3149 20.1615 13.0797 21.5782L12.9993 21.6291L12.919 21.5782C10.6838 20.1615 8.08301 19.4092 5.42667 19.4113C4.64797 19.4144 3.87089 19.4816 3.1035 19.6122L3.10157 19.6125C2.98002 19.6315 2.86358 19.6741 2.75891 19.7377C2.65426 19.8013 2.56348 19.8846 2.49175 19.9827L2.37091 19.8944L2.49174 19.9827C2.42001 20.0809 2.3687 20.192 2.34068 20.3096C2.31284 20.4265 2.30852 20.5476 2.32796 20.666C2.37555 20.9031 2.51617 21.1126 2.71992 21.2484C2.92438 21.3848 3.17553 21.4357 3.41824 21.3896L3.42091 21.3891L3.42091 21.3892C4.99077 21.1207 6.59915 21.1653 8.15133 21.5202C9.70327 21.875 11.1677 22.5329 12.4585 23.4552C12.6163 23.5661 12.8053 23.6258 12.9993 23.6258C13.1933 23.6258 13.3823 23.5661 13.5401 23.4553C13.5403 23.4552 13.5404 23.4551 13.5406 23.455L13.6268 23.5777C14.9015 22.6667 16.3479 22.0169 17.8808 21.6664L22.8971 19.6125ZM22.8971 19.6125C23.0187 19.6315 23.1351 19.6741 23.2398 19.7377C23.3444 19.8013 23.4352 19.8846 23.507 19.9827C23.5787 20.0809 23.63 20.192 23.658 20.3096C23.6859 20.4265 23.6902 20.5476 23.6707 20.6661L22.8971 19.6125ZM11.8483 16.702L12.0675 16.8158V16.5689V6.22652V6.1453L11.9994 6.10091C10.0506 4.82889 7.76589 4.15164 5.43024 4.15335C5.06567 4.13277 4.70021 4.13285 4.33564 4.1536L4.19417 4.16165V4.30335V14.9876V15.1376H4.34417H4.34632H4.34848H4.35063H4.35279H4.35494H4.35709H4.35925H4.3614H4.36355H4.36571H4.36786H4.37001H4.37216H4.37432H4.37647H4.37862H4.38077H4.38292H4.38507H4.38722H4.38937H4.39152H4.39367H4.39582H4.39797H4.40012H4.40227H4.40442H4.40657H4.40872H4.41087H4.41301H4.41516H4.41731H4.41945H4.4216H4.42375H4.42589H4.42804H4.43019H4.43233H4.43448H4.43662H4.43877H4.44091H4.44306H4.4452H4.44735H4.44949H4.45163H4.45378H4.45592H4.45806H4.46021H4.46235H4.46449H4.46663H4.46878H4.47092H4.47306H4.4752H4.47734H4.47948H4.48162H4.48376H4.4859H4.48804H4.49018H4.49232H4.49446H4.4966H4.49874H4.50088H4.50302H4.50515H4.50729H4.50943H4.51157H4.51371H4.51584H4.51798H4.52012H4.52225H4.52439H4.52653H4.52866H4.5308H4.53293H4.53507H4.5372H4.53934H4.54147H4.54361H4.54574H4.54788H4.55001H4.55214H4.55428H4.55641H4.55854H4.56068H4.56281H4.56494H4.56707H4.56921H4.57134H4.57347H4.5756H4.57773H4.57986H4.58199H4.58412H4.58626H4.58839H4.59052H4.59265H4.59478H4.5969H4.59903H4.60116H4.60329H4.60542H4.60755H4.60968H4.61181H4.61393H4.61606H4.61819H4.62032H4.62245H4.62457H4.6267H4.62883H4.63095H4.63308H4.63521H4.63733H4.63946H4.64158H4.64371H4.64583H4.64796H4.65008H4.65221H4.65433H4.65646H4.65858H4.66071H4.66283H4.66495H4.66708H4.6692H4.67132H4.67345H4.67557H4.67769H4.67982H4.68194H4.68406H4.68618H4.6883H4.69042H4.69255H4.69467H4.69679H4.69891H4.70103H4.70315H4.70527H4.70739H4.70951H4.71163H4.71375H4.71587H4.71799H4.72011H4.72223H4.72435H4.72647H4.72859H4.7307H4.73282H4.73494H4.73706H4.73918H4.7413H4.74341H4.74553H4.74765H4.74976H4.75188H4.754H4.75611H4.75823H4.76035H4.76246H4.76458H4.7667H4.76881H4.77093H4.77304H4.77516H4.77727H4.77939H4.7815H4.78362H4.78573H4.78785H4.78996H4.79207H4.79419H4.7963H4.79842H4.80053H4.80264H4.80476H4.80687H4.80898H4.81109H4.81321H4.81532H4.81743H4.81954H4.82166H4.82377H4.82588H4.82799H4.8301H4.83221H4.83433H4.83644H4.83855H4.84066H4.84277H4.84488H4.84699H4.8491H4.85121H4.85332H4.85543H4.85754H4.85965H4.86176H4.86387H4.86598H4.86809H4.8702H4.87231H4.87441H4.87652H4.87863H4.88074H4.88285H4.88496H4.88706H4.88917H4.89128H4.89339H4.89549H4.8976H4.89971H4.90182H4.90392H4.90603H4.90814H4.91024H4.91235H4.91446H4.91656H4.91867H4.92078H4.92288H4.92499H4.92709H4.9292H4.9313H4.93341H4.93551H4.93762H4.93972H4.94183H4.94393H4.94604H4.94814H4.95025H4.95235H4.95446H4.95656H4.95866H4.96077H4.96287H4.96498H4.96708H4.96918H4.97129H4.97339H4.97549H4.9776H4.9797H4.9818H4.9839H4.98601H4.98811H4.99021H4.99232H4.99442H4.99652H4.99862H5.00072H5.00283H5.00493H5.00703H5.00913H5.01123H5.01333H5.01543H5.01754H5.01964H5.02174H5.02384H5.02594H5.02804H5.03014H5.03224H5.03434H5.03644H5.03854H5.04064H5.04274H5.04484H5.04694H5.04904H5.05114H5.05324H5.05534H5.05744H5.05954H5.06164H5.06374H5.06584H5.06794H5.07004H5.07213H5.07423H5.07633H5.07843H5.08053H5.08263H5.08473H5.08683H5.08892H5.09102H5.09312H5.09522H5.09732H5.09941H5.10151H5.10361H5.10571H5.1078H5.1099H5.112H5.1141H5.11619H5.11829H5.12039H5.12249H5.12458H5.12668H5.12878H5.13087H5.13297H5.13507H5.13716H5.13926H5.14136H5.14345H5.14555H5.14764H5.14974H5.15184H5.15393H5.15603H5.15812H5.16022H5.16232H5.16441H5.16651H5.1686H5.1707H5.17279H5.17489H5.17699H5.17908H5.18118H5.18327H5.18537H5.18746H5.18956H5.19165H5.19375H5.19584H5.19794H5.20003H5.20213H5.20422H5.20632H5.20841H5.2105H5.2126H5.21469H5.21679H5.21888H5.22098H5.22307H5.22517H5.22726H5.22935H5.23145H5.23354H5.23564H5.23773H5.23982H5.24192H5.24401H5.2461H5.2482H5.25029H5.25239H5.25448H5.25657H5.25867H5.26076H5.26285H5.26495H5.26704H5.26913H5.27123H5.27332H5.27541H5.27751H5.2796H5.28169H5.28379H5.28588H5.28797H5.29006H5.29216H5.29425H5.29634H5.29844H5.30053H5.30262H5.30471H5.30681H5.3089H5.31099H5.31309H5.31518H5.31727H5.31936H5.32146H5.32355H5.32564H5.32773H5.32983H5.33192H5.33401H5.3361H5.3382H5.34029H5.34238H5.34447H5.34657H5.34866H5.35075H5.35284H5.35493H5.35703H5.35912H5.36121H5.3633H5.3654H5.36749H5.36958H5.37167H5.37376H5.37586H5.37795H5.38004H5.38213H5.38422H5.38632H5.38841H5.3905H5.39259H5.39468H5.39678H5.39887H5.40096H5.40305H5.40514H5.40724H5.40933H5.41142H5.41351H5.4156H5.4177H5.41979H5.42188H5.42397H5.42606H5.42616C7.66385 15.1362 9.86811 15.6732 11.8483 16.702ZM21.6545 15.1803H21.8045V15.0303V4.30335V4.16165L21.6631 4.1536C21.2985 4.13285 20.933 4.13277 20.5685 4.15335C18.2328 4.15164 15.9481 4.82889 13.9993 6.10091L13.9312 6.1453V6.22652V16.6116V16.8586L14.1504 16.7447C16.1306 15.7159 18.3349 15.179 20.5725 15.1803H20.5726H20.5747H20.5768H20.5789H20.581H20.5831H20.5852H20.5873H20.5894H20.5915H20.5936H20.5956H20.5977H20.5998H20.6019H20.604H20.6061H20.6082H20.6103H20.6124H20.6145H20.6166H20.6187H20.6207H20.6228H20.6249H20.627H20.6291H20.6312H20.6333H20.6354H20.6375H20.6396H20.6417H20.6438H20.6459H20.6479H20.65H20.6521H20.6542H20.6563H20.6584H20.6605H20.6626H20.6647H20.6668H20.6689H20.671H20.6731H20.6751H20.6772H20.6793H20.6814H20.6835H20.6856H20.6877H20.6898H20.6919H20.694H20.6961H20.6982H20.7003H20.7024H20.7044H20.7065H20.7086H20.7107H20.7128H20.7149H20.717H20.7191H20.7212H20.7233H20.7254H20.7275H20.7296H20.7317H20.7337H20.7358H20.7379H20.74H20.7421H20.7442H20.7463H20.7484H20.7505H20.7526H20.7547H20.7568H20.7589H20.761H20.7631H20.7652H20.7672H20.7693H20.7714H20.7735H20.7756H20.7777H20.7798H20.7819H20.784H20.7861H20.7882H20.7903H20.7924H20.7945H20.7966H20.7987H20.8008H20.8029H20.8049H20.807H20.8091H20.8112H20.8133H20.8154H20.8175H20.8196H20.8217H20.8238H20.8259H20.828H20.8301H20.8322H20.8343H20.8364H20.8385H20.8406H20.8427H20.8448H20.8469H20.849H20.8511H20.8531H20.8552H20.8573H20.8594H20.8615H20.8636H20.8657H20.8678H20.8699H20.872H20.8741H20.8762H20.8783H20.8804H20.8825H20.8846H20.8867H20.8888H20.8909H20.893H20.8951H20.8972H20.8993H20.9014H20.9035H20.9056H20.9077H20.9098H20.9119H20.914H20.9161H20.9182H20.9203H20.9224H20.9245H20.9266H20.9287H20.9308H20.9329H20.935H20.9371H20.9392H20.9413H20.9434H20.9455H20.9476H20.9497H20.9518H20.9539H20.956H20.9581H20.9602H20.9623H20.9644H20.9665H20.9686H20.9707H20.9728H20.9749H20.977H20.9791H20.9812H20.9833H20.9854H20.9875H20.9896H20.9917H20.9938H20.9959H20.998H21.0001H21.0022H21.0043H21.0064H21.0085H21.0106H21.0127H21.0148H21.0169H21.019H21.0211H21.0232H21.0253H21.0274H21.0295H21.0316H21.0337H21.0358H21.0379H21.04H21.0421H21.0442H21.0463H21.0484H21.0506H21.0527H21.0548H21.0569H21.059H21.0611H21.0632H21.0653H21.0674H21.0695H21.0716H21.0737H21.0758H21.0779H21.08H21.0821H21.0842H21.0863H21.0885H21.0906H21.0927H21.0948H21.0969H21.099H21.1011H21.1032H21.1053H21.1074H21.1095H21.1116H21.1137H21.1158H21.118H21.1201H21.1222H21.1243H21.1264H21.1285H21.1306H21.1327H21.1348H21.1369H21.139H21.1412H21.1433H21.1454H21.1475H21.1496H21.1517H21.1538H21.1559H21.158H21.1601H21.1623H21.1644H21.1665H21.1686H21.1707H21.1728H21.1749H21.177H21.1792H21.1813H21.1834H21.1855H21.1876H21.1897H21.1918H21.1939H21.1961H21.1982H21.2003H21.2024H21.2045H21.2066H21.2087H21.2108H21.213H21.2151H21.2172H21.2193H21.2214H21.2235H21.2257H21.2278H21.2299H21.232H21.2341H21.2362H21.2383H21.2405H21.2426H21.2447H21.2468H21.2489H21.251H21.2532H21.2553H21.2574H21.2595H21.2616H21.2638H21.2659H21.268H21.2701H21.2722H21.2743H21.2765H21.2786H21.2807H21.2828H21.2849H21.2871H21.2892H21.2913H21.2934H21.2955H21.2977H21.2998H21.3019H21.304H21.3061H21.3083H21.3104H21.3125H21.3146H21.3168H21.3189H21.321H21.3231H21.3252H21.3274H21.3295H21.3316H21.3337H21.3359H21.338H21.3401H21.3422H21.3444H21.3465H21.3486H21.3507H21.3529H21.355H21.3571H21.3592H21.3614H21.3635H21.3656H21.3677H21.3699H21.372H21.3741H21.3763H21.3784H21.3805H21.3826H21.3848H21.3869H21.389H21.3911H21.3933H21.3954H21.3975H21.3997H21.4018H21.4039H21.406H21.4082H21.4103H21.4124H21.4146H21.4167H21.4188H21.421H21.4231H21.4252H21.4274H21.4295H21.4316H21.4338H21.4359H21.438H21.4402H21.4423H21.4444H21.4466H21.4487H21.4508H21.453H21.4551H21.4572H21.4594H21.4615H21.4636H21.4658H21.4679H21.47H21.4722H21.4743H21.4764H21.4786H21.4807H21.4829H21.485H21.4871H21.4893H21.4914H21.4935H21.4957H21.4978H21.5H21.5021H21.5042H21.5064H21.5085H21.5107H21.5128H21.5149H21.5171H21.5192H21.5214H21.5235H21.5256H21.5278H21.5299H21.5321H21.5342H21.5363H21.5385H21.5406H21.5428H21.5449H21.5471H21.5492H21.5513H21.5535H21.5556H21.5578H21.5599H21.5621H21.5642H21.5664H21.5685H21.5707H21.5728H21.5749H21.5771H21.5792H21.5814H21.5835H21.5857H21.5878H21.59H21.5921H21.5943H21.5964H21.5986H21.6007H21.6029H21.605H21.6072H21.6093H21.6115H21.6136H21.6158H21.6179H21.6201H21.6222H21.6244H21.6265H21.6287H21.6308H21.633H21.6351H21.6373H21.6394H21.6416H21.6438H21.6459H21.6481H21.6502H21.6524H21.6545ZM21.5045 15.0303H20.5726L21.6545 4.30335V14.8803V15.0303H21.5045Z" fill="#25435B" stroke="#25435B" stroke-width="0.3"/>
<path id="Vector_2" d="M22.895 19.6268L22.895 19.6268L22.8969 19.6271C23.0183 19.6463 23.1346 19.6893 23.2392 19.7534C23.3438 19.8176 23.4347 19.9018 23.5065 20.0011C23.5784 20.1004 23.6298 20.2128 23.6579 20.332C23.6859 20.4504 23.6902 20.5731 23.6707 20.6931C23.623 20.9334 23.482 21.1452 23.2782 21.2825C23.0738 21.4201 22.823 21.4714 22.5807 21.4249L22.578 21.4245C21.008 21.1533 19.3994 21.1983 17.8471 21.5568C16.2949 21.9152 14.8303 22.5797 13.5395 23.5113C13.3818 23.6231 13.193 23.6833 12.9993 23.6833C12.8057 23.6833 12.6169 23.6231 12.4592 23.5112C11.1684 22.5797 9.70381 21.9152 8.15164 21.5568C6.59929 21.1983 4.99072 21.1533 3.42067 21.4245L3.42066 21.4244L3.41797 21.4249C3.17569 21.4714 2.92488 21.4201 2.72049 21.2825C2.51675 21.1452 2.37575 20.9334 2.328 20.6932C2.3085 20.5731 2.31283 20.4504 2.34076 20.332C2.36886 20.2128 2.42031 20.1004 2.49216 20.0011C2.56401 19.9018 2.65485 19.8176 2.75948 19.7534C2.8641 19.6893 2.98044 19.6463 3.10179 19.6271L3.1018 19.6271L3.10374 19.6268C3.87098 19.495 4.6479 19.4271 5.42643 19.4239C8.08254 19.4218 10.6832 20.1814 12.9185 21.6123L12.9993 21.664L13.0802 21.6123C15.3155 20.1814 17.9162 19.4218 20.5723 19.4239C21.3508 19.4271 22.1277 19.495 22.895 19.6268Z" fill="#E3E5E6" stroke="#E3E5E6" stroke-width="0.3"/>
</g>
</g>
</svg>
