<svg width="22" height="22" viewBox="0 0 22 22" fill="none" xmlns="http://www.w3.org/2000/svg">
<path d="M20.8963 0.517893L20.8962 0.517873C20.1289 0.387352 19.3519 0.320161 18.5732 0.316997C15.9168 0.314892 13.3159 1.06716 11.0806 2.48396L11.001 2.53446L10.9209 2.48453C8.67979 1.08629 6.07923 0.352476 3.42806 0.370415L3.42765 0.370417C2.64896 0.373568 1.87189 0.440758 1.1045 0.57129L20.8963 0.517893ZM20.8963 0.517893C21.1062 0.553433 21.2972 0.658724 21.4377 0.815866C21.5774 0.972136 21.6589 1.17036 21.6693 1.37791L21.6693 14.1954L21.6693 14.1976C21.6713 14.3323 21.6432 14.4657 21.587 14.5886C21.5308 14.7114 21.4477 14.8207 21.3437 14.9085C21.2396 14.9963 21.1171 15.0606 20.9849 15.0964C20.8526 15.1323 20.7139 15.139 20.5787 15.1159L20.5771 15.1157C18.9992 14.8641 17.3863 14.9278 15.8338 15.3032C14.284 15.678 12.826 16.3556 11.5457 17.2962L11.4579 17.3468H11.379H11.3493L11.3219 17.3581C11.2201 17.4 11.1108 17.4216 11.0003 17.4216C10.8899 17.4216 10.7806 17.4 10.6787 17.3581L10.6513 17.3468H10.6217H10.5428L10.454 17.2957C9.16462 16.3754 7.70208 15.7188 6.15231 15.3645C4.60015 15.0096 2.9918 14.9651 1.42196 15.2335C1.28675 15.2565 1.14805 15.2499 1.01577 15.214C0.883502 15.1781 0.761002 15.1139 0.65695 15.026C0.552905 14.9382 0.469878 14.829 0.413651 14.7061C0.357426 14.5833 0.329343 14.4498 0.331331 14.3151H0.331347V14.3129V1.49184H0.331363M20.8963 0.517893L0.331363 1.49184M0.331363 1.49184L0.331331 1.48963M0.331363 1.49184L0.331331 1.48963M0.331331 1.48963C0.328117 1.27137 0.403903 1.05888 0.54546 0.89045C0.68705 0.721985 0.885215 0.608629 1.10448 0.571294L0.331331 1.48963ZM20.8981 17.613L20.8962 17.6127C20.1288 17.4821 19.3517 17.4149 18.573 17.4118C15.9167 17.4097 13.3159 18.162 11.0806 19.5787L11.0003 19.6296L10.92 19.5787C8.68478 18.162 6.08399 17.4097 3.42765 17.4118C2.64895 17.4149 1.87187 17.4821 1.10448 17.6126L1.10255 17.613C0.981001 17.632 0.864552 17.6746 0.759891 17.7382C0.655233 17.8017 0.564461 17.8851 0.492722 17.9832L0.37189 17.8949L0.492721 17.9832C0.420984 18.0814 0.369675 18.1925 0.341657 18.3101C0.313818 18.427 0.3095 18.5481 0.328933 18.6665C0.376531 18.9036 0.517145 19.1131 0.720898 19.2489C0.925359 19.3853 1.17651 19.4362 1.41921 19.3901L1.42188 19.3896L1.42189 19.3897C2.99175 19.1212 4.60013 19.1658 6.15231 19.5206C7.70425 19.8755 9.16871 20.5334 10.4594 21.4557C10.6172 21.5666 10.8063 21.6263 11.0003 21.6263C11.1943 21.6263 11.3833 21.5666 11.5411 21.4558C11.5412 21.4557 11.5414 21.4556 11.5415 21.4555L11.6278 21.5782C12.9025 20.6672 14.3489 20.0173 15.8818 19.6669L20.8981 17.613ZM20.8981 17.613C21.0196 17.632 21.1361 17.6746 21.2408 17.7382C21.3454 17.8017 21.4362 17.8851 21.5079 17.9832C21.5797 18.0814 21.631 18.1925 21.659 18.3101C21.6868 18.427 21.6911 18.5481 21.6717 18.6666L20.8981 17.613ZM9.84927 14.7024L10.0684 14.8163V14.5693V4.22701V4.14579L10.0004 4.10139C8.05155 2.82938 5.76687 2.15213 3.43122 2.15384C3.06665 2.13325 2.70118 2.13334 2.33662 2.15409L2.19514 2.16214V2.30384V12.9881V13.1381H2.34514H2.3473H2.34945H2.35161H2.35376H2.35592H2.35807H2.36022H2.36238H2.36453H2.36668H2.36884H2.37099H2.37314H2.37529H2.37745H2.3796H2.38175H2.3839H2.38605H2.3882H2.39035H2.3925H2.39465H2.3968H2.39895H2.4011H2.40325H2.4054H2.40755H2.40969H2.41184H2.41399H2.41614H2.41828H2.42043H2.42258H2.42472H2.42687H2.42902H2.43116H2.43331H2.43545H2.4376H2.43974H2.44189H2.44403H2.44618H2.44832H2.45047H2.45261H2.45475H2.4569H2.45904H2.46118H2.46333H2.46547H2.46761H2.46975H2.47189H2.47403H2.47618H2.47832H2.48046H2.4826H2.48474H2.48688H2.48902H2.49116H2.4933H2.49544H2.49758H2.49972H2.50185H2.50399H2.50613H2.50827H2.51041H2.51254H2.51468H2.51682H2.51896H2.52109H2.52323H2.52537H2.5275H2.52964H2.53177H2.53391H2.53604H2.53818H2.54031H2.54245H2.54458H2.54672H2.54885H2.55099H2.55312H2.55525H2.55739H2.55952H2.56165H2.56379H2.56592H2.56805H2.57018H2.57231H2.57445H2.57658H2.57871H2.58084H2.58297H2.5851H2.58723H2.58936H2.59149H2.59362H2.59575H2.59788H2.60001H2.60214H2.60427H2.6064H2.60853H2.61066H2.61278H2.61491H2.61704H2.61917H2.62129H2.62342H2.62555H2.62768H2.6298H2.63193H2.63406H2.63618H2.63831H2.64043H2.64256H2.64469H2.64681H2.64894H2.65106H2.65319H2.65531H2.65743H2.65956H2.66168H2.66381H2.66593H2.66805H2.67018H2.6723H2.67442H2.67655H2.67867H2.68079H2.68291H2.68504H2.68716H2.68928H2.6914H2.69352H2.69564H2.69777H2.69989H2.70201H2.70413H2.70625H2.70837H2.71049H2.71261H2.71473H2.71685H2.71897H2.72109H2.72321H2.72533H2.72744H2.72956H2.73168H2.7338H2.73592H2.73804H2.74015H2.74227H2.74439H2.74651H2.74862H2.75074H2.75286H2.75497H2.75709H2.75921H2.76132H2.76344H2.76556H2.76767H2.76979H2.7719H2.77402H2.77613H2.77825H2.78036H2.78248H2.78459H2.78671H2.78882H2.79094H2.79305H2.79516H2.79728H2.79939H2.80151H2.80362H2.80573H2.80785H2.80996H2.81207H2.81418H2.8163H2.81841H2.82052H2.82263H2.82474H2.82686H2.82897H2.83108H2.83319H2.8353H2.83741H2.83952H2.84164H2.84375H2.84586H2.84797H2.85008H2.85219H2.8543H2.85641H2.85852H2.86063H2.86274H2.86485H2.86696H2.86906H2.87117H2.87328H2.87539H2.8775H2.87961H2.88172H2.88382H2.88593H2.88804H2.89015H2.89226H2.89436H2.89647H2.89858H2.90069H2.90279H2.9049H2.90701H2.90911H2.91122H2.91333H2.91543H2.91754H2.91965H2.92175H2.92386H2.92596H2.92807H2.93018H2.93228H2.93439H2.93649H2.9386H2.9407H2.94281H2.94491H2.94702H2.94912H2.95122H2.95333H2.95543H2.95754H2.95964H2.96175H2.96385H2.96595H2.96806H2.97016H2.97226H2.97437H2.97647H2.97857H2.98068H2.98278H2.98488H2.98698H2.98909H2.99119H2.99329H2.99539H2.9975H2.9996H3.0017H3.0038H3.0059H3.00801H3.01011H3.01221H3.01431H3.01641H3.01851H3.02061H3.02271H3.02482H3.02692H3.02902H3.03112H3.03322H3.03532H3.03742H3.03952H3.04162H3.04372H3.04582H3.04792H3.05002H3.05212H3.05422H3.05632H3.05842H3.06052H3.06262H3.06472H3.06681H3.06891H3.07101H3.07311H3.07521H3.07731H3.07941H3.08151H3.0836H3.0857H3.0878H3.0899H3.092H3.0941H3.09619H3.09829H3.10039H3.10249H3.10459H3.10668H3.10878H3.11088H3.11298H3.11507H3.11717H3.11927H3.12136H3.12346H3.12556H3.12766H3.12975H3.13185H3.13395H3.13604H3.13814H3.14024H3.14233H3.14443H3.14652H3.14862H3.15072H3.15281H3.15491H3.15701H3.1591H3.1612H3.16329H3.16539H3.16748H3.16958H3.17168H3.17377H3.17587H3.17796H3.18006H3.18215H3.18425H3.18634H3.18844H3.19053H3.19263H3.19472H3.19682H3.19891H3.20101H3.2031H3.2052H3.20729H3.20939H3.21148H3.21358H3.21567H3.21776H3.21986H3.22195H3.22405H3.22614H3.22824H3.23033H3.23242H3.23452H3.23661H3.23871H3.2408H3.24289H3.24499H3.24708H3.24918H3.25127H3.25336H3.25546H3.25755H3.25964H3.26174H3.26383H3.26592H3.26802H3.27011H3.2722H3.2743H3.27639H3.27848H3.28058H3.28267H3.28476H3.28686H3.28895H3.29104H3.29313H3.29523H3.29732H3.29941H3.30151H3.3036H3.30569H3.30778H3.30988H3.31197H3.31406H3.31615H3.31825H3.32034H3.32243H3.32453H3.32662H3.32871H3.3308H3.3329H3.33499H3.33708H3.33917H3.34126H3.34336H3.34545H3.34754H3.34963H3.35173H3.35382H3.35591H3.358H3.3601H3.36219H3.36428H3.36637H3.36846H3.37056H3.37265H3.37474H3.37683H3.37892H3.38102H3.38311H3.3852H3.38729H3.38938H3.39148H3.39357H3.39566H3.39775H3.39984H3.40194H3.40403H3.40612H3.40821H3.4103H3.4124H3.41449H3.41658H3.41867H3.42076H3.42286H3.42495H3.42704H3.42713C5.66482 13.1367 7.86909 13.6737 9.84927 14.7024ZM19.6555 13.1808H19.8055V13.0308V2.30384V2.16214L19.664 2.15409C19.2995 2.13334 18.934 2.13325 18.5694 2.15384C16.2338 2.15213 13.9491 2.82938 12.0002 4.10139L11.9322 4.14579V4.22701V14.6121V14.859L12.1514 14.7452C14.1316 13.7164 16.3358 13.1794 18.5735 13.1808H18.5736H18.5757H18.5778H18.5799H18.582H18.5841H18.5862H18.5883H18.5903H18.5924H18.5945H18.5966H18.5987H18.6008H18.6029H18.605H18.6071H18.6092H18.6113H18.6134H18.6154H18.6175H18.6196H18.6217H18.6238H18.6259H18.628H18.6301H18.6322H18.6343H18.6364H18.6385H18.6406H18.6426H18.6447H18.6468H18.6489H18.651H18.6531H18.6552H18.6573H18.6594H18.6615H18.6636H18.6657H18.6678H18.6698H18.6719H18.674H18.6761H18.6782H18.6803H18.6824H18.6845H18.6866H18.6887H18.6908H18.6929H18.695H18.6971H18.6991H18.7012H18.7033H18.7054H18.7075H18.7096H18.7117H18.7138H18.7159H18.718H18.7201H18.7222H18.7243H18.7264H18.7284H18.7305H18.7326H18.7347H18.7368H18.7389H18.741H18.7431H18.7452H18.7473H18.7494H18.7515H18.7536H18.7557H18.7578H18.7598H18.7619H18.764H18.7661H18.7682H18.7703H18.7724H18.7745H18.7766H18.7787H18.7808H18.7829H18.785H18.7871H18.7892H18.7913H18.7934H18.7955H18.7975H18.7996H18.8017H18.8038H18.8059H18.808H18.8101H18.8122H18.8143H18.8164H18.8185H18.8206H18.8227H18.8248H18.8269H18.829H18.8311H18.8332H18.8353H18.8374H18.8395H18.8415H18.8436H18.8457H18.8478H18.8499H18.852H18.8541H18.8562H18.8583H18.8604H18.8625H18.8646H18.8667H18.8688H18.8709H18.873H18.8751H18.8772H18.8793H18.8814H18.8835H18.8856H18.8877H18.8898H18.8919H18.894H18.8961H18.8982H18.9003H18.9024H18.9045H18.9066H18.9087H18.9107H18.9128H18.9149H18.917H18.9191H18.9212H18.9233H18.9254H18.9275H18.9296H18.9317H18.9338H18.9359H18.938H18.9401H18.9422H18.9443H18.9464H18.9485H18.9506H18.9527H18.9548H18.9569H18.959H18.9611H18.9632H18.9653H18.9674H18.9695H18.9716H18.9737H18.9758H18.9779H18.98H18.9821H18.9842H18.9863H18.9884H18.9905H18.9926H18.9947H18.9968H18.9989H19.0011H19.0032H19.0053H19.0074H19.0095H19.0116H19.0137H19.0158H19.0179H19.02H19.0221H19.0242H19.0263H19.0284H19.0305H19.0326H19.0347H19.0368H19.0389H19.041H19.0431H19.0452H19.0473H19.0494H19.0515H19.0536H19.0557H19.0578H19.0599H19.0621H19.0642H19.0663H19.0684H19.0705H19.0726H19.0747H19.0768H19.0789H19.081H19.0831H19.0852H19.0873H19.0894H19.0915H19.0936H19.0957H19.0979H19.1H19.1021H19.1042H19.1063H19.1084H19.1105H19.1126H19.1147H19.1168H19.1189H19.121H19.1231H19.1253H19.1274H19.1295H19.1316H19.1337H19.1358H19.1379H19.14H19.1421H19.1442H19.1464H19.1485H19.1506H19.1527H19.1548H19.1569H19.159H19.1611H19.1632H19.1653H19.1675H19.1696H19.1717H19.1738H19.1759H19.178H19.1801H19.1822H19.1844H19.1865H19.1886H19.1907H19.1928H19.1949H19.197H19.1991H19.2013H19.2034H19.2055H19.2076H19.2097H19.2118H19.2139H19.2161H19.2182H19.2203H19.2224H19.2245H19.2266H19.2287H19.2309H19.233H19.2351H19.2372H19.2393H19.2414H19.2436H19.2457H19.2478H19.2499H19.252H19.2541H19.2563H19.2584H19.2605H19.2626H19.2647H19.2668H19.269H19.2711H19.2732H19.2753H19.2774H19.2796H19.2817H19.2838H19.2859H19.288H19.2902H19.2923H19.2944H19.2965H19.2986H19.3008H19.3029H19.305H19.3071H19.3092H19.3114H19.3135H19.3156H19.3177H19.3199H19.322H19.3241H19.3262H19.3283H19.3305H19.3326H19.3347H19.3368H19.339H19.3411H19.3432H19.3453H19.3475H19.3496H19.3517H19.3538H19.356H19.3581H19.3602H19.3623H19.3645H19.3666H19.3687H19.3708H19.373H19.3751H19.3772H19.3794H19.3815H19.3836H19.3857H19.3879H19.39H19.3921H19.3943H19.3964H19.3985H19.4006H19.4028H19.4049H19.407H19.4092H19.4113H19.4134H19.4155H19.4177H19.4198H19.4219H19.4241H19.4262H19.4283H19.4305H19.4326H19.4347H19.4369H19.439H19.4411H19.4433H19.4454H19.4475H19.4497H19.4518H19.4539H19.4561H19.4582H19.4603H19.4625H19.4646H19.4667H19.4689H19.471H19.4731H19.4753H19.4774H19.4796H19.4817H19.4838H19.486H19.4881H19.4902H19.4924H19.4945H19.4967H19.4988H19.5009H19.5031H19.5052H19.5074H19.5095H19.5116H19.5138H19.5159H19.518H19.5202H19.5223H19.5245H19.5266H19.5288H19.5309H19.533H19.5352H19.5373H19.5395H19.5416H19.5438H19.5459H19.548H19.5502H19.5523H19.5545H19.5566H19.5588H19.5609H19.563H19.5652H19.5673H19.5695H19.5716H19.5738H19.5759H19.5781H19.5802H19.5824H19.5845H19.5867H19.5888H19.591H19.5931H19.5953H19.5974H19.5996H19.6017H19.6038H19.606H19.6081H19.6103H19.6124H19.6146H19.6167H19.6189H19.6211H19.6232H19.6254H19.6275H19.6297H19.6318H19.634H19.6361H19.6383H19.6404H19.6426H19.6447H19.6469H19.649H19.6512H19.6534H19.6555ZM19.5055 13.0308H18.5736L19.6555 2.30384V12.8808V13.0308H19.5055Z" fill="#979C9E" stroke="#979C9E" stroke-width="0.3"/>
</svg>
