<svg width="44" height="44" viewBox="0 0 44 44" fill="none" xmlns="http://www.w3.org/2000/svg">
<path d="M37.6031 44H7.56252C7.37603 44 7.19718 43.9259 7.06532 43.7941C6.93346 43.6622 6.85938 43.4833 6.85938 43.2969V0.703141C6.85938 0.516656 6.93346 0.33781 7.06532 0.205945C7.19718 0.0740807 7.37603 0 7.56252 0L24.8176 0L38.3063 13.4888V43.2969C38.3063 43.4834 38.2322 43.6622 38.1003 43.7941C37.9684 43.9259 37.7896 44 37.6031 44Z" fill="#A05E03"/>
<path d="M24.8184 0L38.3072 13.4888H27.6855C26.102 13.4888 24.8184 12.2051 24.8184 10.6216V0H24.8184Z" fill="#FFEFD7"/>
<path d="M20.2016 7.9408H10.8666C10.3384 7.9408 9.91016 7.51257 9.91016 6.98432C9.91016 6.45606 10.3384 6.02783 10.8666 6.02783H20.2016C20.7299 6.02783 21.1581 6.45606 21.1581 6.98432C21.1581 7.51257 20.7299 7.9408 20.2016 7.9408ZM21.1581 13.2451C21.1581 12.7169 20.7299 12.2886 20.2016 12.2886H10.8666C10.3384 12.2886 9.91016 12.7169 9.91016 13.2451C9.91016 13.7734 10.3384 14.2016 10.8666 14.2016H20.2016C20.7299 14.2016 21.1581 13.7734 21.1581 13.2451ZM21.1581 19.506C21.1581 18.9778 20.7299 18.5495 20.2016 18.5495H10.8666C10.3384 18.5495 9.91016 18.9778 9.91016 19.506C9.91016 20.0343 10.3384 20.4625 10.8666 20.4625H20.2016C20.7299 20.4624 21.1581 20.0343 21.1581 19.506ZM29.2395 25.7668C29.2395 25.2386 28.8113 24.8103 28.283 24.8103H10.8666C10.3384 24.8103 9.91016 25.2386 9.91016 25.7668C9.91016 26.2951 10.3384 26.7233 10.8666 26.7233H28.283C28.8113 26.7233 29.2395 26.2951 29.2395 25.7668ZM32.4615 19.506C32.4615 18.9778 32.0333 18.5495 31.505 18.5495H25.061C24.5329 18.5495 24.1045 18.9778 24.1045 19.506C24.1045 20.0343 24.5328 20.4625 25.061 20.4625H31.505C32.0333 20.4624 32.4615 20.0343 32.4615 19.506ZM25.774 32.0277C25.774 31.4995 25.3457 31.0712 24.8175 31.0712H10.8666C10.3384 31.0712 9.91016 31.4994 9.91016 32.0277C9.91016 32.556 10.3384 32.9842 10.8666 32.9842H24.8175C25.3457 32.9841 25.774 32.5559 25.774 32.0277ZM31.4639 38.2885C31.4639 37.7603 31.0357 37.332 30.5074 37.332H10.8666C10.3384 37.332 9.91016 37.7603 9.91016 38.2885C9.91016 38.8168 10.3384 39.245 10.8666 39.245H30.5074C31.0356 39.245 31.4639 38.8168 31.4639 38.2885Z" fill="#FFEFD7"/>
</svg>
