<svg width="81" height="76" viewBox="0 0 81 76" fill="none" xmlns="http://www.w3.org/2000/svg">
<rect x="16.5" width="48" height="48" rx="5" fill="#E7F4FF"/>
<path d="M48.7676 13.4395L50.4596 15.1315C50.9276 15.5995 50.9276 16.3555 50.4596 16.8235L45.2996 21.9955V33.5995H32.0996V15.5995H44.9036L47.0636 13.4395C47.5436 12.9715 48.2996 12.9595 48.7676 13.4395ZM41.9756 23.6155L48.4196 17.1835L46.7156 15.4795L40.2836 21.9235L39.4316 24.4675L41.9756 23.6155Z" fill="#25435B"/>
<path d="M1.23295 71V60.8182H7.37784V61.9119H2.46591V65.3523H7.05966V66.446H2.46591V69.9062H7.45739V71H1.23295ZM10.3161 63.3636L12.1456 66.4858L13.9751 63.3636H15.3274L12.8615 67.1818L15.3274 71H13.9751L12.1456 68.0369L10.3161 71H8.96378L11.3899 67.1818L8.96378 63.3636H10.3161ZM19.2488 71.179C18.7649 71.179 18.3257 71.0878 17.9313 70.9055C17.5369 70.7199 17.2237 70.4531 16.9917 70.1051C16.7596 69.7538 16.6436 69.3295 16.6436 68.8324C16.6436 68.3949 16.7298 68.0402 16.9022 67.7685C17.0745 67.4934 17.3049 67.2779 17.5932 67.1222C17.8816 66.9664 18.1998 66.8504 18.5478 66.7741C18.8991 66.6946 19.2521 66.6316 19.6067 66.5852C20.0707 66.5256 20.4469 66.4808 20.7353 66.451C21.0269 66.4179 21.2391 66.3632 21.3716 66.2869C21.5075 66.2107 21.5755 66.0781 21.5755 65.8892V65.8494C21.5755 65.3589 21.4412 64.9777 21.1728 64.706C20.9076 64.4342 20.5049 64.2983 19.9647 64.2983C19.4045 64.2983 18.9654 64.4209 18.6472 64.6662C18.329 64.9115 18.1053 65.1733 17.976 65.4517L16.8624 65.054C17.0613 64.59 17.3264 64.2287 17.6578 63.9702C17.9926 63.7083 18.3572 63.526 18.7516 63.4233C19.1493 63.3172 19.5404 63.2642 19.9249 63.2642C20.1702 63.2642 20.4519 63.294 20.7701 63.3537C21.0916 63.41 21.4015 63.5277 21.6998 63.7067C22.0014 63.8857 22.2516 64.1558 22.4505 64.517C22.6493 64.8783 22.7488 65.3622 22.7488 65.9688V71H21.5755V69.9659H21.5158C21.4363 70.1316 21.3037 70.3089 21.1181 70.4979C20.9325 70.6868 20.6855 70.8475 20.3773 70.9801C20.0691 71.1127 19.6929 71.179 19.2488 71.179ZM19.4277 70.125C19.8917 70.125 20.2828 70.0339 20.601 69.8516C20.9225 69.6693 21.1645 69.4339 21.3269 69.1456C21.4926 68.8572 21.5755 68.554 21.5755 68.2358V67.1619C21.5257 67.2216 21.4164 67.2763 21.2473 67.326C21.0816 67.3724 20.8894 67.4138 20.6706 67.4503C20.4552 67.4834 20.2447 67.5133 20.0392 67.5398C19.8371 67.563 19.673 67.5829 19.5471 67.5994C19.2421 67.6392 18.9571 67.7038 18.6919 67.7933C18.4301 67.8795 18.218 68.0104 18.0556 68.1861C17.8965 68.3584 17.8169 68.5937 17.8169 68.892C17.8169 69.2997 17.9677 69.608 18.2694 69.8168C18.5743 70.0223 18.9604 70.125 19.4277 70.125ZM24.8903 71V63.3636H26.0238V64.5568H26.1232C26.2823 64.1491 26.5392 63.8326 26.8938 63.6072C27.2485 63.3786 27.6744 63.2642 28.1715 63.2642C28.6753 63.2642 29.0946 63.3786 29.4293 63.6072C29.7674 63.8326 30.0309 64.1491 30.2198 64.5568H30.2994C30.4949 64.1624 30.7882 63.8492 31.1793 63.6172C31.5704 63.3819 32.0394 63.2642 32.5863 63.2642C33.2691 63.2642 33.8275 63.478 34.2617 63.9055C34.6959 64.3298 34.913 64.991 34.913 65.8892V71H33.7397V65.8892C33.7397 65.3258 33.5856 64.9231 33.2773 64.6811C32.9691 64.4392 32.6062 64.3182 32.1886 64.3182C31.6516 64.3182 31.2357 64.4806 30.9407 64.8054C30.6457 65.1269 30.4982 65.5346 30.4982 66.0284V71H29.305V65.7699C29.305 65.3357 29.1642 64.986 28.8825 64.7209C28.6007 64.4524 28.2378 64.3182 27.7937 64.3182C27.4888 64.3182 27.2037 64.3994 26.9386 64.5618C26.6767 64.7242 26.4646 64.9496 26.3022 65.2379C26.1431 65.523 26.0636 65.8527 26.0636 66.2273V71H24.8903ZM37.0582 71V63.3636H38.2315V71H37.0582ZM37.6548 62.0909C37.4261 62.0909 37.2289 62.013 37.0632 61.8572C36.9008 61.7015 36.8196 61.5142 36.8196 61.2955C36.8196 61.0767 36.9008 60.8894 37.0632 60.7337C37.2289 60.5779 37.4261 60.5 37.6548 60.5C37.8835 60.5 38.0791 60.5779 38.2415 60.7337C38.4072 60.8894 38.4901 61.0767 38.4901 61.2955C38.4901 61.5142 38.4072 61.7015 38.2415 61.8572C38.0791 62.013 37.8835 62.0909 37.6548 62.0909ZM41.5538 66.4062V71H40.3805V63.3636H41.514V64.5568H41.6135C41.7924 64.169 42.0642 63.8575 42.4288 63.6222C42.7934 63.3835 43.264 63.2642 43.8407 63.2642C44.3578 63.2642 44.8102 63.3703 45.198 63.5824C45.5858 63.7912 45.8874 64.1094 46.1028 64.5369C46.3182 64.9612 46.426 65.4981 46.426 66.1477V71H45.2527V66.2273C45.2527 65.6274 45.0969 65.16 44.7853 64.8253C44.4738 64.4872 44.0462 64.3182 43.5027 64.3182C43.1281 64.3182 42.7934 64.3994 42.4984 64.5618C42.2067 64.7242 41.9764 64.9612 41.8074 65.2727C41.6383 65.5843 41.5538 65.9621 41.5538 66.4062ZM50.8171 71.179C50.3332 71.179 49.8941 71.0878 49.4996 70.9055C49.1052 70.7199 48.792 70.4531 48.56 70.1051C48.328 69.7538 48.212 69.3295 48.212 68.8324C48.212 68.3949 48.2982 68.0402 48.4705 67.7685C48.6429 67.4934 48.8732 67.2779 49.1616 67.1222C49.4499 66.9664 49.7681 66.8504 50.1161 66.7741C50.4674 66.6946 50.8204 66.6316 51.1751 66.5852C51.6391 66.5256 52.0153 66.4808 52.3036 66.451C52.5953 66.4179 52.8074 66.3632 52.94 66.2869C53.0759 66.2107 53.1438 66.0781 53.1438 65.8892V65.8494C53.1438 65.3589 53.0096 64.9777 52.7411 64.706C52.476 64.4342 52.0733 64.2983 51.533 64.2983C50.9729 64.2983 50.5337 64.4209 50.2156 64.6662C49.8974 64.9115 49.6737 65.1733 49.5444 65.4517L48.4308 65.054C48.6296 64.59 48.8948 64.2287 49.2262 63.9702C49.561 63.7083 49.9255 63.526 50.32 63.4233C50.7177 63.3172 51.1088 63.2642 51.4933 63.2642C51.7385 63.2642 52.0202 63.294 52.3384 63.3537C52.6599 63.41 52.9698 63.5277 53.2681 63.7067C53.5697 63.8857 53.82 64.1558 54.0188 64.517C54.2177 64.8783 54.3171 65.3622 54.3171 65.9688V71H53.1438V69.9659H53.0842C53.0046 70.1316 52.872 70.3089 52.6864 70.4979C52.5008 70.6868 52.2539 70.8475 51.9457 70.9801C51.6374 71.1127 51.2612 71.179 50.8171 71.179ZM50.9961 70.125C51.4601 70.125 51.8512 70.0339 52.1694 69.8516C52.4909 69.6693 52.7328 69.4339 52.8952 69.1456C53.061 68.8572 53.1438 68.554 53.1438 68.2358V67.1619C53.0941 67.2216 52.9847 67.2763 52.8157 67.326C52.65 67.3724 52.4577 67.4138 52.239 67.4503C52.0236 67.4834 51.8131 67.5133 51.6076 67.5398C51.4054 67.563 51.2414 67.5829 51.1154 67.5994C50.8105 67.6392 50.5254 67.7038 50.2603 67.7933C49.9985 67.8795 49.7863 68.0104 49.6239 68.1861C49.4648 68.3584 49.3853 68.5937 49.3853 68.892C49.3853 69.2997 49.5361 69.608 49.8377 69.8168C50.1426 70.0223 50.5288 70.125 50.9961 70.125ZM59.7797 63.3636V64.358H55.8223V63.3636H59.7797ZM56.9757 61.5341H58.149V68.8125C58.149 69.1439 58.197 69.3925 58.2931 69.5582C58.3926 69.7206 58.5185 69.83 58.671 69.8864C58.8268 69.9394 58.9908 69.9659 59.1632 69.9659C59.2924 69.9659 59.3985 69.9593 59.4814 69.946C59.5642 69.9295 59.6305 69.9162 59.6802 69.9062L59.9189 70.9602C59.8393 70.9901 59.7283 71.0199 59.5858 71.0497C59.4432 71.0829 59.2626 71.0994 59.0439 71.0994C58.7124 71.0994 58.3876 71.0282 58.0694 70.8857C57.7546 70.7431 57.4927 70.526 57.2839 70.2344C57.0784 69.9427 56.9757 69.5748 56.9757 69.1307V61.5341ZM61.5446 71V63.3636H62.7179V71H61.5446ZM62.1412 62.0909C61.9125 62.0909 61.7153 62.013 61.5495 61.8572C61.3871 61.7015 61.3059 61.5142 61.3059 61.2955C61.3059 61.0767 61.3871 60.8894 61.5495 60.7337C61.7153 60.5779 61.9125 60.5 62.1412 60.5C62.3699 60.5 62.5654 60.5779 62.7278 60.7337C62.8935 60.8894 62.9764 61.0767 62.9764 61.2955C62.9764 61.5142 62.8935 61.7015 62.7278 61.8572C62.5654 62.013 62.3699 62.0909 62.1412 62.0909ZM67.9691 71.1591C67.2797 71.1591 66.6748 70.995 66.1545 70.6669C65.6374 70.3388 65.2331 69.8797 64.9414 69.2898C64.6531 68.6998 64.5089 68.0104 64.5089 67.2216C64.5089 66.4261 64.6531 65.7318 64.9414 65.1385C65.2331 64.5452 65.6374 64.0845 66.1545 63.7564C66.6748 63.4283 67.2797 63.2642 67.9691 63.2642C68.6585 63.2642 69.2617 63.4283 69.7788 63.7564C70.2991 64.0845 70.7035 64.5452 70.9918 65.1385C71.2835 65.7318 71.4293 66.4261 71.4293 67.2216C71.4293 68.0104 71.2835 68.6998 70.9918 69.2898C70.7035 69.8797 70.2991 70.3388 69.7788 70.6669C69.2617 70.995 68.6585 71.1591 67.9691 71.1591ZM67.9691 70.1051C68.4928 70.1051 68.9237 69.9709 69.2617 69.7024C69.5998 69.4339 69.85 69.081 70.0124 68.6435C70.1748 68.206 70.256 67.732 70.256 67.2216C70.256 66.7112 70.1748 66.2356 70.0124 65.7947C69.85 65.3539 69.5998 64.9976 69.2617 64.7259C68.9237 64.4541 68.4928 64.3182 67.9691 64.3182C67.4454 64.3182 67.0146 64.4541 66.6765 64.7259C66.3384 64.9976 66.0882 65.3539 65.9258 65.7947C65.7634 66.2356 65.6822 66.7112 65.6822 67.2216C65.6822 67.732 65.7634 68.206 65.9258 68.6435C66.0882 69.081 66.3384 69.4339 66.6765 69.7024C67.0146 69.9709 67.4454 70.1051 67.9691 70.1051ZM74.3936 66.4062V71H73.2203V63.3636H74.3539V64.5568H74.4533C74.6323 64.169 74.9041 63.8575 75.2686 63.6222C75.6332 63.3835 76.1039 63.2642 76.6806 63.2642C77.1976 63.2642 77.65 63.3703 78.0378 63.5824C78.4256 63.7912 78.7272 64.1094 78.9426 64.5369C79.1581 64.9612 79.2658 65.4981 79.2658 66.1477V71H78.0925V66.2273C78.0925 65.6274 77.9367 65.16 77.6252 64.8253C77.3136 64.4872 76.8861 64.3182 76.3425 64.3182C75.968 64.3182 75.6332 64.3994 75.3382 64.5618C75.0466 64.7242 74.8162 64.9612 74.6472 65.2727C74.4782 65.5843 74.3936 65.9621 74.3936 66.4062Z" fill="#090A0A"/>
</svg>
