<svg width="57" height="97" viewBox="0 0 57 97" fill="none" xmlns="http://www.w3.org/2000/svg">
<rect x="5.5" y="0.00195312" width="46" height="48" rx="5" fill="#E7F4FF"/>
<path d="M34.6111 14.402V21.602L32.1667 19.202L29.7222 21.602V14.402H24.8333V33.602H37.0556V14.402H34.6111ZM17.5 18.002V15.602H19.9444V14.402C19.9444 13.7654 20.202 13.155 20.6604 12.7049C21.1188 12.2548 21.7406 12.002 22.3889 12.002H37.0556C38.3389 12.002 39.5 13.142 39.5 14.402V33.602C39.5 34.862 38.3389 36.002 37.0556 36.002H22.3889C21.1056 36.002 19.9444 34.862 19.9444 33.602V32.402H17.5V30.002H19.9444V25.202H17.5V22.802H19.9444V18.002H17.5ZM19.9444 15.602V18.002H22.3889V15.602H19.9444ZM19.9444 32.402H22.3889V30.002H19.9444V32.402ZM19.9444 25.202H22.3889V22.802H19.9444V25.202Z" fill="black"/>
<path d="M9.62145 64.002C9.49645 63.6194 9.33168 63.2766 9.12713 62.9735C8.92637 62.6667 8.68584 62.4054 8.40554 62.1895C8.12903 61.9735 7.81463 61.8088 7.46236 61.6951C7.11009 61.5815 6.72372 61.5247 6.30327 61.5247C5.61387 61.5247 4.98698 61.7027 4.42259 62.0588C3.85819 62.4148 3.40933 62.9395 3.07599 63.6326C2.74266 64.3258 2.57599 65.1762 2.57599 66.1838C2.57599 67.1913 2.74456 68.0417 3.08168 68.7349C3.4188 69.4281 3.87524 69.9527 4.45099 70.3088C5.02675 70.6648 5.67448 70.8429 6.39418 70.8429C7.06084 70.8429 7.64796 70.7008 8.15554 70.4167C8.6669 70.1288 9.06463 69.7235 9.34872 69.2008C9.6366 68.6743 9.78054 68.055 9.78054 67.3429L10.2124 67.4338H6.71236V66.1838H11.1442V67.4338C11.1442 68.3921 10.9396 69.2254 10.5305 69.9338C10.1252 70.6421 9.56463 71.1913 8.84872 71.5815C8.1366 71.9679 7.31842 72.161 6.39418 72.161C5.36387 72.161 4.45857 71.9186 3.67827 71.4338C2.90175 70.9489 2.29569 70.2595 1.86009 69.3656C1.42827 68.4717 1.21236 67.411 1.21236 66.1838C1.21236 65.2633 1.33546 64.4357 1.58168 63.7008C1.83168 62.9622 2.18395 62.3334 2.63849 61.8145C3.09304 61.2955 3.63092 60.8978 4.25213 60.6213C4.87334 60.3448 5.55705 60.2065 6.30327 60.2065C6.9169 60.2065 7.48887 60.2993 8.01918 60.4849C8.55327 60.6667 9.02865 60.9262 9.44531 61.2633C9.86577 61.5966 10.2161 61.9963 10.4964 62.4622C10.7768 62.9243 10.9699 63.4376 11.076 64.002H9.62145ZM13.9226 72.002V63.2747H15.2635V72.002H13.9226ZM14.6044 61.8201C14.343 61.8201 14.1177 61.7311 13.9283 61.5531C13.7427 61.3751 13.6499 61.161 13.6499 60.911C13.6499 60.661 13.7427 60.447 13.9283 60.269C14.1177 60.091 14.343 60.002 14.6044 60.002C14.8658 60.002 15.0893 60.091 15.2749 60.269C15.4643 60.447 15.5589 60.661 15.5589 60.911C15.5589 61.161 15.4643 61.3751 15.2749 61.5531C15.0893 61.7311 14.8658 61.8201 14.6044 61.8201ZM21.2422 75.4565C20.5945 75.4565 20.0376 75.3732 19.5717 75.2065C19.1058 75.0436 18.7176 74.8277 18.407 74.5588C18.1001 74.2936 17.8558 74.0095 17.674 73.7065L18.7422 72.9565C18.8634 73.1156 19.0168 73.2974 19.2024 73.502C19.388 73.7103 19.6418 73.8902 19.9638 74.0417C20.2895 74.197 20.7157 74.2747 21.2422 74.2747C21.9467 74.2747 22.5282 74.1042 22.9865 73.7633C23.4448 73.4224 23.674 72.8883 23.674 72.161V70.3883H23.5604C23.4619 70.5474 23.3217 70.7444 23.1399 70.9792C22.9619 71.2103 22.7043 71.4167 22.3672 71.5985C22.0339 71.7766 21.5831 71.8656 21.0149 71.8656C20.3104 71.8656 19.6778 71.6989 19.1172 71.3656C18.5604 71.0323 18.1191 70.5474 17.7933 69.911C17.4714 69.2747 17.3104 68.502 17.3104 67.5929C17.3104 66.6989 17.4676 65.9205 17.782 65.2576C18.0964 64.591 18.5339 64.0758 19.0945 63.7122C19.6551 63.3448 20.3028 63.161 21.0376 63.161C21.6058 63.161 22.0566 63.2557 22.3899 63.4451C22.727 63.6307 22.9846 63.8429 23.1626 64.0815C23.3445 64.3163 23.4846 64.5095 23.5831 64.661H23.7195V63.2747H25.0149V72.252C25.0149 73.002 24.8445 73.6118 24.5036 74.0815C24.1664 74.555 23.7119 74.9016 23.1399 75.1213C22.5717 75.3448 21.9392 75.4565 21.2422 75.4565ZM21.1967 70.661C21.7346 70.661 22.1892 70.5379 22.5604 70.2917C22.9316 70.0455 23.2138 69.6913 23.407 69.2292C23.6001 68.7671 23.6967 68.2141 23.6967 67.5701C23.6967 66.9413 23.602 66.3864 23.4126 65.9054C23.2232 65.4243 22.9429 65.0474 22.5717 64.7747C22.2005 64.502 21.7422 64.3656 21.1967 64.3656C20.6286 64.3656 20.1551 64.5095 19.7763 64.7974C19.4013 65.0853 19.1191 65.4716 18.9297 65.9565C18.7441 66.4413 18.6513 66.9792 18.6513 67.5701C18.6513 68.1762 18.746 68.7122 18.9354 69.1781C19.1286 69.6402 19.4126 70.0038 19.7876 70.269C20.1664 70.5304 20.6361 70.661 21.1967 70.661ZM27.4695 72.002V63.2747H28.8104V72.002H27.4695ZM28.1513 61.8201C27.8899 61.8201 27.6645 61.7311 27.4751 61.5531C27.2895 61.3751 27.1967 61.161 27.1967 60.911C27.1967 60.661 27.2895 60.447 27.4751 60.269C27.6645 60.091 27.8899 60.002 28.1513 60.002C28.4126 60.002 28.6361 60.091 28.8217 60.269C29.0111 60.447 29.1058 60.661 29.1058 60.911C29.1058 61.161 29.0111 61.3751 28.8217 61.5531C28.6361 61.7311 28.4126 61.8201 28.1513 61.8201ZM32.6072 66.752V72.002H31.2663V63.2747H32.5618V64.6383H32.6754C32.88 64.1951 33.1906 63.8391 33.6072 63.5701C34.0239 63.2974 34.5618 63.161 35.2209 63.161C35.8118 63.161 36.3288 63.2823 36.772 63.5247C37.2152 63.7633 37.5599 64.127 37.8061 64.6156C38.0523 65.1004 38.1754 65.7141 38.1754 66.4565V72.002H36.8345V66.5474C36.8345 65.8618 36.6565 65.3277 36.3004 64.9451C35.9444 64.5588 35.4557 64.3656 34.8345 64.3656C34.4065 64.3656 34.0239 64.4584 33.6868 64.644C33.3535 64.8296 33.0902 65.1004 32.897 65.4565C32.7038 65.8126 32.6072 66.2444 32.6072 66.752ZM41.1768 75.2747C40.9496 75.2747 40.7469 75.2557 40.5689 75.2179C40.3909 75.1838 40.2678 75.1497 40.1996 75.1156L40.5405 73.9338C40.8662 74.0171 41.1541 74.0474 41.4041 74.0247C41.6541 74.002 41.8757 73.8902 42.0689 73.6895C42.2659 73.4925 42.4458 73.1724 42.6087 72.7292L42.8587 72.0474L39.6314 63.2747H41.0859L43.495 70.2292H43.5859L45.995 63.2747H47.4496L43.745 73.2747C43.5784 73.7254 43.3719 74.0985 43.1257 74.394C42.8795 74.6932 42.5935 74.9148 42.2678 75.0588C41.9458 75.2027 41.5821 75.2747 41.1768 75.2747ZM51.522 72.2065C50.969 72.2065 50.4671 72.1023 50.0163 71.894C49.5656 71.6819 49.2076 71.377 48.9425 70.9792C48.6773 70.5777 48.5447 70.0929 48.5447 69.5247C48.5447 69.0247 48.6432 68.6194 48.8402 68.3088C49.0372 67.9944 49.3004 67.7482 49.63 67.5701C49.9595 67.3921 50.3232 67.2595 50.7209 67.1724C51.1224 67.0815 51.5258 67.0095 51.9311 66.9565C52.4614 66.8883 52.8913 66.8372 53.2209 66.8031C53.5542 66.7652 53.7966 66.7027 53.9482 66.6156C54.1035 66.5285 54.1811 66.377 54.1811 66.161V66.1156C54.1811 65.555 54.0277 65.1194 53.7209 64.8088C53.4179 64.4982 52.9576 64.3429 52.3402 64.3429C51.7 64.3429 51.1982 64.483 50.8345 64.7633C50.4709 65.0436 50.2152 65.3429 50.0675 65.661L48.7947 65.2065C49.022 64.6762 49.325 64.2633 49.7038 63.9679C50.0864 63.6686 50.5031 63.4603 50.9538 63.3429C51.4084 63.2217 51.8554 63.161 52.2947 63.161C52.575 63.161 52.897 63.1951 53.2607 63.2633C53.6281 63.3277 53.9822 63.4622 54.3232 63.6667C54.6679 63.8713 54.9538 64.18 55.1811 64.5929C55.4084 65.0057 55.522 65.5588 55.522 66.252V72.002H54.1811V70.8201H54.1129C54.022 71.0095 53.8705 71.2122 53.6584 71.4281C53.4463 71.644 53.1641 71.8277 52.8118 71.9792C52.4595 72.1307 52.0296 72.2065 51.522 72.2065ZM51.7266 71.002C52.2569 71.002 52.7038 70.8978 53.0675 70.6895C53.4349 70.4811 53.7114 70.2122 53.897 69.8826C54.0864 69.5531 54.1811 69.2065 54.1811 68.8429V67.6156C54.1243 67.6838 53.9993 67.7463 53.8061 67.8031C53.6167 67.8561 53.397 67.9035 53.147 67.9451C52.9008 67.983 52.6603 68.0171 52.4254 68.0474C52.1944 68.0739 52.0069 68.0967 51.8629 68.1156C51.5144 68.161 51.1887 68.2349 50.8857 68.3372C50.5864 68.4357 50.344 68.5853 50.1584 68.786C49.9766 68.983 49.8857 69.252 49.8857 69.5929C49.8857 70.0588 50.058 70.411 50.4027 70.6497C50.7512 70.8845 51.1925 71.002 51.7266 71.002ZM6.53551 80.3656H7.9446V88.6838C7.9446 89.4262 7.80824 90.0569 7.53551 90.5758C7.26278 91.0948 6.87831 91.4887 6.3821 91.7576C5.88589 92.0266 5.30066 92.161 4.62642 92.161C3.99006 92.161 3.42377 92.0455 2.92756 91.8145C2.43134 91.5796 2.04119 91.2463 1.7571 90.8145C1.47301 90.3826 1.33097 89.8694 1.33097 89.2747H2.71733C2.71733 89.6042 2.79877 89.8921 2.96165 90.1383C3.12831 90.3807 3.35559 90.5701 3.64347 90.7065C3.93134 90.8429 4.259 90.911 4.62642 90.911C5.03172 90.911 5.37642 90.8258 5.66051 90.6554C5.9446 90.4849 6.16051 90.2349 6.30824 89.9054C6.45975 89.572 6.53551 89.1648 6.53551 88.6838V80.3656ZM14.1321 92.1838C13.3442 92.1838 12.6529 91.9963 12.0582 91.6213C11.4673 91.2463 11.0052 90.7217 10.6719 90.0474C10.3423 89.3732 10.1776 88.5853 10.1776 87.6838C10.1776 86.7747 10.3423 85.9811 10.6719 85.3031C11.0052 84.6251 11.4673 84.0985 12.0582 83.7235C12.6529 83.3485 13.3442 83.161 14.1321 83.161C14.92 83.161 15.6094 83.3485 16.2003 83.7235C16.795 84.0985 17.2571 84.6251 17.5866 85.3031C17.92 85.9811 18.0866 86.7747 18.0866 87.6838C18.0866 88.5853 17.92 89.3732 17.5866 90.0474C17.2571 90.7217 16.795 91.2463 16.2003 91.6213C15.6094 91.9963 14.92 92.1838 14.1321 92.1838ZM14.1321 90.9792C14.7306 90.9792 15.223 90.8258 15.6094 90.519C15.9957 90.2122 16.2817 89.8088 16.4673 89.3088C16.6529 88.8088 16.7457 88.2671 16.7457 87.6838C16.7457 87.1004 16.6529 86.5569 16.4673 86.0531C16.2817 85.5493 15.9957 85.1421 15.6094 84.8315C15.223 84.5209 14.7306 84.3656 14.1321 84.3656C13.5336 84.3656 13.0412 84.5209 12.6548 84.8315C12.2685 85.1421 11.9825 85.5493 11.7969 86.0531C11.6113 86.5569 11.5185 87.1004 11.5185 87.6838C11.5185 88.2671 11.6113 88.8088 11.7969 89.3088C11.9825 89.8088 12.2685 90.2122 12.6548 90.519C13.0412 90.8258 13.5336 90.9792 14.1321 90.9792ZM25.6335 88.4338V83.2747H26.9744V92.002H25.6335V90.5247H25.5426C25.3381 90.9679 25.0199 91.3448 24.5881 91.6554C24.1563 91.9622 23.6108 92.1156 22.9517 92.1156C22.4062 92.1156 21.9214 91.9963 21.4972 91.7576C21.0729 91.5152 20.7396 91.1516 20.4972 90.6667C20.2547 90.1781 20.1335 89.5626 20.1335 88.8201V83.2747H21.4744V88.7292C21.4744 89.3656 21.6525 89.8732 22.0085 90.252C22.3684 90.6307 22.8267 90.8201 23.3835 90.8201C23.7169 90.8201 24.0559 90.7349 24.4006 90.5645C24.7491 90.394 25.0407 90.1326 25.2756 89.7804C25.5142 89.4281 25.6335 88.9792 25.6335 88.4338ZM29.4304 92.002V83.2747H30.7259V84.5929H30.8168C30.9759 84.161 31.2637 83.8107 31.6804 83.5417C32.0971 83.2728 32.5668 83.1383 33.0895 83.1383C33.188 83.1383 33.3111 83.1402 33.4588 83.144C33.6065 83.1478 33.7183 83.1535 33.794 83.161V84.5247C33.7486 84.5133 33.6444 84.4963 33.4815 84.4735C33.3224 84.447 33.1539 84.4338 32.9759 84.4338C32.5516 84.4338 32.1728 84.5228 31.8395 84.7008C31.5099 84.8751 31.2486 85.1175 31.0554 85.4281C30.866 85.7349 30.7713 86.0853 30.7713 86.4792V92.002H29.4304ZM36.7244 86.752V92.002H35.3835V83.2747H36.679V84.6383H36.7926C36.9972 84.1951 37.3078 83.8391 37.7244 83.5701C38.1411 83.2974 38.679 83.161 39.3381 83.161C39.929 83.161 40.446 83.2823 40.8892 83.5247C41.3324 83.7633 41.6771 84.127 41.9233 84.6156C42.1695 85.1004 42.2926 85.7141 42.2926 86.4565V92.002H40.9517V86.5474C40.9517 85.8618 40.7737 85.3277 40.4176 84.9451C40.0616 84.5588 39.5729 84.3656 38.9517 84.3656C38.5237 84.3656 38.1411 84.4584 37.804 84.644C37.4706 84.8296 37.2074 85.1004 37.0142 85.4565C36.821 85.8126 36.7244 86.2444 36.7244 86.752ZM47.3111 92.2065C46.758 92.2065 46.2562 92.1023 45.8054 91.894C45.3546 91.6819 44.9967 91.377 44.7315 90.9792C44.4664 90.5777 44.3338 90.0929 44.3338 89.5247C44.3338 89.0247 44.4323 88.6194 44.6293 88.3088C44.8262 87.9944 45.0895 87.7482 45.419 87.5701C45.7486 87.3921 46.1122 87.2595 46.5099 87.1724C46.9115 87.0815 47.3149 87.0095 47.7202 86.9565C48.2505 86.8883 48.6804 86.8372 49.0099 86.8031C49.3433 86.7652 49.5857 86.7027 49.7372 86.6156C49.8925 86.5285 49.9702 86.377 49.9702 86.161V86.1156C49.9702 85.555 49.8168 85.1194 49.5099 84.8088C49.2069 84.4982 48.7467 84.3429 48.1293 84.3429C47.4891 84.3429 46.9872 84.483 46.6236 84.7633C46.2599 85.0436 46.0043 85.3429 45.8565 85.661L44.5838 85.2065C44.8111 84.6762 45.1141 84.2633 45.4929 83.9679C45.8755 83.6686 46.2921 83.4603 46.7429 83.3429C47.1974 83.2217 47.6444 83.161 48.0838 83.161C48.3641 83.161 48.6861 83.1951 49.0497 83.2633C49.4171 83.3277 49.7713 83.4622 50.1122 83.6667C50.4569 83.8713 50.7429 84.18 50.9702 84.5929C51.1974 85.0057 51.3111 85.5588 51.3111 86.252V92.002H49.9702V90.8201H49.902C49.8111 91.0095 49.6596 91.2122 49.4474 91.4281C49.2353 91.644 48.9531 91.8277 48.6009 91.9792C48.2486 92.1307 47.8187 92.2065 47.3111 92.2065ZM47.5156 91.002C48.0459 91.002 48.4929 90.8978 48.8565 90.6895C49.224 90.4811 49.5005 90.2122 49.6861 89.8826C49.8755 89.5531 49.9702 89.2065 49.9702 88.8429V87.6156C49.9134 87.6838 49.7884 87.7463 49.5952 87.8031C49.4058 87.8561 49.1861 87.9035 48.9361 87.9451C48.6899 87.983 48.4493 88.0171 48.2145 88.0474C47.9834 88.0739 47.7959 88.0967 47.652 88.1156C47.3035 88.161 46.9777 88.2349 46.6747 88.3372C46.3755 88.4357 46.133 88.5853 45.9474 88.786C45.7656 88.983 45.6747 89.252 45.6747 89.5929C45.6747 90.0588 45.8471 90.411 46.1918 90.6497C46.5402 90.8845 46.9815 91.002 47.5156 91.002ZM55.0994 80.3656V92.002H53.7585V80.3656H55.0994Z" fill="#090A0A"/>
</svg>
