<svg width="48" height="76" viewBox="0 0 48 76" fill="none" xmlns="http://www.w3.org/2000/svg">
<rect y="0.000976562" width="48" height="48" rx="5" fill="#E7F4FF"/>
<path d="M21.09 21.001C21.3251 20.3326 21.7892 19.7691 22.4 19.4101C23.0108 19.0511 23.7289 18.9199 24.4272 19.0397C25.1255 19.1595 25.7588 19.5225 26.2151 20.0645C26.6713 20.6065 26.9211 21.2925 26.92 22.001C26.92 24.001 23.92 25.001 23.92 25.001M24 29.001H24.01M34 24.001C34 29.5238 29.5228 34.001 24 34.001C18.4772 34.001 14 29.5238 14 24.001C14 18.4781 18.4772 14.001 24 14.001C29.5228 14.001 34 18.4781 34 24.001Z" stroke="#090A0A" stroke-width="1.5" stroke-linecap="round" stroke-linejoin="round"/>
<path d="M7.90909 72.001V60.3646H9.31818V65.5464H15.5227V60.3646H16.9318V72.001H15.5227V66.7964H9.31818V72.001H7.90909ZM23.2301 72.1828C22.3892 72.1828 21.6638 71.9972 21.054 71.626C20.4479 71.251 19.9801 70.7282 19.6506 70.0578C19.3248 69.3836 19.1619 68.5995 19.1619 67.7055C19.1619 66.8116 19.3248 66.0237 19.6506 65.3419C19.9801 64.6563 20.4384 64.1222 21.0256 63.7396C21.6165 63.3532 22.3059 63.1601 23.0938 63.1601C23.5483 63.1601 23.9972 63.2358 24.4403 63.3873C24.8835 63.5389 25.2869 63.7851 25.6506 64.126C26.0142 64.4631 26.304 64.9101 26.5199 65.4669C26.7358 66.0237 26.8438 66.7093 26.8438 67.5237V68.0919H20.1165V66.9328H25.4801C25.4801 66.4404 25.3816 66.001 25.1847 65.6146C24.9915 65.2282 24.715 64.9233 24.3551 64.6998C23.9991 64.4764 23.5786 64.3646 23.0938 64.3646C22.5597 64.3646 22.0975 64.4972 21.7074 64.7623C21.321 65.0237 21.0237 65.3646 20.8153 65.7851C20.607 66.2055 20.5028 66.6563 20.5028 67.1373V67.9101C20.5028 68.5692 20.6165 69.1279 20.8438 69.5862C21.0748 70.0407 21.3949 70.3873 21.804 70.626C22.2131 70.8608 22.6884 70.9782 23.2301 70.9782C23.5824 70.9782 23.9006 70.929 24.1847 70.8305C24.4725 70.7282 24.7206 70.5767 24.929 70.376C25.1373 70.1714 25.2983 69.9176 25.4119 69.6146L26.7074 69.9782C26.571 70.4176 26.3419 70.804 26.0199 71.1373C25.6979 71.4669 25.3002 71.7245 24.8267 71.9101C24.3532 72.0919 23.821 72.1828 23.2301 72.1828ZM30.2244 60.3646V72.001H28.8835V60.3646H30.2244ZM32.6804 75.2737V63.2737H33.9759V64.6601H34.1349C34.2334 64.5086 34.3698 64.3154 34.544 64.0805C34.7221 63.8419 34.9759 63.6298 35.3054 63.4442C35.6387 63.2548 36.0895 63.1601 36.6577 63.1601C37.3925 63.1601 38.0402 63.3438 38.6009 63.7112C39.1615 64.0786 39.599 64.5995 39.9134 65.2737C40.2277 65.9479 40.3849 66.7434 40.3849 67.6601C40.3849 68.5843 40.2277 69.3854 39.9134 70.0635C39.599 70.7377 39.1634 71.2604 38.6065 71.6317C38.0497 71.9991 37.4077 72.1828 36.6804 72.1828C36.1198 72.1828 35.6709 72.09 35.3338 71.9044C34.9967 71.715 34.7372 71.501 34.5554 71.2623C34.3736 71.0199 34.2334 70.8192 34.1349 70.6601H34.0213V75.2737H32.6804ZM33.9986 67.6373C33.9986 68.2964 34.0952 68.8779 34.2884 69.3817C34.4815 69.8817 34.7637 70.2737 35.1349 70.5578C35.5062 70.8381 35.9607 70.9782 36.4986 70.9782C37.0592 70.9782 37.527 70.8305 37.902 70.5351C38.2808 70.2358 38.5649 69.8343 38.7543 69.3305C38.9474 68.8229 39.044 68.2586 39.044 67.6373C39.044 67.0237 38.9493 66.4707 38.7599 65.9782C38.5743 65.482 38.2921 65.09 37.9134 64.8021C37.5384 64.5104 37.0668 64.3646 36.4986 64.3646C35.9531 64.3646 35.4948 64.5029 35.1236 64.7794C34.7524 65.0521 34.4721 65.4347 34.2827 65.9271C34.0933 66.4157 33.9986 66.9858 33.9986 67.6373Z" fill="#090A0A"/>
</svg>
