<svg width="20" height="20" viewBox="0 0 20 20" fill="none" xmlns="http://www.w3.org/2000/svg">
<g id="online-learning 1" clip-path="url(#clip0_16690_8229)">
<g id="Group">
<path id="Vector" d="M4.34574 19.2027C2.34848 19.0296 0.78125 17.3537 0.78125 15.3116V8.73843C0.78125 7.52003 1.34977 6.3714 2.31855 5.63249L7.63105 1.58058C9.03012 0.513506 10.9699 0.513506 12.3689 1.58058L12.7283 1.85468C11.7689 1.75999 10.7819 2.01968 9.97484 2.63526L3.65672 7.45417C3.32164 7.70972 3.125 8.10702 3.125 8.52843V16.3662C3.125 17.4833 3.59402 18.4908 4.34574 19.2027Z" fill="#4EAFFF"/>
<path id="Vector_2" d="M15.3125 19.9991H4.6875C2.10281 19.9991 0 17.8962 0 15.3116V8.73847C0 7.28569 0.689649 5.89237 1.84477 5.01132L7.15727 0.959404C8.83105 -0.317197 11.1689 -0.317197 12.8427 0.959404L18.1552 5.01132C19.3104 5.89233 20 7.28565 20 8.73847V15.3116C20 17.8962 17.8972 19.9991 15.3125 19.9991ZM10 1.56347C9.33129 1.56347 8.66285 1.7762 8.10484 2.20175L2.79234 6.25366C2.02227 6.84104 1.5625 7.76991 1.5625 8.73847V15.3116C1.5625 17.0347 2.96438 18.4366 4.6875 18.4366H15.3125C17.0356 18.4366 18.4375 17.0347 18.4375 15.3116V8.73847C18.4375 7.76995 17.9777 6.84104 17.2077 6.2537L11.8952 2.20179C11.3373 1.77632 10.6686 1.56347 10 1.56347Z" fill="white"/>
<path id="Vector_3" d="M12.8125 15.585H7.22656C5.93422 15.585 4.88281 14.5336 4.88281 13.2412V10.3115C4.88281 9.01918 5.93422 7.96777 7.22656 7.96777H8.31441C8.97988 7.96777 9.58648 8.23 10.0361 8.6566C10.4843 8.22988 11.09 7.96777 11.7557 7.96777H12.8125C14.1048 7.96777 15.1562 9.01918 15.1562 10.3115V13.2412C15.1562 14.5336 14.1048 15.585 12.8125 15.585ZM7.22656 9.53028C6.79578 9.53028 6.44531 9.88075 6.44531 10.3115V13.2412C6.44531 13.672 6.79578 14.0225 7.22656 14.0225H12.8125C13.2433 14.0225 13.5938 13.672 13.5938 13.2412V10.3115C13.5938 9.88075 13.2433 9.53028 12.8125 9.53028H11.7557C11.2402 9.53028 10.8207 9.95125 10.8203 10.4689V10.4709V11.9131C10.8203 12.3446 10.4705 12.6943 10.0391 12.6943C9.60758 12.6943 9.25781 12.3446 9.25781 11.9131V10.4718C9.25496 9.95254 8.83199 9.53028 8.31441 9.53028H7.22656Z" fill="white"/>
</g>
</g>
<defs>
<clipPath id="clip0_16690_8229">
<rect width="20" height="20" fill="white"/>
</clipPath>
</defs>
</svg>
