<svg width="53" height="97" viewBox="0 0 53 97" fill="none" xmlns="http://www.w3.org/2000/svg">
<rect y="0.00195312" width="48" height="48" rx="5" fill="#E7F4FF"/>
<path d="M21.874 15.1741H17.278C16.9225 15.1741 16.5815 15.3096 16.3301 15.5507C16.0787 15.7918 15.9375 16.1188 15.9375 16.4598V31.1538C15.9375 31.4948 16.0787 31.8219 16.3301 32.063C16.5815 32.3041 16.9225 32.4396 17.278 32.4396H21.874C22.05 32.4396 22.2243 32.4063 22.3869 32.3417C22.5496 32.2771 22.6973 32.1824 22.8218 32.063C22.9463 31.9436 23.045 31.8019 23.1124 31.6459C23.1798 31.4899 23.2144 31.3227 23.2144 31.1538V16.4598C23.2144 16.291 23.1798 16.1238 23.1124 15.9678C23.045 15.8118 22.9463 15.6701 22.8218 15.5507C22.6973 15.4313 22.5496 15.3366 22.3869 15.272C22.2243 15.2074 22.05 15.1741 21.874 15.1741ZM17.0865 19.215H22.0655V28.3987H17.0865V19.215ZM17.278 16.2762H21.874C21.9247 16.2762 21.9735 16.2955 22.0094 16.33C22.0453 16.3644 22.0655 16.4111 22.0655 16.4598V18.1129H17.0865V16.4598C17.0865 16.4111 17.1067 16.3644 17.1426 16.33C17.1785 16.2955 17.2272 16.2762 17.278 16.2762ZM21.874 31.3375H17.278C17.2272 31.3375 17.1785 31.3182 17.1426 31.2837C17.1067 31.2493 17.0865 31.2026 17.0865 31.1538V29.5008H22.0655V31.1538C22.0655 31.2026 22.0453 31.2493 22.0094 31.2837C21.9735 31.3182 21.9247 31.3375 21.874 31.3375ZM33.9096 29.96L30.7317 15.4643C30.6959 15.2984 30.6261 15.1409 30.5266 15.0009C30.427 14.8608 30.2996 14.7411 30.1516 14.6485C30.0036 14.5559 29.838 14.4923 29.6643 14.4613C29.4906 14.4303 29.3122 14.4325 29.1394 14.4679L24.6574 15.3918C24.3105 15.4649 24.0077 15.6663 23.8146 15.9522C23.6216 16.2381 23.5539 16.5855 23.6262 16.919L26.8041 31.4119C26.8402 31.5784 26.9105 31.7364 27.0107 31.8767C27.111 32.017 27.2393 32.1369 27.3882 32.2293C27.6036 32.3645 27.8555 32.4366 28.113 32.4368C28.2096 32.4373 28.3059 32.4275 28.4002 32.4074L32.8823 31.4845C33.2278 31.4105 33.5292 31.2092 33.7214 30.924C33.9136 30.6388 33.9812 30.2925 33.9096 29.96ZM25.9806 22.3081L30.838 21.307L32.19 27.4748L27.3317 28.4731L25.9806 22.3081ZM25.3458 19.4097L30.2041 18.4059L30.6015 20.2252L25.7441 21.2262L25.3458 19.4097ZM24.8996 16.4709L29.3807 15.5479C29.3941 15.5466 29.4075 15.5466 29.4209 15.5479C29.4567 15.5479 29.4917 15.5582 29.5215 15.5773C29.5434 15.5907 29.5624 15.6083 29.577 15.629C29.5917 15.6497 29.6018 15.673 29.6067 15.6976L29.9657 17.3341L25.1093 18.3278L24.7512 16.6949C24.74 16.6461 24.7493 16.5951 24.7771 16.5528C24.8049 16.5105 24.8489 16.4804 24.8996 16.469V16.4709ZM32.6371 30.4118L28.1551 31.3375C28.1311 31.3426 28.1063 31.3431 28.0821 31.3388C28.0579 31.3345 28.0349 31.3257 28.0144 31.3127C27.9924 31.2993 27.9735 31.2817 27.9588 31.261C27.9442 31.2403 27.9341 31.217 27.9291 31.1924L27.5701 29.5559L32.4265 28.5548L32.7894 30.1831C32.795 30.2076 32.7955 30.2329 32.7909 30.2576C32.7863 30.2823 32.7766 30.3059 32.7625 30.3269C32.7483 30.348 32.73 30.3662 32.7085 30.3805C32.6869 30.3947 32.6627 30.4047 32.6371 30.41V30.4118Z" fill="#25435B"/>
<path d="M7.0554 72.002V63.2747H8.39631V72.002H7.0554ZM7.73722 61.8201C7.47585 61.8201 7.25047 61.7311 7.06108 61.5531C6.87547 61.3751 6.78267 61.161 6.78267 60.911C6.78267 60.661 6.87547 60.447 7.06108 60.269C7.25047 60.091 7.47585 60.002 7.73722 60.002C7.99858 60.002 8.22206 60.091 8.40767 60.269C8.59706 60.447 8.69176 60.661 8.69176 60.911C8.69176 61.161 8.59706 61.3751 8.40767 61.5531C8.22206 61.7311 7.99858 61.8201 7.73722 61.8201ZM18.6705 60.3656H20.0795V68.0701C20.0795 68.8656 19.892 69.5758 19.517 70.2008C19.1458 70.822 18.6212 71.3126 17.9432 71.6724C17.2652 72.0285 16.4697 72.2065 15.5568 72.2065C14.6439 72.2065 13.8485 72.0285 13.1705 71.6724C12.4924 71.3126 11.9659 70.822 11.5909 70.2008C11.2197 69.5758 11.0341 68.8656 11.0341 68.0701V60.3656H12.4432V67.9565C12.4432 68.5247 12.5682 69.0304 12.8182 69.4735C13.0682 69.9129 13.4242 70.2595 13.8864 70.5133C14.3523 70.7633 14.9091 70.8883 15.5568 70.8883C16.2045 70.8883 16.7614 70.7633 17.2273 70.5133C17.6932 70.2595 18.0492 69.9129 18.2955 69.4735C18.5455 69.0304 18.6705 68.5247 18.6705 67.9565V60.3656ZM32.7116 66.1838C32.7116 67.411 32.4901 68.4717 32.0469 69.3656C31.6037 70.2595 30.9957 70.9489 30.223 71.4338C29.4503 71.9186 28.5677 72.161 27.5753 72.161C26.5829 72.161 25.7003 71.9186 24.9276 71.4338C24.1548 70.9489 23.5469 70.2595 23.1037 69.3656C22.6605 68.4717 22.4389 67.411 22.4389 66.1838C22.4389 64.9565 22.6605 63.8959 23.1037 63.002C23.5469 62.108 24.1548 61.4186 24.9276 60.9338C25.7003 60.4489 26.5829 60.2065 27.5753 60.2065C28.5677 60.2065 29.4503 60.4489 30.223 60.9338C30.9957 61.4186 31.6037 62.108 32.0469 63.002C32.4901 63.8959 32.7116 64.9565 32.7116 66.1838ZM31.348 66.1838C31.348 65.1762 31.1795 64.3258 30.8423 63.6326C30.509 62.9395 30.0563 62.4148 29.4844 62.0588C28.9162 61.7027 28.2798 61.5247 27.5753 61.5247C26.8707 61.5247 26.2325 61.7027 25.6605 62.0588C25.0923 62.4148 24.6397 62.9395 24.3026 63.6326C23.9692 64.3258 23.8026 65.1762 23.8026 66.1838C23.8026 67.1913 23.9692 68.0417 24.3026 68.7349C24.6397 69.4281 25.0923 69.9527 25.6605 70.3088C26.2325 70.6648 26.8707 70.8429 27.5753 70.8429C28.2798 70.8429 28.9162 70.6648 29.4844 70.3088C30.0563 69.9527 30.509 69.4281 30.8423 68.7349C31.1795 68.0417 31.348 67.1913 31.348 66.1838ZM35.081 72.002V60.3656H36.4901V70.752H41.8991V72.002H35.081ZM1.49503 92.002V80.3656H2.90412V90.752H8.31321V92.002H1.49503ZM10.3132 92.002V83.2747H11.6541V92.002H10.3132ZM10.995 81.8201C10.7337 81.8201 10.5083 81.7311 10.3189 81.5531C10.1333 81.3751 10.0405 81.161 10.0405 80.911C10.0405 80.661 10.1333 80.447 10.3189 80.269C10.5083 80.091 10.7337 80.002 10.995 80.002C11.2564 80.002 11.4799 80.091 11.6655 80.269C11.8549 80.447 11.9496 80.661 11.9496 80.911C11.9496 81.161 11.8549 81.3751 11.6655 81.5531C11.4799 81.7311 11.2564 81.8201 10.995 81.8201ZM14.2919 92.002V80.3656H15.6328V84.661H15.7464C15.8449 84.5095 15.9813 84.3163 16.1555 84.0815C16.3336 83.8429 16.5874 83.6307 16.9169 83.4451C17.2502 83.2557 17.701 83.161 18.2692 83.161C19.004 83.161 19.6518 83.3448 20.2124 83.7122C20.773 84.0796 21.2105 84.6004 21.5249 85.2747C21.8393 85.9489 21.9964 86.7444 21.9964 87.661C21.9964 88.5853 21.8393 89.3864 21.5249 90.0645C21.2105 90.7387 20.7749 91.2614 20.218 91.6326C19.6612 92.0001 19.0192 92.1838 18.2919 92.1838C17.7313 92.1838 17.2824 92.091 16.9453 91.9054C16.6082 91.716 16.3487 91.502 16.1669 91.2633C15.9851 91.0209 15.8449 90.8201 15.7464 90.661H15.5874V92.002H14.2919ZM15.6101 87.6383C15.6101 88.2974 15.7067 88.8788 15.8999 89.3826C16.093 89.8826 16.3752 90.2747 16.7464 90.5588C17.1177 90.8391 17.5722 90.9792 18.1101 90.9792C18.6707 90.9792 19.1385 90.8315 19.5135 90.536C19.8923 90.2368 20.1764 89.8353 20.3658 89.3315C20.5589 88.8239 20.6555 88.2595 20.6555 87.6383C20.6555 87.0247 20.5608 86.4716 20.3714 85.9792C20.1858 85.483 19.9036 85.091 19.5249 84.8031C19.1499 84.5114 18.6783 84.3656 18.1101 84.3656C17.5646 84.3656 17.1063 84.5038 16.7351 84.7804C16.3639 85.0531 16.0836 85.4357 15.8942 85.9281C15.7048 86.4167 15.6101 86.9868 15.6101 87.6383ZM24.0476 92.002V83.2747H25.343V84.5929H25.4339C25.593 84.161 25.8809 83.8107 26.2976 83.5417C26.7143 83.2728 27.1839 83.1383 27.7067 83.1383C27.8052 83.1383 27.9283 83.1402 28.076 83.144C28.2237 83.1478 28.3355 83.1535 28.4112 83.161V84.5247C28.3658 84.5133 28.2616 84.4963 28.0987 84.4735C27.9396 84.447 27.7711 84.4338 27.593 84.4338C27.1688 84.4338 26.79 84.5228 26.4567 84.7008C26.1271 84.8751 25.8658 85.1175 25.6726 85.4281C25.4832 85.7349 25.3885 86.0853 25.3885 86.4792V92.002H24.0476ZM32.5689 92.2065C32.0159 92.2065 31.514 92.1023 31.0632 91.894C30.6125 91.6819 30.2545 91.377 29.9893 90.9792C29.7242 90.5777 29.5916 90.0929 29.5916 89.5247C29.5916 89.0247 29.6901 88.6194 29.8871 88.3088C30.084 87.9944 30.3473 87.7482 30.6768 87.5701C31.0064 87.3921 31.37 87.2595 31.7678 87.1724C32.1693 87.0815 32.5727 87.0095 32.978 86.9565C33.5083 86.8883 33.9382 86.8372 34.2678 86.8031C34.6011 86.7652 34.8435 86.7027 34.995 86.6156C35.1503 86.5285 35.228 86.377 35.228 86.161V86.1156C35.228 85.555 35.0746 85.1194 34.7678 84.8088C34.4647 84.4982 34.0045 84.3429 33.3871 84.3429C32.7469 84.3429 32.245 84.483 31.8814 84.7633C31.5178 85.0436 31.2621 85.3429 31.1143 85.661L29.8416 85.2065C30.0689 84.6762 30.3719 84.2633 30.7507 83.9679C31.1333 83.6686 31.55 83.4603 32.0007 83.3429C32.4553 83.2217 32.9022 83.161 33.3416 83.161C33.6219 83.161 33.9439 83.1951 34.3075 83.2633C34.675 83.3277 35.0291 83.4622 35.37 83.6667C35.7147 83.8713 36.0007 84.18 36.228 84.5929C36.4553 85.0057 36.5689 85.5588 36.5689 86.252V92.002H35.228V90.8201H35.1598C35.0689 91.0095 34.9174 91.2122 34.7053 91.4281C34.4931 91.644 34.2109 91.8277 33.8587 91.9792C33.5064 92.1307 33.0765 92.2065 32.5689 92.2065ZM32.7734 91.002C33.3037 91.002 33.7507 90.8978 34.1143 90.6895C34.4818 90.4811 34.7583 90.2122 34.9439 89.8826C35.1333 89.5531 35.228 89.2065 35.228 88.8429V87.6156C35.1712 87.6838 35.0462 87.7463 34.853 87.8031C34.6636 87.8561 34.4439 87.9035 34.1939 87.9451C33.9477 87.983 33.7071 88.0171 33.4723 88.0474C33.2412 88.0739 33.0537 88.0967 32.9098 88.1156C32.5613 88.161 32.2356 88.2349 31.9325 88.3372C31.6333 88.4357 31.3909 88.5853 31.2053 88.786C31.0234 88.983 30.9325 89.252 30.9325 89.5929C30.9325 90.0588 31.1049 90.411 31.4496 90.6497C31.7981 90.8845 32.2393 91.002 32.7734 91.002ZM39.0163 92.002V83.2747H40.3118V84.5929H40.4027C40.5618 84.161 40.8497 83.8107 41.2663 83.5417C41.683 83.2728 42.1527 83.1383 42.6754 83.1383C42.7739 83.1383 42.897 83.1402 43.0447 83.144C43.1925 83.1478 43.3042 83.1535 43.38 83.161V84.5247C43.3345 84.5133 43.2304 84.4963 43.0675 84.4735C42.9084 84.447 42.7398 84.4338 42.5618 84.4338C42.1375 84.4338 41.7588 84.5228 41.4254 84.7008C41.0959 84.8751 40.8345 85.1175 40.6413 85.4281C40.4519 85.7349 40.3572 86.0853 40.3572 86.4792V92.002H39.0163ZM46.0987 95.2747C45.8714 95.2747 45.6688 95.2557 45.4908 95.2179C45.3127 95.1838 45.1896 95.1497 45.1214 95.1156L45.4624 93.9338C45.7881 94.0171 46.076 94.0474 46.326 94.0247C46.576 94.002 46.7976 93.8902 46.9908 93.6895C47.1877 93.4925 47.3677 93.1724 47.5305 92.7292L47.7805 92.0474L44.5533 83.2747H46.0078L48.4169 90.2292H48.5078L50.9169 83.2747H52.3714L48.6669 93.2747C48.5002 93.7254 48.2938 94.0985 48.0476 94.394C47.8014 94.6932 47.5154 94.9148 47.1896 95.0588C46.8677 95.2027 46.504 95.2747 46.0987 95.2747Z" fill="#090A0A"/>
</svg>
