<svg width="58" height="76" viewBox="0 0 58 76" fill="none" xmlns="http://www.w3.org/2000/svg">
<rect x="5" y="0.000976562" width="48" height="48" rx="5" fill="#E7F4FF"/>
<path d="M26 33.001H22C21.4696 33.001 20.9609 32.7903 20.5858 32.4152C20.2107 32.0401 20 31.5314 20 31.001V17.001C20 16.4705 20.2107 15.9618 20.5858 15.5868C20.9609 15.2117 21.4696 15.001 22 15.001H26M33 29.001L38 24.001M38 24.001L33 19.001M38 24.001H26" stroke="#090A0A" stroke-width="1.5" stroke-linecap="round" stroke-linejoin="round"/>
<path d="M1.40909 72.001V60.3646H2.81818V70.751H8.22727V72.001H1.40909ZM13.7727 72.1828C12.9848 72.1828 12.2936 71.9953 11.6989 71.6203C11.108 71.2453 10.6458 70.7207 10.3125 70.0464C9.98295 69.3722 9.81818 68.5843 9.81818 67.6828C9.81818 66.7737 9.98295 65.9801 10.3125 65.3021C10.6458 64.6241 11.108 64.0976 11.6989 63.7226C12.2936 63.3476 12.9848 63.1601 13.7727 63.1601C14.5606 63.1601 15.25 63.3476 15.8409 63.7226C16.4356 64.0976 16.8977 64.6241 17.2273 65.3021C17.5606 65.9801 17.7273 66.7737 17.7273 67.6828C17.7273 68.5843 17.5606 69.3722 17.2273 70.0464C16.8977 70.7207 16.4356 71.2453 15.8409 71.6203C15.25 71.9953 14.5606 72.1828 13.7727 72.1828ZM13.7727 70.9782C14.3712 70.9782 14.8636 70.8248 15.25 70.518C15.6364 70.2112 15.9223 69.8078 16.108 69.3078C16.2936 68.8078 16.3864 68.2661 16.3864 67.6828C16.3864 67.0995 16.2936 66.5559 16.108 66.0521C15.9223 65.5483 15.6364 65.1411 15.25 64.8305C14.8636 64.5199 14.3712 64.3646 13.7727 64.3646C13.1742 64.3646 12.6818 64.5199 12.2955 64.8305C11.9091 65.1411 11.6231 65.5483 11.4375 66.0521C11.2519 66.5559 11.1591 67.0995 11.1591 67.6828C11.1591 68.2661 11.2519 68.8078 11.4375 69.3078C11.6231 69.8078 11.9091 70.2112 12.2955 70.518C12.6818 70.8248 13.1742 70.9782 13.7727 70.9782ZM23.2969 75.4555C22.6491 75.4555 22.0923 75.3722 21.6264 75.2055C21.1605 75.0426 20.7723 74.8267 20.4616 74.5578C20.1548 74.2926 19.9105 74.0086 19.7287 73.7055L20.7969 72.9555C20.9181 73.1146 21.0715 73.2964 21.2571 73.501C21.4427 73.7093 21.6965 73.8892 22.0185 74.0407C22.3442 74.1961 22.7704 74.2737 23.2969 74.2737C24.0014 74.2737 24.5829 74.1032 25.0412 73.7623C25.4995 73.4214 25.7287 72.8873 25.7287 72.1601V70.3873H25.6151C25.5166 70.5464 25.3764 70.7434 25.1946 70.9782C25.0166 71.2093 24.759 71.4157 24.4219 71.5976C24.0885 71.7756 23.6378 71.8646 23.0696 71.8646C22.3651 71.8646 21.7325 71.6979 21.1719 71.3646C20.6151 71.0313 20.1738 70.5464 19.848 69.9101C19.526 69.2737 19.3651 68.501 19.3651 67.5919C19.3651 66.6979 19.5223 65.9195 19.8366 65.2567C20.151 64.59 20.5885 64.0748 21.1491 63.7112C21.7098 63.3438 22.3575 63.1601 23.0923 63.1601C23.6605 63.1601 24.1113 63.2548 24.4446 63.4442C24.7817 63.6298 25.0393 63.8419 25.2173 64.0805C25.3991 64.3154 25.5393 64.5086 25.6378 64.6601H25.7741V63.2737H27.0696V72.251C27.0696 73.001 26.8991 73.6108 26.5582 74.0805C26.2211 74.554 25.7666 74.9006 25.1946 75.1203C24.6264 75.3438 23.9938 75.4555 23.2969 75.4555ZM23.2514 70.6601C23.7893 70.6601 24.2438 70.537 24.6151 70.2907C24.9863 70.0445 25.2685 69.6904 25.4616 69.2282C25.6548 68.7661 25.7514 68.2131 25.7514 67.5692C25.7514 66.9404 25.6567 66.3854 25.4673 65.9044C25.2779 65.4233 24.9976 65.0464 24.6264 64.7737C24.2552 64.501 23.7969 64.3646 23.2514 64.3646C22.6832 64.3646 22.2098 64.5086 21.831 64.7964C21.456 65.0843 21.1738 65.4707 20.9844 65.9555C20.7988 66.4404 20.706 66.9782 20.706 67.5692C20.706 68.1752 20.8007 68.7112 20.9901 69.1771C21.1832 69.6392 21.4673 70.0029 21.8423 70.268C22.2211 70.5294 22.6908 70.6601 23.2514 70.6601ZM37.5696 72.1828C36.7817 72.1828 36.0904 71.9953 35.4957 71.6203C34.9048 71.2453 34.4427 70.7207 34.1094 70.0464C33.7798 69.3722 33.6151 68.5843 33.6151 67.6828C33.6151 66.7737 33.7798 65.9801 34.1094 65.3021C34.4427 64.6241 34.9048 64.0976 35.4957 63.7226C36.0904 63.3476 36.7817 63.1601 37.5696 63.1601C38.3575 63.1601 39.0469 63.3476 39.6378 63.7226C40.2325 64.0976 40.6946 64.6241 41.0241 65.3021C41.3575 65.9801 41.5241 66.7737 41.5241 67.6828C41.5241 68.5843 41.3575 69.3722 41.0241 70.0464C40.6946 70.7207 40.2325 71.2453 39.6378 71.6203C39.0469 71.9953 38.3575 72.1828 37.5696 72.1828ZM37.5696 70.9782C38.1681 70.9782 38.6605 70.8248 39.0469 70.518C39.4332 70.2112 39.7192 69.8078 39.9048 69.3078C40.0904 68.8078 40.1832 68.2661 40.1832 67.6828C40.1832 67.0995 40.0904 66.5559 39.9048 66.0521C39.7192 65.5483 39.4332 65.1411 39.0469 64.8305C38.6605 64.5199 38.1681 64.3646 37.5696 64.3646C36.9711 64.3646 36.4787 64.5199 36.0923 64.8305C35.706 65.1411 35.42 65.5483 35.2344 66.0521C35.0488 66.5559 34.956 67.0995 34.956 67.6828C34.956 68.2661 35.0488 68.8078 35.2344 69.3078C35.42 69.8078 35.706 70.2112 36.0923 70.518C36.4787 70.8248 36.9711 70.9782 37.5696 70.9782ZM49.071 68.4328V63.2737H50.4119V72.001H49.071V70.5237H48.9801C48.7756 70.9669 48.4574 71.3438 48.0256 71.6544C47.5938 71.9612 47.0483 72.1146 46.3892 72.1146C45.8438 72.1146 45.3589 71.9953 44.9347 71.7567C44.5104 71.5142 44.1771 71.1506 43.9347 70.6657C43.6922 70.1771 43.571 69.5616 43.571 68.8192V63.2737H44.9119V68.7282C44.9119 69.3646 45.09 69.8722 45.446 70.251C45.8059 70.6298 46.2642 70.8192 46.821 70.8192C47.1544 70.8192 47.4934 70.7339 47.8381 70.5635C48.1866 70.393 48.4782 70.1317 48.7131 69.7794C48.9517 69.4271 49.071 68.9782 49.071 68.4328ZM56.6634 63.2737V64.4101H52.1406V63.2737H56.6634ZM53.4588 61.1828H54.7997V69.501C54.7997 69.8798 54.8546 70.1639 54.9645 70.3532C55.0781 70.5389 55.2221 70.6639 55.3963 70.7282C55.5743 70.7889 55.7618 70.8192 55.9588 70.8192C56.1065 70.8192 56.2277 70.8116 56.3224 70.7964C56.4171 70.7775 56.4929 70.7623 56.5497 70.751L56.8224 71.9555C56.7315 71.9896 56.6046 72.0237 56.4418 72.0578C56.2789 72.0957 56.0724 72.1146 55.8224 72.1146C55.4437 72.1146 55.0724 72.0332 54.7088 71.8703C54.349 71.7074 54.0497 71.4593 53.8111 71.126C53.5762 70.7926 53.4588 70.3722 53.4588 69.8646V61.1828Z" fill="#090A0A"/>
</svg>
