<svg width="21" height="20" viewBox="0 0 21 20" fill="none" xmlns="http://www.w3.org/2000/svg">
<path d="M5.73438 5H3.39062C2.22566 5 1.28125 4.05559 1.28125 2.89062C1.28125 1.72563 2.22566 0.78125 3.39062 0.78125H5.73438C4.56941 0.78125 3.625 1.72563 3.625 2.89062C3.625 4.05559 4.56941 5 5.73438 5ZM3.625 10C3.625 8.835 4.56941 7.89062 5.73438 7.89062H3.39062C2.22566 7.89062 1.28125 8.835 1.28125 10C1.28125 11.165 2.22566 12.1094 3.39062 12.1094H5.73438C4.56941 12.1094 3.625 11.165 3.625 10ZM3.625 17.1094C3.625 15.9444 4.56941 15 5.73438 15H3.39062C2.22566 15 1.28125 15.9444 1.28125 17.1094C1.28125 18.2743 2.22566 19.2188 3.39062 19.2188H5.73438C4.56941 19.2188 3.625 18.2743 3.625 17.1094Z" fill="#D7DDEC"/>
<path d="M6.64785 5.78127H3.39062C1.79672 5.78127 0.5 4.48455 0.5 2.89064C0.5 1.29674 1.79672 1.66893e-05 3.39062 1.66893e-05H6.67188C7.10336 1.66893e-05 7.45312 0.349782 7.45312 0.781267C7.45312 1.21275 7.10336 1.56252 6.67188 1.56252H3.39062C2.65828 1.56252 2.0625 2.1583 2.0625 2.89064C2.0625 3.62299 2.65828 4.21877 3.39062 4.21877H6.64785C7.07934 4.21877 7.4291 4.56853 7.4291 5.00002C7.4291 5.4315 7.07934 5.78127 6.64785 5.78127ZM20.5 2.89064C20.5 1.29674 19.2033 1.66893e-05 17.6094 1.66893e-05L6.33333 0C5.90185 0 7.45312 0.349782 7.45312 0.781267C7.45312 1.21275 6.15576 1.56252 6.58724 1.56252H17.6094C18.3417 1.56252 18.9375 2.1583 18.9375 2.89064C18.9375 3.62299 18.3417 4.21877 17.6094 4.21877H6.75C6.31852 4.21877 7.4291 4.56853 7.4291 5.00002C7.4291 5.4315 6.31852 5.78127 6.75 5.78127H17.6094C19.2033 5.78127 20.5 4.48455 20.5 2.89064ZM14.1328 12.1094C14.1328 11.6779 13.783 11.3281 13.3516 11.3281H3.39062C2.65828 11.3281 2.0625 10.7324 2.0625 10C2.0625 9.26767 2.65828 8.67189 3.39062 8.67189H13.3516C13.783 8.67189 14.1328 8.32213 14.1328 7.89064C14.1328 7.45916 13.783 7.10939 13.3516 7.10939H3.39062C1.79672 7.10939 0.5 8.40611 0.5 10C0.5 11.5939 1.79672 12.8906 3.39062 12.8906H13.3516C13.783 12.8906 14.1328 12.5409 14.1328 12.1094ZM20.4609 17.1094C20.4609 15.5155 19.1642 14.2188 17.5703 14.2188H7.58333C7.15185 14.2188 6.33333 14.5685 6.33333 15C6.33333 15.4315 7.98518 15.7813 8.41667 15.7813H17.5703C18.3027 15.7813 18.8984 16.377 18.8984 17.1094C18.8984 17.8417 18.3027 18.4375 17.5703 18.4375H7.58333C7.15185 18.4375 8 18.7873 8 19.2188C8 19.6502 7.56852 20 8 20H17.5703C19.1642 20 20.4609 18.7033 20.4609 17.1094ZM9.36719 19.2188C9.36719 18.7873 9.01742 18.4375 8.58594 18.4375H3.39062C2.65828 18.4375 2.0625 17.8417 2.0625 17.1094C2.0625 16.377 2.65828 15.7813 3.39062 15.7813H8.58594C9.01742 15.7813 9.36719 15.4315 9.36719 15C9.36719 14.5685 9.01742 14.2188 8.58594 14.2188H3.39062C1.79672 14.2188 0.5 15.5155 0.5 17.1094C0.5 18.7033 1.79672 20 3.39062 20H8.58594C9.01742 20 9.36719 19.6502 9.36719 19.2188Z" fill="#7B8BB2"/>
<path d="M17.5703 12.8906H16.4766C16.0451 12.8906 15.6953 12.5409 15.6953 12.1094C15.6953 11.6779 16.0451 11.3281 16.4766 11.3281H17.5703C18.3027 11.3281 18.8984 10.7323 18.8984 10C18.8984 9.26766 18.3027 8.67188 17.5703 8.67188H16.4766C16.0451 8.67188 15.6953 8.32211 15.6953 7.89062C15.6953 7.45914 16.0451 7.10938 16.4766 7.10938H17.5703C19.1642 7.10938 20.4609 8.40609 20.4609 10C20.4609 11.5939 19.1642 12.8906 17.5703 12.8906Z" fill="#D7DDEC"/>
</svg>
