<svg width="205" height="200" viewBox="0 0 205 200" fill="none" xmlns="http://www.w3.org/2000/svg">
<g clip-path="url(#clip0_1975_44190)">
<path d="M130.008 45.2191H75.0385C73.7859 45.2206 72.5849 45.7189 71.6992 46.6046C70.8134 47.4904 70.3151 48.6913 70.3136 49.9439V172.113L69.6836 172.306L56.1988 176.435C55.5598 176.63 54.8695 176.563 54.2795 176.25C53.6896 175.936 53.2481 175.401 53.0522 174.763L12.941 43.7417C12.7458 43.1026 12.8123 42.4122 13.126 41.8221C13.4396 41.2321 13.9747 40.7907 14.6136 40.595L35.3937 34.2321L95.6358 15.7925L116.416 9.42969C116.732 9.33237 117.064 9.29836 117.394 9.32961C117.723 9.36086 118.043 9.45677 118.335 9.61183C118.628 9.7669 118.887 9.97808 119.097 10.2333C119.308 10.4885 119.466 10.7827 119.563 11.0992L129.816 44.5891L130.008 45.2191Z" fill="#F2F2F2"/>
<path d="M142.003 44.589L129.645 4.22598C129.44 3.55346 129.104 2.92804 128.656 2.38545C128.209 1.84287 127.659 1.39377 127.038 1.0638C126.417 0.733836 125.737 0.52947 125.037 0.462393C124.337 0.395316 123.63 0.466841 122.958 0.672875L93.7426 9.61549L33.5037 28.0583L4.28823 37.004C2.93103 37.4208 1.79463 38.359 1.12847 39.6127C0.462307 40.8665 0.320805 42.3333 0.735029 43.6913L42.9691 181.636C43.3056 182.732 43.9846 183.691 44.9064 184.373C45.8282 185.055 46.9443 185.424 48.091 185.425C48.6217 185.425 49.1494 185.346 49.6564 185.189L69.6836 179.059L70.3136 178.864V178.205L69.6836 178.397L49.4706 184.587C48.2726 184.952 46.9787 184.827 45.8727 184.24C44.7667 183.652 43.9389 182.65 43.5708 181.453L1.33994 43.5055C1.15759 42.9123 1.09404 42.289 1.15292 41.6712C1.2118 41.0535 1.39195 40.4534 1.68307 39.9054C1.97419 39.3574 2.37056 38.8721 2.84948 38.4775C3.32839 38.0829 3.88044 37.7866 4.47402 37.6057L33.6895 28.6599L93.9286 10.2203L123.144 1.27451C123.594 1.13712 124.062 1.06706 124.533 1.06662C125.543 1.06889 126.526 1.39457 127.338 1.99598C128.15 2.59738 128.747 3.4429 129.044 4.40868L141.344 44.589L141.54 45.219H142.195L142.003 44.589Z" fill="#3F3D56"/>
<path d="M39.1435 40.6981C38.5364 40.6976 37.9454 40.5026 37.4572 40.1417C36.969 39.7808 36.6094 39.2729 36.431 38.6926L32.3738 25.4403C32.2648 25.0844 32.2269 24.7104 32.2624 24.3398C32.298 23.9692 32.4061 23.6092 32.5808 23.2804C32.7555 22.9517 32.9932 22.6605 33.2804 22.4236C33.5676 22.1867 33.8987 22.0087 34.2547 21.8998L89.674 4.93313C90.3929 4.71374 91.1695 4.78857 91.8333 5.14117C92.4971 5.49377 92.994 6.09534 93.2147 6.81385L97.2719 20.0663C97.4912 20.7852 97.4163 21.5617 97.0637 22.2255C96.7111 22.8893 96.1096 23.3861 95.3912 23.607L39.9717 40.5736C39.7034 40.656 39.4242 40.6979 39.1435 40.6981Z" fill="#8F98FF"/>
<path d="M60.3968 14.5958C63.8761 14.5958 66.6966 11.7752 66.6966 8.29593C66.6966 4.81662 63.8761 1.99609 60.3968 1.99609C56.9175 1.99609 54.0969 4.81662 54.0969 8.29593C54.0969 11.7752 56.9175 14.5958 60.3968 14.5958Z" fill="#8F98FF"/>
<path d="M60.3967 12.2851C62.5999 12.2851 64.386 10.4991 64.386 8.29589C64.386 6.09269 62.5999 4.30664 60.3967 4.30664C58.1935 4.30664 56.4075 6.09269 56.4075 8.29589C56.4075 10.4991 58.1935 12.2851 60.3967 12.2851Z" fill="white"/>
<path d="M190.326 183.816H83.8583C83.1485 183.815 82.4679 183.532 81.966 183.031C81.4641 182.529 81.1817 181.848 81.1809 181.138V53.5666C81.1817 52.8567 81.464 52.1762 81.966 51.6742C82.4679 51.1723 83.1485 50.89 83.8583 50.8892H190.326C191.035 50.89 191.716 51.1723 192.218 51.6743C192.72 52.1762 193.002 52.8567 193.003 53.5666V181.138C193.002 181.848 192.72 182.529 192.218 183.03C191.716 183.532 191.035 183.815 190.326 183.816Z" fill="#E6E6E6"/>
<path d="M141.344 44.5894H75.0385C73.6189 44.5914 72.258 45.1562 71.2542 46.16C70.2504 47.1638 69.6856 48.5246 69.6836 49.9442V178.398L70.3136 178.206V49.9442C70.3151 48.6916 70.8134 47.4907 71.6991 46.6049C72.5849 45.7192 73.7858 45.2209 75.0385 45.2193H141.54L141.344 44.5894ZM199.145 44.5894H75.0385C73.6189 44.5914 72.258 45.1562 71.2542 46.16C70.2504 47.1638 69.6856 48.5246 69.6836 49.9442V194.21C69.6856 195.63 70.2504 196.991 71.2542 197.995C72.258 198.998 73.6189 199.563 75.0385 199.565H199.145C200.565 199.563 201.926 198.998 202.929 197.995C203.933 196.991 204.498 195.63 204.5 194.21V49.9442C204.498 48.5246 203.933 47.1638 202.929 46.16C201.926 45.1562 200.565 44.5914 199.145 44.5894ZM203.87 194.21C203.869 195.463 203.37 196.664 202.484 197.55C201.599 198.435 200.398 198.934 199.145 198.935H75.0385C73.7858 198.934 72.5849 198.435 71.6991 197.55C70.8134 196.664 70.3151 195.463 70.3136 194.21V49.9442C70.3151 48.6916 70.8134 47.4907 71.6991 46.6049C72.5849 45.7192 73.7858 45.2209 75.0385 45.2193H199.145C200.398 45.2209 201.599 45.7192 202.484 46.6049C203.37 47.4907 203.869 48.6916 203.87 49.9442V194.21Z" fill="#3F3D56"/>
<path d="M166.071 58.4489H108.113C107.361 58.4481 106.64 58.1491 106.109 57.6177C105.577 57.0862 105.279 56.3656 105.278 55.614V41.7544C105.279 41.0027 105.578 40.2822 106.109 39.7507C106.64 39.2192 107.361 38.9203 108.113 38.9194H166.071C166.823 38.9203 167.543 39.2192 168.075 39.7507C168.606 40.2822 168.905 41.0027 168.906 41.7544V55.614C168.905 56.3656 168.606 57.0862 168.075 57.6177C167.543 58.1491 166.823 58.4481 166.071 58.4489Z" fill="#8F98FF"/>
<path d="M137.092 39.8643C140.571 39.8643 143.392 37.0438 143.392 33.5645C143.392 30.0852 140.571 27.2646 137.092 27.2646C133.613 27.2646 130.792 30.0852 130.792 33.5645C130.792 37.0438 133.613 39.8643 137.092 39.8643Z" fill="#8F98FF"/>
<path d="M137.092 37.4014C139.211 37.4014 140.929 35.6835 140.929 33.5642C140.929 31.445 139.211 29.7271 137.092 29.7271C134.973 29.7271 133.255 31.445 133.255 33.5642C133.255 35.6835 134.973 37.4014 137.092 37.4014Z" fill="white"/>
</g>
<defs>
<clipPath id="clip0_1975_44190">
<rect width="204" height="199.129" fill="white" transform="translate(0.5 0.435547)"/>
</clipPath>
</defs>
</svg>
