<svg width="67" height="92" viewBox="0 0 67 92" fill="none" xmlns="http://www.w3.org/2000/svg">
<rect x="9.5" y="0.000976562" width="48" height="43.1978" rx="5" fill="#E7F4FF"/>
<path d="M21.5 12.001V26.3993H33.8826C33.6276 25.625 33.498 24.8149 33.4986 23.9996H26.2995C26.2995 23.3632 26.0466 22.7528 25.5966 22.3027C25.1466 21.8527 24.5362 21.5999 23.8997 21.5999V16.8004C25.2316 16.8004 26.2995 15.7326 26.2995 14.4007H38.2981C38.2981 15.0372 38.5509 15.6475 39.0009 16.0976C39.451 16.5476 40.0614 16.8004 40.6978 16.8004V16.8724C41.5017 16.8724 42.3056 17.0164 43.0975 17.2804V12.001H21.5ZM32.2988 15.6006C30.259 15.6366 28.6992 17.1604 28.6992 19.2002C28.6992 21.2399 30.259 22.7278 32.2988 22.7997C32.7547 22.7997 33.2227 22.7038 33.6666 22.5238C33.9906 21.2039 34.5305 19.9561 35.8624 18.7322C35.7184 17.1364 34.2066 15.5646 32.2988 15.6006ZM40.6978 18.0003L43.3975 20.7L40.6978 23.3997V21.5999C38.4781 21.5999 37.0262 23.9516 38.0101 25.9434L36.7023 27.2512C34.5905 24.0596 36.8702 19.8001 40.6978 19.8001V18.0003ZM40.6978 31.1988L37.9981 28.4991L40.6978 25.7994V27.5992C42.9176 27.5992 44.3694 25.2475 43.3855 23.2557L44.6934 21.9478C46.8051 25.1395 44.5254 29.399 40.6978 29.399V31.1988Z" fill="#25435B"/>
<path d="M1.83097 67.1987V55.5624H5.76278C6.67566 55.5624 7.42188 55.7271 8.00142 56.0567C8.58475 56.3824 9.01657 56.8237 9.29688 57.3805C9.57718 57.9374 9.71733 58.5586 9.71733 59.2442C9.71733 59.9298 9.57718 60.5529 9.29688 61.1135C9.02036 61.6741 8.59233 62.1211 8.01278 62.4544C7.43324 62.784 6.69081 62.9487 5.78551 62.9487H2.96733V61.6987H5.74006C6.36506 61.6987 6.86695 61.5908 7.24574 61.3749C7.62453 61.159 7.89915 60.8673 8.0696 60.4999C8.24384 60.1287 8.33097 59.7101 8.33097 59.2442C8.33097 58.7783 8.24384 58.3616 8.0696 57.9942C7.89915 57.6268 7.62263 57.3389 7.24006 57.1305C6.85748 56.9184 6.34991 56.8124 5.71733 56.8124H3.24006V67.1987H1.83097ZM14.3736 67.4033C13.8205 67.4033 13.3187 67.2991 12.8679 67.0908C12.4171 66.8787 12.0592 66.5737 11.794 66.176C11.5289 65.7745 11.3963 65.2896 11.3963 64.7215C11.3963 64.2215 11.4948 63.8162 11.6918 63.5055C11.8887 63.1912 12.152 62.9449 12.4815 62.7669C12.8111 62.5889 13.1747 62.4563 13.5724 62.3692C13.974 62.2783 14.3774 62.2063 14.7827 62.1533C15.313 62.0851 15.7429 62.034 16.0724 61.9999C16.4058 61.962 16.6482 61.8995 16.7997 61.8124C16.955 61.7252 17.0327 61.5737 17.0327 61.3578V61.3124C17.0327 60.7518 16.8793 60.3162 16.5724 60.0055C16.2694 59.6949 15.8092 59.5396 15.1918 59.5396C14.5516 59.5396 14.0497 59.6798 13.6861 59.9601C13.3224 60.2404 13.0668 60.5396 12.919 60.8578L11.6463 60.4033C11.8736 59.873 12.1766 59.4601 12.5554 59.1646C12.938 58.8654 13.3546 58.6571 13.8054 58.5396C14.2599 58.4184 14.7069 58.3578 15.1463 58.3578C15.4266 58.3578 15.7486 58.3919 16.1122 58.4601C16.4796 58.5245 16.8338 58.659 17.1747 58.8635C17.5194 59.068 17.8054 59.3768 18.0327 59.7896C18.2599 60.2025 18.3736 60.7555 18.3736 61.4487V67.1987H17.0327V66.0169H16.9645C16.8736 66.2063 16.7221 66.409 16.5099 66.6249C16.2978 66.8408 16.0156 67.0245 15.6634 67.176C15.3111 67.3275 14.8812 67.4033 14.3736 67.4033ZM14.5781 66.1987C15.1084 66.1987 15.5554 66.0946 15.919 65.8862C16.2865 65.6779 16.563 65.409 16.7486 65.0794C16.938 64.7499 17.0327 64.4033 17.0327 64.0396V62.8124C16.9759 62.8805 16.8509 62.943 16.6577 62.9999C16.4683 63.0529 16.2486 63.1002 15.9986 63.1419C15.7524 63.1798 15.5118 63.2139 15.277 63.2442C15.0459 63.2707 14.8584 63.2934 14.7145 63.3124C14.366 63.3578 14.0402 63.4317 13.7372 63.534C13.438 63.6324 13.1955 63.7821 13.0099 63.9828C12.8281 64.1798 12.7372 64.4487 12.7372 64.7896C12.7372 65.2555 12.9096 65.6078 13.2543 65.8465C13.6027 66.0813 14.044 66.1987 14.5781 66.1987ZM21.3722 70.4715C21.1449 70.4715 20.9422 70.4525 20.7642 70.4146C20.5862 70.3805 20.4631 70.3465 20.3949 70.3124L20.7358 69.1305C21.0616 69.2139 21.3494 69.2442 21.5994 69.2215C21.8494 69.1987 22.071 69.087 22.2642 68.8862C22.4612 68.6893 22.6411 68.3692 22.804 67.926L23.054 67.2442L19.8267 58.4715H21.2812L23.6903 65.426H23.7812L26.1903 58.4715H27.6449L23.9403 68.4715C23.7737 68.9222 23.5672 69.2953 23.321 69.5908C23.0748 69.89 22.7888 70.1116 22.4631 70.2555C22.1411 70.3995 21.7775 70.4715 21.3722 70.4715ZM29.4148 67.1987V58.4715H30.7102V59.8351H30.8239C31.0057 59.3692 31.2992 59.0074 31.7045 58.7499C32.1098 58.4885 32.5966 58.3578 33.1648 58.3578C33.7405 58.3578 34.2197 58.4885 34.6023 58.7499C34.9886 59.0074 35.2898 59.3692 35.5057 59.8351H35.5966C35.8201 59.3843 36.1553 59.0264 36.6023 58.7612C37.0492 58.4923 37.5852 58.3578 38.2102 58.3578C38.9905 58.3578 39.6288 58.6021 40.125 59.0908C40.6212 59.5756 40.8693 60.3313 40.8693 61.3578V67.1987H39.5284V61.3578C39.5284 60.7139 39.3523 60.2537 39 59.9771C38.6477 59.7006 38.233 59.5624 37.7557 59.5624C37.142 59.5624 36.6667 59.748 36.3295 60.1192C35.9924 60.4866 35.8239 60.9525 35.8239 61.5169V67.1987H34.4602V61.2215C34.4602 60.7252 34.2992 60.3256 33.9773 60.0226C33.6553 59.7158 33.2405 59.5624 32.733 59.5624C32.3845 59.5624 32.0587 59.6552 31.7557 59.8408C31.4564 60.0264 31.214 60.284 31.0284 60.6135C30.8466 60.9393 30.7557 61.3162 30.7557 61.7442V67.1987H29.4148ZM46.9801 67.3805C46.1392 67.3805 45.4138 67.1949 44.804 66.8237C44.1979 66.4487 43.7301 65.926 43.4006 65.2555C43.0748 64.5813 42.9119 63.7972 42.9119 62.9033C42.9119 62.0093 43.0748 61.2215 43.4006 60.5396C43.7301 59.854 44.1884 59.3199 44.7756 58.9374C45.3665 58.551 46.0559 58.3578 46.8438 58.3578C47.2983 58.3578 47.7472 58.4336 48.1903 58.5851C48.6335 58.7366 49.0369 58.9828 49.4006 59.3237C49.7642 59.6609 50.054 60.1078 50.2699 60.6646C50.4858 61.2215 50.5938 61.9071 50.5938 62.7215V63.2896H43.8665V62.1305H49.2301C49.2301 61.6381 49.1316 61.1987 48.9347 60.8124C48.7415 60.426 48.465 60.1211 48.1051 59.8976C47.7491 59.6741 47.3286 59.5624 46.8438 59.5624C46.3097 59.5624 45.8475 59.6949 45.4574 59.9601C45.071 60.2215 44.7737 60.5624 44.5653 60.9828C44.357 61.4033 44.2528 61.854 44.2528 62.3351V63.1078C44.2528 63.7669 44.3665 64.3256 44.5938 64.784C44.8248 65.2385 45.1449 65.5851 45.554 65.8237C45.9631 66.0586 46.4384 66.176 46.9801 66.176C47.3324 66.176 47.6506 66.1268 47.9347 66.0283C48.2225 65.926 48.4706 65.7745 48.679 65.5737C48.8873 65.3692 49.0483 65.1154 49.1619 64.8124L50.4574 65.176C50.321 65.6154 50.0919 66.0018 49.7699 66.3351C49.4479 66.6646 49.0502 66.9222 48.5767 67.1078C48.1032 67.2896 47.571 67.3805 46.9801 67.3805ZM53.9744 61.9487V67.1987H52.6335V58.4715H53.929V59.8351H54.0426C54.2472 59.3919 54.5578 59.0359 54.9744 58.7669C55.3911 58.4942 55.929 58.3578 56.5881 58.3578C57.179 58.3578 57.696 58.479 58.1392 58.7215C58.5824 58.9601 58.9271 59.3237 59.1733 59.8124C59.4195 60.2972 59.5426 60.9109 59.5426 61.6533V67.1987H58.2017V61.7442C58.2017 61.0586 58.0237 60.5245 57.6676 60.1419C57.3116 59.7555 56.8229 59.5624 56.2017 59.5624C55.7737 59.5624 55.3911 59.6552 55.054 59.8408C54.7206 60.0264 54.4574 60.2972 54.2642 60.6533C54.071 61.0093 53.9744 61.4412 53.9744 61.9487ZM65.7884 58.4715V59.6078H61.2656V58.4715H65.7884ZM62.5838 56.3805H63.9247V64.6987C63.9247 65.0775 63.9796 65.3616 64.0895 65.551C64.2031 65.7366 64.3471 65.8616 64.5213 65.926C64.6993 65.9866 64.8868 66.0169 65.0838 66.0169C65.2315 66.0169 65.3527 66.0093 65.4474 65.9942C65.5421 65.9752 65.6179 65.9601 65.6747 65.9487L65.9474 67.1533C65.8565 67.1874 65.7296 67.2215 65.5668 67.2555C65.4039 67.2934 65.1974 67.3124 64.9474 67.3124C64.5687 67.3124 64.1974 67.2309 63.8338 67.068C63.474 66.9052 63.1747 66.6571 62.9361 66.3237C62.7012 65.9904 62.5838 65.5699 62.5838 65.0624V56.3805ZM7.71378 87.1987V75.5624H9.12287V80.7442H15.3274V75.5624H16.7365V87.1987H15.3274V81.9942H9.12287V87.1987H7.71378ZM19.3757 87.1987V78.4715H20.7166V87.1987H19.3757ZM20.0575 77.0169C19.7962 77.0169 19.5708 76.9279 19.3814 76.7499C19.1958 76.5718 19.103 76.3578 19.103 76.1078C19.103 75.8578 19.1958 75.6438 19.3814 75.4658C19.5708 75.2877 19.7962 75.1987 20.0575 75.1987C20.3189 75.1987 20.5424 75.2877 20.728 75.4658C20.9174 75.6438 21.0121 75.8578 21.0121 76.1078C21.0121 76.3578 20.9174 76.5718 20.728 76.7499C20.5424 76.9279 20.3189 77.0169 20.0575 77.0169ZM29.3544 80.426L28.1499 80.7669C28.0741 80.5662 27.9624 80.3711 27.8146 80.1817C27.6707 79.9885 27.4737 79.8294 27.2237 79.7044C26.9737 79.5794 26.6536 79.5169 26.2635 79.5169C25.7294 79.5169 25.2843 79.64 24.9283 79.8862C24.576 80.1287 24.3999 80.4374 24.3999 80.8124C24.3999 81.1457 24.5211 81.409 24.7635 81.6021C25.0059 81.7953 25.3847 81.9563 25.8999 82.0851L27.1953 82.4033C27.9756 82.5927 28.5571 82.8824 28.9396 83.2726C29.3222 83.659 29.5135 84.1571 29.5135 84.7669C29.5135 85.2669 29.3696 85.7139 29.0817 86.1078C28.7976 86.5018 28.3999 86.8124 27.8885 87.0396C27.3771 87.2669 26.7824 87.3805 26.1044 87.3805C25.2143 87.3805 24.4775 87.1874 23.8942 86.801C23.3108 86.4146 22.9415 85.8502 22.7862 85.1078L24.0589 84.7896C24.1802 85.2593 24.4093 85.6116 24.7464 85.8465C25.0874 86.0813 25.5324 86.1987 26.0817 86.1987C26.7067 86.1987 27.2029 86.0662 27.5703 85.801C27.9415 85.5321 28.1271 85.2101 28.1271 84.8351C28.1271 84.5321 28.0211 84.2783 27.8089 84.0737C27.5968 83.8654 27.2711 83.7101 26.8317 83.6078L25.3771 83.2669C24.5779 83.0775 23.9908 82.784 23.6158 82.3862C23.2446 81.9847 23.0589 81.4828 23.0589 80.8805C23.0589 80.3881 23.1972 79.9525 23.4737 79.5737C23.754 79.1949 24.1347 78.8976 24.6158 78.6817C25.1006 78.4658 25.6499 78.3578 26.2635 78.3578C27.1271 78.3578 27.8052 78.5472 28.2976 78.926C28.7938 79.3048 29.1461 79.8048 29.3544 80.426ZM35.3274 78.4715V79.6078H30.8047V78.4715H35.3274ZM32.1229 76.3805H33.4638V84.6987C33.4638 85.0775 33.5187 85.3616 33.6286 85.551C33.7422 85.7366 33.8861 85.8616 34.0604 85.926C34.2384 85.9866 34.4259 86.0169 34.6229 86.0169C34.7706 86.0169 34.8918 86.0093 34.9865 85.9942C35.0812 85.9752 35.157 85.9601 35.2138 85.9487L35.4865 87.1533C35.3956 87.1874 35.2687 87.2215 35.1058 87.2555C34.9429 87.2934 34.7365 87.3124 34.4865 87.3124C34.1077 87.3124 33.7365 87.2309 33.3729 87.068C33.013 86.9052 32.7138 86.6571 32.4751 86.3237C32.2403 85.9904 32.1229 85.5699 32.1229 85.0624V76.3805ZM40.7962 87.3805C40.0083 87.3805 39.317 87.193 38.7223 86.818C38.1314 86.443 37.6693 85.9184 37.3359 85.2442C37.0064 84.5699 36.8416 83.7821 36.8416 82.8805C36.8416 81.9715 37.0064 81.1779 37.3359 80.4999C37.6693 79.8218 38.1314 79.2953 38.7223 78.9203C39.317 78.5453 40.0083 78.3578 40.7962 78.3578C41.584 78.3578 42.2734 78.5453 42.8643 78.9203C43.459 79.2953 43.9212 79.8218 44.2507 80.4999C44.584 81.1779 44.7507 81.9715 44.7507 82.8805C44.7507 83.7821 44.584 84.5699 44.2507 85.2442C43.9212 85.9184 43.459 86.443 42.8643 86.818C42.2734 87.193 41.584 87.3805 40.7962 87.3805ZM40.7962 86.176C41.3946 86.176 41.8871 86.0226 42.2734 85.7158C42.6598 85.409 42.9458 85.0055 43.1314 84.5055C43.317 84.0055 43.4098 83.4639 43.4098 82.8805C43.4098 82.2972 43.317 81.7537 43.1314 81.2499C42.9458 80.7461 42.6598 80.3389 42.2734 80.0283C41.8871 79.7177 41.3946 79.5624 40.7962 79.5624C40.1977 79.5624 39.7053 79.7177 39.3189 80.0283C38.9325 80.3389 38.6465 80.7461 38.4609 81.2499C38.2753 81.7537 38.1825 82.2972 38.1825 82.8805C38.1825 83.4639 38.2753 84.0055 38.4609 84.5055C38.6465 85.0055 38.9325 85.409 39.3189 85.7158C39.7053 86.0226 40.1977 86.176 40.7962 86.176ZM46.7976 87.1987V78.4715H48.093V79.7896H48.1839C48.343 79.3578 48.6309 79.0074 49.0476 78.7385C49.4643 78.4696 49.9339 78.3351 50.4567 78.3351C50.5552 78.3351 50.6783 78.337 50.826 78.3408C50.9737 78.3446 51.0855 78.3502 51.1612 78.3578V79.7215C51.1158 79.7101 51.0116 79.693 50.8487 79.6703C50.6896 79.6438 50.5211 79.6305 50.343 79.6305C49.9188 79.6305 49.54 79.7196 49.2067 79.8976C48.8771 80.0718 48.6158 80.3143 48.4226 80.6249C48.2332 80.9317 48.1385 81.2821 48.1385 81.676V87.1987H46.7976ZM53.88 90.4715C53.6527 90.4715 53.45 90.4525 53.272 90.4146C53.094 90.3805 52.9709 90.3465 52.9027 90.3124L53.2436 89.1305C53.5694 89.2139 53.8572 89.2442 54.1072 89.2215C54.3572 89.1987 54.5788 89.087 54.772 88.8862C54.969 88.6893 55.1489 88.3692 55.3118 87.926L55.5618 87.2442L52.3345 78.4715H53.7891L56.1982 85.426H56.2891L58.6982 78.4715H60.1527L56.4482 88.4715C56.2815 88.9222 56.075 89.2953 55.8288 89.5908C55.5826 89.89 55.2966 90.1116 54.9709 90.2555C54.6489 90.3995 54.2853 90.4715 53.88 90.4715Z" fill="#090A0A"/>
</svg>
