<svg width="67" height="76" viewBox="0 0 67 76" fill="none" xmlns="http://www.w3.org/2000/svg">
<rect x="9.5" y="0.000976562" width="48" height="48" rx="5" fill="#E7F4FF"/>
<g clip-path="url(#clip0_16927_12314)">
<path d="M22.5 22.001H44.5M24.5 16.001H42.5C43.6046 16.001 44.5 16.8964 44.5 18.001V30.001C44.5 31.1055 43.6046 32.001 42.5 32.001H24.5C23.3954 32.001 22.5 31.1055 22.5 30.001V18.001C22.5 16.8964 23.3954 16.001 24.5 16.001Z" stroke="#25435B" stroke-width="1.5" stroke-linecap="round" stroke-linejoin="round"/>
</g>
<path d="M1.40909 72.001V60.3646H5.34091C6.25379 60.3646 7 60.5294 7.57955 60.8589C8.16288 61.1847 8.5947 61.626 8.875 62.1828C9.1553 62.7396 9.29545 63.3608 9.29545 64.0464C9.29545 64.732 9.1553 65.3551 8.875 65.9157C8.59849 66.4764 8.17046 66.9233 7.59091 67.2567C7.01136 67.5862 6.26894 67.751 5.36364 67.751H2.54545V66.501H5.31818C5.94318 66.501 6.44508 66.393 6.82386 66.1771C7.20265 65.9612 7.47727 65.6695 7.64773 65.3021C7.82197 64.9309 7.90909 64.5123 7.90909 64.0464C7.90909 63.5805 7.82197 63.1639 7.64773 62.7964C7.47727 62.429 7.20076 62.1411 6.81818 61.9328C6.43561 61.7207 5.92803 61.6146 5.29545 61.6146H2.81818V72.001H1.40909ZM13.9517 72.2055C13.3987 72.2055 12.8968 72.1014 12.446 71.893C11.9953 71.6809 11.6373 71.376 11.3722 70.9782C11.107 70.5767 10.9744 70.0919 10.9744 69.5237C10.9744 69.0237 11.0729 68.6184 11.2699 68.3078C11.4669 67.9934 11.7301 67.7472 12.0597 67.5692C12.3892 67.3911 12.7528 67.2586 13.1506 67.1714C13.5521 67.0805 13.9555 67.0086 14.3608 66.9555C14.8911 66.8873 15.321 66.8362 15.6506 66.8021C15.9839 66.7642 16.2263 66.7017 16.3778 66.6146C16.5331 66.5275 16.6108 66.376 16.6108 66.1601V66.1146C16.6108 65.554 16.4574 65.1184 16.1506 64.8078C15.8475 64.4972 15.3873 64.3419 14.7699 64.3419C14.1297 64.3419 13.6278 64.482 13.2642 64.7623C12.9006 65.0426 12.6449 65.3419 12.4972 65.6601L11.2244 65.2055C11.4517 64.6752 11.7547 64.2623 12.1335 63.9669C12.5161 63.6676 12.9328 63.4593 13.3835 63.3419C13.8381 63.2207 14.285 63.1601 14.7244 63.1601C15.0047 63.1601 15.3267 63.1942 15.6903 63.2623C16.0578 63.3267 16.4119 63.4612 16.7528 63.6657C17.0975 63.8703 17.3835 64.179 17.6108 64.5919C17.8381 65.0048 17.9517 65.5578 17.9517 66.251V72.001H16.6108V70.8192H16.5426C16.4517 71.0086 16.3002 71.2112 16.0881 71.4271C15.8759 71.643 15.5938 71.8267 15.2415 71.9782C14.8892 72.1298 14.4593 72.2055 13.9517 72.2055ZM14.1562 71.001C14.6866 71.001 15.1335 70.8968 15.4972 70.6885C15.8646 70.4801 16.1411 70.2112 16.3267 69.8817C16.5161 69.5521 16.6108 69.2055 16.6108 68.8419V67.6146C16.554 67.6828 16.429 67.7453 16.2358 67.8021C16.0464 67.8551 15.8267 67.9025 15.5767 67.9442C15.3305 67.982 15.09 68.0161 14.8551 68.0464C14.6241 68.0729 14.4366 68.0957 14.2926 68.1146C13.9441 68.1601 13.6184 68.2339 13.3153 68.3362C13.0161 68.4347 12.7737 68.5843 12.5881 68.7851C12.4063 68.982 12.3153 69.251 12.3153 69.5919C12.3153 70.0578 12.4877 70.4101 12.8324 70.6487C13.1809 70.8836 13.6222 71.001 14.1562 71.001ZM20.9503 75.2737C20.723 75.2737 20.5204 75.2548 20.3423 75.2169C20.1643 75.1828 20.0412 75.1487 19.973 75.1146L20.3139 73.9328C20.6397 74.0161 20.9276 74.0464 21.1776 74.0237C21.4276 74.001 21.6491 73.8892 21.8423 73.6885C22.0393 73.4915 22.2192 73.1714 22.3821 72.7282L22.6321 72.0464L19.4048 63.2737H20.8594L23.2685 70.2282H23.3594L25.7685 63.2737H27.223L23.5185 73.2737C23.3518 73.7245 23.1454 74.0976 22.8991 74.393C22.6529 74.6923 22.367 74.9139 22.0412 75.0578C21.7192 75.2017 21.3556 75.2737 20.9503 75.2737ZM28.9929 72.001V63.2737H30.2884V64.6373H30.402C30.5838 64.1714 30.8774 63.8097 31.2827 63.5521C31.688 63.2907 32.1747 63.1601 32.7429 63.1601C33.3187 63.1601 33.7978 63.2907 34.1804 63.5521C34.5668 63.8097 34.8679 64.1714 35.0838 64.6373H35.1747C35.3982 64.1866 35.7334 63.8286 36.1804 63.5635C36.6274 63.2945 37.1634 63.1601 37.7884 63.1601C38.5687 63.1601 39.2069 63.4044 39.7031 63.893C40.1993 64.3779 40.4474 65.1336 40.4474 66.1601V72.001H39.1065V66.1601C39.1065 65.5161 38.9304 65.0559 38.5781 64.7794C38.2259 64.5029 37.8111 64.3646 37.3338 64.3646C36.7202 64.3646 36.2448 64.5502 35.9077 64.9214C35.5705 65.2889 35.402 65.7548 35.402 66.3192V72.001H34.0384V66.0237C34.0384 65.5275 33.8774 65.1279 33.5554 64.8248C33.2334 64.518 32.8187 64.3646 32.3111 64.3646C31.9626 64.3646 31.6368 64.4574 31.3338 64.643C31.0346 64.8286 30.7921 65.0862 30.6065 65.4157C30.4247 65.7415 30.3338 66.1184 30.3338 66.5464V72.001H28.9929ZM46.5582 72.1828C45.7173 72.1828 44.992 71.9972 44.3821 71.626C43.776 71.251 43.3082 70.7282 42.9787 70.0578C42.6529 69.3836 42.4901 68.5995 42.4901 67.7055C42.4901 66.8116 42.6529 66.0237 42.9787 65.3419C43.3082 64.6563 43.7666 64.1222 44.3537 63.7396C44.9446 63.3532 45.634 63.1601 46.4219 63.1601C46.8764 63.1601 47.3253 63.2358 47.7685 63.3873C48.2116 63.5389 48.6151 63.7851 48.9787 64.126C49.3423 64.4631 49.6321 64.9101 49.848 65.4669C50.0639 66.0237 50.1719 66.7093 50.1719 67.5237V68.0919H43.4446V66.9328H48.8082C48.8082 66.4404 48.7098 66.001 48.5128 65.6146C48.3196 65.2282 48.0431 64.9233 47.6832 64.6998C47.3272 64.4764 46.9067 64.3646 46.4219 64.3646C45.8878 64.3646 45.4257 64.4972 45.0355 64.7623C44.6491 65.0237 44.3518 65.3646 44.1435 65.7851C43.9351 66.2055 43.831 66.6563 43.831 67.1373V67.9101C43.831 68.5692 43.9446 69.1279 44.1719 69.5862C44.4029 70.0407 44.723 70.3873 45.1321 70.626C45.5412 70.8608 46.0166 70.9782 46.5582 70.9782C46.9105 70.9782 47.2287 70.929 47.5128 70.8305C47.8007 70.7282 48.0488 70.5767 48.2571 70.376C48.4654 70.1714 48.6264 69.9176 48.7401 69.6146L50.0355 69.9782C49.8991 70.4176 49.67 70.804 49.348 71.1373C49.026 71.4669 48.6283 71.7245 48.1548 71.9101C47.6813 72.0919 47.1491 72.1828 46.5582 72.1828ZM53.5526 66.751V72.001H52.2116V63.2737H53.5071V64.6373H53.6207C53.8253 64.1942 54.1359 63.8381 54.5526 63.5692C54.9692 63.2964 55.5071 63.1601 56.1662 63.1601C56.7571 63.1601 57.2741 63.2813 57.7173 63.5237C58.1605 63.7623 58.5052 64.126 58.7514 64.6146C58.9976 65.0995 59.1207 65.7131 59.1207 66.4555V72.001H57.7798V66.5464C57.7798 65.8608 57.6018 65.3267 57.2457 64.9442C56.8897 64.5578 56.401 64.3646 55.7798 64.3646C55.3518 64.3646 54.9692 64.4574 54.6321 64.643C54.2988 64.8286 54.0355 65.0995 53.8423 65.4555C53.6491 65.8116 53.5526 66.2434 53.5526 66.751ZM65.3665 63.2737V64.4101H60.8438V63.2737H65.3665ZM62.1619 61.1828H63.5028V69.501C63.5028 69.8798 63.5578 70.1639 63.6676 70.3532C63.7813 70.5389 63.9252 70.6639 64.0994 70.7282C64.2775 70.7889 64.465 70.8192 64.6619 70.8192C64.8097 70.8192 64.9309 70.8116 65.0256 70.7964C65.1203 70.7775 65.196 70.7623 65.2528 70.751L65.5256 71.9555C65.4347 71.9896 65.3078 72.0237 65.1449 72.0578C64.982 72.0957 64.7756 72.1146 64.5256 72.1146C64.1468 72.1146 63.7756 72.0332 63.4119 71.8703C63.0521 71.7074 62.7528 71.4593 62.5142 71.126C62.2794 70.7926 62.1619 70.3722 62.1619 69.8646V61.1828Z" fill="#090A0A"/>
<defs>
<clipPath id="clip0_16927_12314">
<rect width="24" height="24" fill="white" transform="translate(21.5 12.001)"/>
</clipPath>
</defs>
</svg>
