<svg width="60" height="60" viewBox="0 0 60 60" fill="none" xmlns="http://www.w3.org/2000/svg">
<path d="M45.1878 3.88477L55.6203 14.7598V56.1148H16.6484V56.2498H55.7534V14.8966L45.1878 3.88477Z" fill="#909090"/>
<path d="M45.0578 3.75H16.5146V56.115H55.6196V14.7619L45.0578 3.75Z" fill="#F4F4F4"/>
<path d="M16.2283 6.5625H4.24707V19.3631H41.9346V6.5625H16.2283Z" fill="#7A7B7C"/>
<path d="M42.1346 19.1455H4.49023V6.33545H42.1346V19.1455Z" fill="#DD2025"/>
<path d="M16.9721 8.50105H14.5215V17.501H16.449V14.4654L16.8746 14.4898C17.2882 14.4827 17.6979 14.4086 18.0877 14.2704C18.4296 14.1529 18.744 13.9672 19.0121 13.7248C19.2849 13.4938 19.5 13.2023 19.6402 12.8735C19.8283 12.327 19.8955 11.7461 19.8371 11.171C19.8254 10.7602 19.7534 10.3534 19.6234 9.96355C19.505 9.68212 19.3293 9.42842 19.1076 9.2186C18.8858 9.00877 18.6228 8.84741 18.3352 8.7448C18.0866 8.65479 17.8298 8.58948 17.5684 8.5498C17.3704 8.51925 17.1705 8.50296 16.9702 8.50105M16.6159 12.8023H16.449V10.0273H16.8109C16.9706 10.0158 17.1308 10.0403 17.2798 10.099C17.4288 10.1578 17.5626 10.2492 17.6715 10.3667C17.8971 10.6686 18.0176 11.0361 18.0146 11.4129C18.0146 11.8742 18.0146 12.2923 17.5984 12.5867C17.2985 12.7516 16.9572 12.8277 16.6159 12.8023ZM23.499 8.47667C23.2909 8.47667 23.0884 8.49167 22.9459 8.4973L22.4996 8.50855H21.0371V17.5085H22.7584C23.4162 17.5266 24.0711 17.4151 24.6859 17.1804C25.1807 16.9842 25.6189 16.6678 25.9609 16.2598C26.2934 15.8482 26.5321 15.3689 26.6602 14.8554C26.8075 14.2739 26.8794 13.6759 26.874 13.076C26.9104 12.3676 26.8555 11.6574 26.7109 10.9629C26.5736 10.4517 26.3165 9.98059 25.9609 9.58855C25.6818 9.27198 25.3403 9.01662 24.9577 8.83855C24.6292 8.68652 24.2836 8.57446 23.9284 8.5048C23.7871 8.48146 23.644 8.47079 23.5009 8.47292M23.1596 15.8548H22.9721V10.1098H22.9965C23.383 10.0653 23.7741 10.1351 24.1215 10.3104C24.3759 10.5135 24.5831 10.7694 24.729 11.0604C24.8864 11.3667 24.9771 11.7028 24.9952 12.0467C25.0121 12.4592 24.9952 12.7967 24.9952 13.076C25.0029 13.3979 24.9822 13.7197 24.9334 14.0379C24.8756 14.3646 24.7687 14.6807 24.6165 14.9754C24.4442 15.2495 24.2113 15.4804 23.9359 15.6504C23.7045 15.8 23.4306 15.8698 23.1559 15.8492M32.6809 8.50855H28.1246V17.5085H30.0521V13.9385H32.4896V12.266H30.0521V10.181H32.6771V8.50855" fill="#464648"/>
<path d="M40.8393 37.9783C40.8393 37.9783 46.8168 36.8946 46.8168 38.9365C46.8168 40.9783 43.1137 40.1477 40.8393 37.9783ZM36.4199 38.134C35.4702 38.3438 34.5447 38.651 33.658 39.0508L34.408 37.3633C35.158 35.6758 35.9362 33.3752 35.9362 33.3752C36.8311 34.8815 37.8724 36.2958 39.0449 37.5977C38.1607 37.7296 37.2844 37.9098 36.4199 38.1377V38.134ZM34.0537 25.9465C34.0537 24.1671 34.6293 23.6815 35.0774 23.6815C35.5255 23.6815 36.0299 23.8971 36.0468 25.4421C35.9008 26.9956 35.5755 28.5271 35.0774 30.0058C34.3951 28.7643 34.042 27.3687 34.0518 25.9521L34.0537 25.9465ZM25.3368 45.664C23.503 44.5671 29.1824 41.1902 30.2118 41.0815C30.2062 41.0833 27.2568 46.8115 25.3368 45.664ZM48.5624 39.1783C48.5437 38.9908 48.3749 36.9152 44.6812 37.0033C43.1415 36.9785 41.6027 37.087 40.0818 37.3277C38.6085 35.8435 37.3398 34.1693 36.3093 32.3496C36.9585 30.4735 37.3515 28.5183 37.4774 26.5371C37.423 24.2871 36.8849 22.9971 35.1599 23.0158C33.4349 23.0346 33.1837 24.544 33.4105 26.7902C33.6328 28.2997 34.052 29.7735 34.6574 31.174C34.6574 31.174 33.8605 33.6546 32.8068 36.1221C31.753 38.5896 31.033 39.8833 31.033 39.8833C29.2006 40.4798 27.4757 41.3661 25.9237 42.5083C24.3787 43.9465 23.7505 45.0508 24.5643 46.1552C25.2655 47.1077 27.7199 47.3233 29.9137 44.449C31.0793 42.9643 32.1441 41.4034 33.1012 39.7765C33.1012 39.7765 36.4462 38.8596 37.4868 38.6083C38.5274 38.3571 39.7855 38.1583 39.7855 38.1583C39.7855 38.1583 42.8399 41.2315 45.7855 41.1227C48.7312 41.014 48.5887 39.3621 48.5699 39.1821" fill="#DD2025"/>
<path d="M44.9141 3.89453V14.9064H55.4759L44.9141 3.89453Z" fill="#909090"/>
<path d="M45.0586 3.75V14.7619H55.6205L45.0586 3.75Z" fill="#F4F4F4"/>
<path d="M16.8286 8.357H14.3779V17.357H16.3129V14.3233L16.7404 14.3476C17.154 14.3405 17.5637 14.2664 17.9536 14.1283C18.2954 14.0106 18.6098 13.825 18.8779 13.5826C19.1487 13.351 19.3618 13.0596 19.5004 12.7314C19.6885 12.1848 19.7557 11.6039 19.6973 11.0289C19.6856 10.6181 19.6136 10.2112 19.4836 9.82138C19.3652 9.53995 19.1895 9.28625 18.9678 9.07643C18.746 8.8666 18.483 8.70524 18.1954 8.60263C17.9457 8.51175 17.6875 8.4458 17.4248 8.40575C17.2269 8.37521 17.027 8.35892 16.8267 8.357M16.4723 12.6583H16.3054V9.88325H16.6692C16.8289 9.87174 16.9892 9.89626 17.1381 9.955C17.2871 10.0137 17.4209 10.1052 17.5298 10.2226C17.7554 10.5245 17.8759 10.892 17.8729 11.2689C17.8729 11.7301 17.8729 12.1483 17.4567 12.4426C17.1568 12.6076 16.8155 12.6818 16.4742 12.6564M23.3554 8.33263C23.1473 8.33263 22.9448 8.34763 22.8023 8.35325L22.3617 8.3645H20.8992V17.3645H22.6204C23.2782 17.3825 23.9331 17.271 24.5479 17.0364C25.0428 16.8401 25.4809 16.5237 25.8229 16.1158C26.1555 15.7041 26.3942 15.2248 26.5223 14.7114C26.6696 14.1299 26.7414 13.5318 26.7361 12.932C26.7724 12.2235 26.7176 11.5134 26.5729 10.8189C26.4356 10.3077 26.1785 9.83655 25.8229 9.4445C25.5439 9.12793 25.2024 8.87257 24.8198 8.6945C24.4913 8.54247 24.1457 8.43042 23.7904 8.36075C23.6492 8.33742 23.5061 8.32675 23.3629 8.32888M23.0217 15.7108H22.8342V9.96575H22.8586C23.2451 9.92128 23.6362 9.99103 23.9836 10.1664C24.2379 10.3695 24.4452 10.6254 24.5911 10.9164C24.7485 11.2226 24.8392 11.5588 24.8573 11.9026C24.8742 12.3151 24.8573 12.6526 24.8573 12.932C24.8649 13.2538 24.8442 13.5757 24.7954 13.8939C24.7376 14.2206 24.6308 14.5366 24.4786 14.8314C24.3062 15.1054 24.0734 15.3363 23.7979 15.5064C23.5666 15.656 23.2927 15.7258 23.0179 15.7051M32.5373 8.3645H27.9811V17.3645H29.9086V13.7945H32.3461V12.122H29.9086V10.037H32.5336V8.3645" fill="white"/>
</svg>
