<svg width="44" height="44" viewBox="0 0 44 44" fill="none" xmlns="http://www.w3.org/2000/svg">
<path id="Vector" d="M22 0C9.856 0 0 9.856 0 22C0 34.144 9.856 44 22 44C34.144 44 44 34.144 44 22C44 9.856 34.144 0 22 0ZM11 25.3C9.174 25.3 7.7 23.826 7.7 22C7.7 20.174 9.174 18.7 11 18.7C12.826 18.7 14.3 20.174 14.3 22C14.3 23.826 12.826 25.3 11 25.3ZM22 25.3C20.174 25.3 18.7 23.826 18.7 22C18.7 20.174 20.174 18.7 22 18.7C23.826 18.7 25.3 20.174 25.3 22C25.3 23.826 23.826 25.3 22 25.3ZM33 25.3C31.174 25.3 29.7 23.826 29.7 22C29.7 20.174 31.174 18.7 33 18.7C34.826 18.7 36.3 20.174 36.3 22C36.3 23.826 34.826 25.3 33 25.3Z" fill="#FFB323"/>
</svg>
