<svg width="80" height="92" viewBox="0 0 80 92" fill="none" xmlns="http://www.w3.org/2000/svg">
<rect x="18" width="44" height="44" rx="5" fill="#E7F4FF"/>
<path d="M37.0588 12H41.7646V17H37.0588V12ZM30 27H34.7058V32H30V27ZM30 19.5H34.7058V24.5H30V19.5ZM30 12H34.7058V17H30V12ZM41.7646 22.525V19.5H37.0588V24.5H39.9058L41.7646 22.525ZM49.8586 21.1125L48.4822 19.65C48.4374 19.6024 48.3842 19.5646 48.3256 19.5388C48.2671 19.5131 48.2044 19.4998 48.141 19.4998C48.0776 19.4998 48.0149 19.5131 47.9563 19.5388C47.8978 19.5646 47.8446 19.6024 47.7998 19.65L46.7645 20.75L48.8233 22.9375L49.8586 21.8375C49.9034 21.7899 49.939 21.7334 49.9633 21.6712C49.9875 21.609 50 21.5423 50 21.475C50 21.4077 49.9875 21.341 49.9633 21.2788C49.939 21.2166 49.9034 21.1601 49.8586 21.1125ZM38.2352 29.8125V32H40.294L48.141 23.6625L46.0822 21.475L38.2352 29.8125ZM44.1175 12H48.8233V17H44.1175V12Z" fill="#25435B"/>
<path d="M23.7845 60H22.5516C22.4787 59.6454 22.3511 59.3338 22.1688 59.0653C21.9898 58.7969 21.771 58.5715 21.5125 58.3892C21.2573 58.2036 20.9739 58.0644 20.6624 57.9716C20.3508 57.8788 20.026 57.8324 19.6879 57.8324C19.0715 57.8324 18.513 57.9882 18.0125 58.2997C17.5154 58.6113 17.1193 59.0703 16.8243 59.6768C16.5326 60.2834 16.3868 61.0275 16.3868 61.9091C16.3868 62.7907 16.5326 63.5348 16.8243 64.1413C17.1193 64.7479 17.5154 65.2069 18.0125 65.5185C18.513 65.83 19.0715 65.9858 19.6879 65.9858C20.026 65.9858 20.3508 65.9394 20.6624 65.8466C20.9739 65.7538 21.2573 65.6162 21.5125 65.4339C21.771 65.2483 21.9898 65.0213 22.1688 64.7528C22.3511 64.4811 22.4787 64.1695 22.5516 63.8182H23.7845C23.6917 64.3385 23.5227 64.8042 23.2774 65.2152C23.0322 65.6262 22.7272 65.9759 22.3627 66.2642C21.9981 66.5492 21.5887 66.7663 21.1347 66.9155C20.6839 67.0646 20.2017 67.1392 19.6879 67.1392C18.8196 67.1392 18.0473 66.9271 17.3712 66.5028C16.695 66.0786 16.1631 65.4754 15.7753 64.6932C15.3875 63.911 15.1936 62.983 15.1936 61.9091C15.1936 60.8352 15.3875 59.9072 15.7753 59.125C16.1631 58.3428 16.695 57.7396 17.3712 57.3153C18.0473 56.8911 18.8196 56.679 19.6879 56.679C20.2017 56.679 20.6839 56.7536 21.1347 56.9027C21.5887 57.0518 21.9981 57.2706 22.3627 57.5589C22.7272 57.844 23.0322 58.192 23.2774 58.603C23.5227 59.0107 23.6917 59.4763 23.7845 60ZM28.7201 67.1591C28.0307 67.1591 27.4258 66.995 26.9055 66.6669C26.3884 66.3388 25.984 65.8797 25.6924 65.2898C25.404 64.6998 25.2599 64.0104 25.2599 63.2216C25.2599 62.4261 25.404 61.7318 25.6924 61.1385C25.984 60.5452 26.3884 60.0845 26.9055 59.7564C27.4258 59.4283 28.0307 59.2642 28.7201 59.2642C29.4095 59.2642 30.0127 59.4283 30.5297 59.7564C31.0501 60.0845 31.4545 60.5452 31.7428 61.1385C32.0345 61.7318 32.1803 62.4261 32.1803 63.2216C32.1803 64.0104 32.0345 64.6998 31.7428 65.2898C31.4545 65.8797 31.0501 66.3388 30.5297 66.6669C30.0127 66.995 29.4095 67.1591 28.7201 67.1591ZM28.7201 66.1051C29.2438 66.1051 29.6746 65.9709 30.0127 65.7024C30.3508 65.4339 30.601 65.081 30.7634 64.6435C30.9258 64.206 31.007 63.732 31.007 63.2216C31.007 62.7112 30.9258 62.2356 30.7634 61.7947C30.601 61.3539 30.3508 60.9976 30.0127 60.7259C29.6746 60.4541 29.2438 60.3182 28.7201 60.3182C28.1964 60.3182 27.7655 60.4541 27.4275 60.7259C27.0894 60.9976 26.8392 61.3539 26.6768 61.7947C26.5144 62.2356 26.4331 62.7112 26.4331 63.2216C26.4331 63.732 26.5144 64.206 26.6768 64.6435C26.8392 65.081 27.0894 65.4339 27.4275 65.7024C27.7655 65.9709 28.1964 66.1051 28.7201 66.1051ZM38.7838 63.8778V59.3636H39.9571V67H38.7838V65.7074H38.7043C38.5253 66.0952 38.2469 66.425 37.8691 66.6967C37.4912 66.9652 37.0139 67.0994 36.4372 67.0994C35.96 67.0994 35.5357 66.995 35.1645 66.7862C34.7933 66.5741 34.5016 66.2559 34.2895 65.8317C34.0774 65.4041 33.9713 64.8655 33.9713 64.2159V59.3636H35.1446V64.1364C35.1446 64.6932 35.3004 65.1373 35.6119 65.4688C35.9268 65.8002 36.3279 65.9659 36.8151 65.9659C37.1067 65.9659 37.4034 65.8913 37.705 65.7422C38.0099 65.593 38.2651 65.3643 38.4706 65.0561C38.6794 64.7479 38.7838 64.3551 38.7838 63.8778ZM42.1061 67V59.3636H43.2396V60.517H43.3192C43.4584 60.1392 43.7103 59.8326 44.0748 59.5973C44.4394 59.362 44.8504 59.2443 45.3078 59.2443C45.394 59.2443 45.5017 59.246 45.6309 59.2493C45.7602 59.2526 45.858 59.2576 45.9243 59.2642V60.4574C45.8845 60.4474 45.7934 60.4325 45.6508 60.4126C45.5116 60.3894 45.3641 60.3778 45.2084 60.3778C44.8372 60.3778 44.5057 60.4557 44.214 60.6115C43.9257 60.764 43.697 60.9761 43.528 61.2479C43.3622 61.5163 43.2794 61.8229 43.2794 62.1676V67H42.1061ZM52.7242 61.0739L51.6702 61.3722C51.6039 61.1965 51.5061 61.0258 51.3769 60.8601C51.2509 60.6911 51.0786 60.5518 50.8598 60.4425C50.6411 60.3331 50.361 60.2784 50.0196 60.2784C49.5523 60.2784 49.1628 60.3861 48.8513 60.6016C48.5431 60.8137 48.3889 61.0838 48.3889 61.4119C48.3889 61.7036 48.495 61.9339 48.7071 62.103C48.9192 62.272 49.2507 62.4129 49.7014 62.5256L50.835 62.804C51.5177 62.9697 52.0265 63.2232 52.3612 63.5646C52.696 63.9027 52.8634 64.3385 52.8634 64.8722C52.8634 65.3097 52.7374 65.7008 52.4855 66.0455C52.2369 66.3902 51.8889 66.6619 51.4415 66.8608C50.9941 67.0597 50.4737 67.1591 49.8804 67.1591C49.1015 67.1591 48.4569 66.9901 47.9465 66.652C47.436 66.3139 47.1129 65.8201 46.977 65.1705L48.0906 64.892C48.1967 65.303 48.3972 65.6113 48.6922 65.8168C48.9905 66.0223 49.3799 66.125 49.8605 66.125C50.4074 66.125 50.8416 66.009 51.1631 65.777C51.4879 65.5417 51.6503 65.2599 51.6503 64.9318C51.6503 64.6667 51.5575 64.4446 51.3719 64.2656C51.1863 64.0833 50.9012 63.9474 50.5168 63.858L49.2441 63.5597C48.5447 63.3939 48.031 63.1371 47.7029 62.7891C47.378 62.4377 47.2156 61.9986 47.2156 61.4716C47.2156 61.0407 47.3366 60.6596 47.5786 60.3281C47.8238 59.9967 48.1569 59.7365 48.5779 59.5476C49.0021 59.3587 49.4827 59.2642 50.0196 59.2642C50.7753 59.2642 51.3686 59.4299 51.7994 59.7614C52.2336 60.0928 52.5419 60.5303 52.7242 61.0739ZM57.8312 67.1591C57.0954 67.1591 56.4607 66.9967 55.9271 66.6719C55.3968 66.3438 54.9875 65.8864 54.6991 65.2997C54.4141 64.7098 54.2716 64.0237 54.2716 63.2415C54.2716 62.4593 54.4141 61.7699 54.6991 61.1733C54.9875 60.5734 55.3885 60.1061 55.9023 59.7713C56.4193 59.4332 57.0225 59.2642 57.7119 59.2642C58.1096 59.2642 58.5024 59.3305 58.8902 59.4631C59.278 59.5956 59.6309 59.8111 59.9491 60.1094C60.2673 60.4044 60.5209 60.7955 60.7098 61.2827C60.8987 61.7699 60.9932 62.3698 60.9932 63.0824V63.5795H55.1068V62.5653H59.8C59.8 62.1345 59.7138 61.75 59.5415 61.4119C59.3724 61.0739 59.1305 60.8071 58.8156 60.6115C58.5041 60.416 58.1362 60.3182 57.7119 60.3182C57.2446 60.3182 56.8402 60.4342 56.4988 60.6662C56.1608 60.8949 55.9006 61.1932 55.7183 61.5611C55.536 61.929 55.4449 62.3234 55.4449 62.7443V63.4205C55.4449 63.9972 55.5443 64.486 55.7432 64.8871C55.9453 65.2848 56.2254 65.5881 56.5834 65.7969C56.9413 66.0024 57.3573 66.1051 57.8312 66.1051C58.1395 66.1051 58.4179 66.062 58.6665 65.9759C58.9184 65.8864 59.1354 65.7538 59.3177 65.5781C59.5 65.3991 59.6409 65.1771 59.7403 64.9119L60.8738 65.2301C60.7545 65.6146 60.554 65.9527 60.2723 66.2443C59.9906 66.5327 59.6425 66.758 59.2282 66.9205C58.814 67.0795 58.3483 67.1591 57.8312 67.1591ZM1.57085 87V76.8182H5.01119C5.80664 76.8182 6.45958 76.9541 6.96999 77.2259C7.48041 77.4943 7.85825 77.8639 8.10352 78.3345C8.34878 78.8052 8.47141 79.3404 8.47141 79.9403C8.47141 80.5402 8.34878 81.0722 8.10352 81.5362C7.85825 82.0002 7.48207 82.3648 6.97496 82.63C6.46786 82.8918 5.8199 83.0227 5.03107 83.0227H2.24698V81.9091H4.9913C5.53486 81.9091 5.97236 81.8295 6.3038 81.6705C6.63855 81.5114 6.8805 81.286 7.02965 80.9943C7.18211 80.6993 7.25835 80.348 7.25835 79.9403C7.25835 79.5327 7.18211 79.1764 7.02965 78.8714C6.87719 78.5665 6.63358 78.3312 6.29883 78.1655C5.96407 77.9964 5.5216 77.9119 4.97141 77.9119H2.8038V87H1.57085ZM6.36346 82.4261L8.86914 87H7.43732L4.97141 82.4261H6.36346ZM13.4865 87.1591C12.7507 87.1591 12.116 86.9967 11.5824 86.6719C11.0521 86.3438 10.6428 85.8864 10.3544 85.2997C10.0694 84.7098 9.92685 84.0237 9.92685 83.2415C9.92685 82.4593 10.0694 81.7699 10.3544 81.1733C10.6428 80.5734 11.0438 80.1061 11.5575 79.7713C12.0746 79.4332 12.6778 79.2642 13.3672 79.2642C13.7649 79.2642 14.1577 79.3305 14.5455 79.4631C14.9332 79.5956 15.2862 79.8111 15.6044 80.1094C15.9226 80.4044 16.1761 80.7955 16.3651 81.2827C16.554 81.7699 16.6484 82.3698 16.6484 83.0824V83.5795H10.7621V82.5653H15.4553C15.4553 82.1345 15.3691 81.75 15.1967 81.4119C15.0277 81.0739 14.7857 80.8071 14.4709 80.6115C14.1593 80.416 13.7914 80.3182 13.3672 80.3182C12.8999 80.3182 12.4955 80.4342 12.1541 80.6662C11.8161 80.8949 11.5559 81.1932 11.3736 81.5611C11.1913 81.929 11.1001 82.3234 11.1001 82.7443V83.4205C11.1001 83.9972 11.1996 84.486 11.3984 84.8871C11.6006 85.2848 11.8807 85.5881 12.2386 85.7969C12.5966 86.0024 13.0125 86.1051 13.4865 86.1051C13.7947 86.1051 14.0732 86.062 14.3217 85.9759C14.5736 85.8864 14.7907 85.7538 14.973 85.5781C15.1553 85.3991 15.2962 85.1771 15.3956 84.9119L16.5291 85.2301C16.4098 85.6146 16.2093 85.9527 15.9276 86.2443C15.6458 86.5327 15.2978 86.758 14.8835 86.9205C14.4692 87.0795 14.0036 87.1591 13.4865 87.1591ZM21.5156 90.0227C20.9489 90.0227 20.4616 89.9498 20.054 89.804C19.6463 89.6615 19.3066 89.4725 19.0348 89.2372C18.7663 89.0052 18.5526 88.7566 18.3935 88.4915L19.3281 87.8352C19.4342 87.9744 19.5684 88.1335 19.7308 88.3125C19.8932 88.4948 20.1153 88.6522 20.397 88.7848C20.6821 88.9207 21.0549 88.9886 21.5156 88.9886C22.1321 88.9886 22.6409 88.8395 23.0419 88.5412C23.4429 88.2429 23.6435 87.7756 23.6435 87.1392V85.5881H23.544C23.4579 85.7273 23.3352 85.8996 23.1761 86.1051C23.0204 86.3073 22.795 86.4879 22.5 86.647C22.2083 86.8028 21.8139 86.8807 21.3168 86.8807C20.7003 86.8807 20.1468 86.7348 19.6562 86.4432C19.169 86.1515 18.7829 85.7273 18.4979 85.1705C18.2161 84.6136 18.0753 83.9375 18.0753 83.142C18.0753 82.3598 18.2128 81.6787 18.4879 81.0987C18.763 80.5154 19.1458 80.0646 19.6364 79.7464C20.1269 79.425 20.6937 79.2642 21.3366 79.2642C21.8338 79.2642 22.2282 79.3471 22.5199 79.5128C22.8149 79.6752 23.0402 79.8608 23.196 80.0696C23.3551 80.2751 23.4777 80.4441 23.5639 80.5767H23.6832V79.3636H24.8168V87.2188C24.8168 87.875 24.6676 88.4086 24.3693 88.8196C24.0743 89.2339 23.6766 89.5372 23.1761 89.7294C22.679 89.925 22.1255 90.0227 21.5156 90.0227ZM21.4759 85.8267C21.9465 85.8267 22.3442 85.719 22.669 85.5036C22.9938 85.2881 23.2408 84.9782 23.4098 84.5739C23.5788 84.1695 23.6634 83.6856 23.6634 83.1222C23.6634 82.572 23.5805 82.0864 23.4148 81.6655C23.2491 81.2446 23.0038 80.9148 22.679 80.6761C22.3542 80.4375 21.9531 80.3182 21.4759 80.3182C20.9787 80.3182 20.5644 80.4441 20.233 80.696C19.9048 80.9479 19.6579 81.286 19.4922 81.7102C19.3298 82.1345 19.2486 82.6051 19.2486 83.1222C19.2486 83.6525 19.3314 84.1214 19.4972 84.5291C19.6662 84.9335 19.9148 85.2517 20.2429 85.4837C20.5743 85.7124 20.9853 85.8267 21.4759 85.8267ZM26.9645 87V79.3636H28.1378V87H26.9645ZM27.5611 78.0909C27.3324 78.0909 27.1352 78.013 26.9695 77.8572C26.8071 77.7015 26.7259 77.5142 26.7259 77.2955C26.7259 77.0767 26.8071 76.8894 26.9695 76.7337C27.1352 76.5779 27.3324 76.5 27.5611 76.5C27.7898 76.5 27.9853 76.5779 28.1477 76.7337C28.3134 76.8894 28.3963 77.0767 28.3963 77.2955C28.3963 77.5142 28.3134 77.7015 28.1477 77.8572C27.9853 78.013 27.7898 78.0909 27.5611 78.0909ZM35.6958 81.0739L34.6419 81.3722C34.5756 81.1965 34.4778 81.0258 34.3485 80.8601C34.2226 80.6911 34.0502 80.5518 33.8315 80.4425C33.6127 80.3331 33.3327 80.2784 32.9913 80.2784C32.524 80.2784 32.1345 80.3861 31.823 80.6016C31.5147 80.8137 31.3606 81.0838 31.3606 81.4119C31.3606 81.7036 31.4667 81.9339 31.6788 82.103C31.8909 82.272 32.2224 82.4129 32.6731 82.5256L33.8066 82.804C34.4894 82.9697 34.9982 83.2232 35.3329 83.5646C35.6677 83.9027 35.835 84.3385 35.835 84.8722C35.835 85.3097 35.7091 85.7008 35.4572 86.0455C35.2086 86.3902 34.8606 86.6619 34.4132 86.8608C33.9657 87.0597 33.4454 87.1591 32.8521 87.1591C32.0732 87.1591 31.4286 86.9901 30.9181 86.652C30.4077 86.3139 30.0846 85.8201 29.9487 85.1705L31.0623 84.892C31.1684 85.303 31.3689 85.6113 31.6639 85.8168C31.9622 86.0223 32.3516 86.125 32.8322 86.125C33.3791 86.125 33.8133 86.009 34.1348 85.777C34.4596 85.5417 34.622 85.2599 34.622 84.9318C34.622 84.6667 34.5292 84.4446 34.3436 84.2656C34.158 84.0833 33.8729 83.9474 33.4885 83.858L32.2157 83.5597C31.5164 83.3939 31.0027 83.1371 30.6745 82.7891C30.3497 82.4377 30.1873 81.9986 30.1873 81.4716C30.1873 81.0407 30.3083 80.6596 30.5502 80.3281C30.7955 79.9967 31.1286 79.7365 31.5495 79.5476C31.9738 79.3587 32.4544 79.2642 32.9913 79.2642C33.747 79.2642 34.3403 79.4299 34.7711 79.7614C35.2053 80.0928 35.5136 80.5303 35.6958 81.0739ZM40.9222 79.3636V80.358H36.9648V79.3636H40.9222ZM38.1183 77.5341H39.2915V84.8125C39.2915 85.1439 39.3396 85.3925 39.4357 85.5582C39.5352 85.7206 39.6611 85.83 39.8136 85.8864C39.9693 85.9394 40.1334 85.9659 40.3058 85.9659C40.435 85.9659 40.5411 85.9593 40.6239 85.946C40.7068 85.9295 40.7731 85.9162 40.8228 85.9062L41.0614 86.9602C40.9819 86.9901 40.8709 87.0199 40.7283 87.0497C40.5858 87.0829 40.4052 87.0994 40.1864 87.0994C39.855 87.0994 39.5302 87.0282 39.212 86.8857C38.8971 86.7431 38.6353 86.526 38.4265 86.2344C38.221 85.9427 38.1183 85.5748 38.1183 85.1307V77.5341ZM42.6871 87V79.3636H43.8207V80.517H43.9002C44.0394 80.1392 44.2913 79.8326 44.6559 79.5973C45.0205 79.362 45.4315 79.2443 45.8888 79.2443C45.975 79.2443 46.0827 79.246 46.212 79.2493C46.3413 79.2526 46.439 79.2576 46.5053 79.2642V80.4574C46.4656 80.4474 46.3744 80.4325 46.2319 80.4126C46.0927 80.3894 45.9452 80.3778 45.7894 80.3778C45.4182 80.3778 45.0868 80.4557 44.7951 80.6115C44.5067 80.764 44.2781 80.9761 44.109 81.2479C43.9433 81.5163 43.8604 81.8229 43.8604 82.1676V87H42.6871ZM50.1433 87.179C49.6594 87.179 49.2202 87.0878 48.8258 86.9055C48.4314 86.7199 48.1182 86.4531 47.8862 86.1051C47.6542 85.7538 47.5382 85.3295 47.5382 84.8324C47.5382 84.3949 47.6243 84.0402 47.7967 83.7685C47.969 83.4934 48.1994 83.2779 48.4877 83.1222C48.7761 82.9664 49.0943 82.8504 49.4423 82.7741C49.7936 82.6946 50.1466 82.6316 50.5012 82.5852C50.9653 82.5256 51.3414 82.4808 51.6298 82.451C51.9215 82.4179 52.1336 82.3632 52.2662 82.2869C52.402 82.2107 52.47 82.0781 52.47 81.8892V81.8494C52.47 81.3589 52.3358 80.9777 52.0673 80.706C51.8021 80.4342 51.3994 80.2983 50.8592 80.2983C50.2991 80.2983 49.8599 80.4209 49.5417 80.6662C49.2235 80.9115 48.9998 81.1733 48.8706 81.4517L47.7569 81.054C47.9558 80.59 48.2209 80.2287 48.5524 79.9702C48.8871 79.7083 49.2517 79.526 49.6461 79.4233C50.0439 79.3172 50.435 79.2642 50.8194 79.2642C51.0647 79.2642 51.3464 79.294 51.6646 79.3537C51.9861 79.41 52.296 79.5277 52.5943 79.7067C52.8959 79.8857 53.1461 80.1558 53.345 80.517C53.5439 80.8783 53.6433 81.3622 53.6433 81.9688V87H52.47V85.9659H52.4103C52.3308 86.1316 52.1982 86.3089 52.0126 86.4979C51.827 86.6868 51.5801 86.8475 51.2718 86.9801C50.9636 87.1127 50.5874 87.179 50.1433 87.179ZM50.3223 86.125C50.7863 86.125 51.1774 86.0339 51.4956 85.8516C51.8171 85.6693 52.059 85.4339 52.2214 85.1456C52.3871 84.8572 52.47 84.554 52.47 84.2358V83.1619C52.4203 83.2216 52.3109 83.2763 52.1419 83.326C51.9761 83.3724 51.7839 83.4138 51.5652 83.4503C51.3497 83.4834 51.1393 83.5133 50.9338 83.5398C50.7316 83.563 50.5675 83.5829 50.4416 83.5994C50.1367 83.6392 49.8516 83.7038 49.5865 83.7933C49.3246 83.8795 49.1125 84.0104 48.9501 84.1861C48.791 84.3584 48.7115 84.5937 48.7115 84.892C48.7115 85.2997 48.8623 85.608 49.1639 85.8168C49.4688 86.0223 49.8549 86.125 50.3223 86.125ZM59.1058 79.3636V80.358H55.1484V79.3636H59.1058ZM56.3018 77.5341H57.4751V84.8125C57.4751 85.1439 57.5232 85.3925 57.6193 85.5582C57.7188 85.7206 57.8447 85.83 57.9972 85.8864C58.1529 85.9394 58.317 85.9659 58.4893 85.9659C58.6186 85.9659 58.7247 85.9593 58.8075 85.946C58.8904 85.9295 58.9567 85.9162 59.0064 85.9062L59.245 86.9602C59.1655 86.9901 59.0545 87.0199 58.9119 87.0497C58.7694 87.0829 58.5888 87.0994 58.37 87.0994C58.0386 87.0994 57.7138 87.0282 57.3956 86.8857C57.0807 86.7431 56.8189 86.526 56.6101 86.2344C56.4046 85.9427 56.3018 85.5748 56.3018 85.1307V77.5341ZM60.8707 87V79.3636H62.044V87H60.8707ZM61.4673 78.0909C61.2386 78.0909 61.0414 78.013 60.8757 77.8572C60.7133 77.7015 60.6321 77.5142 60.6321 77.2955C60.6321 77.0767 60.7133 76.8894 60.8757 76.7337C61.0414 76.5779 61.2386 76.5 61.4673 76.5C61.696 76.5 61.8916 76.5779 62.054 76.7337C62.2197 76.8894 62.3026 77.0767 62.3026 77.2955C62.3026 77.5142 62.2197 77.7015 62.054 77.8572C61.8916 78.013 61.696 78.0909 61.4673 78.0909ZM67.2953 87.1591C66.6059 87.1591 66.001 86.995 65.4806 86.6669C64.9636 86.3388 64.5592 85.8797 64.2676 85.2898C63.9792 84.6998 63.835 84.0104 63.835 83.2216C63.835 82.4261 63.9792 81.7318 64.2676 81.1385C64.5592 80.5452 64.9636 80.0845 65.4806 79.7564C66.001 79.4283 66.6059 79.2642 67.2953 79.2642C67.9847 79.2642 68.5879 79.4283 69.1049 79.7564C69.6253 80.0845 70.0297 80.5452 70.318 81.1385C70.6097 81.7318 70.7555 82.4261 70.7555 83.2216C70.7555 84.0104 70.6097 84.6998 70.318 85.2898C70.0297 85.8797 69.6253 86.3388 69.1049 86.6669C68.5879 86.995 67.9847 87.1591 67.2953 87.1591ZM67.2953 86.1051C67.819 86.1051 68.2498 85.9709 68.5879 85.7024C68.926 85.4339 69.1762 85.081 69.3386 84.6435C69.501 84.206 69.5822 83.732 69.5822 83.2216C69.5822 82.7112 69.501 82.2356 69.3386 81.7947C69.1762 81.3539 68.926 80.9976 68.5879 80.7259C68.2498 80.4541 67.819 80.3182 67.2953 80.3182C66.7716 80.3182 66.3407 80.4541 66.0027 80.7259C65.6646 80.9976 65.4144 81.3539 65.252 81.7947C65.0895 82.2356 65.0083 82.7112 65.0083 83.2216C65.0083 83.732 65.0895 84.206 65.252 84.6435C65.4144 85.081 65.6646 85.4339 66.0027 85.7024C66.3407 85.9709 66.7716 86.1051 67.2953 86.1051ZM73.7198 82.4062V87H72.5465V79.3636H73.68V80.5568H73.7795C73.9585 80.169 74.2302 79.8575 74.5948 79.6222C74.9594 79.3835 75.43 79.2642 76.0067 79.2642C76.5238 79.2642 76.9762 79.3703 77.364 79.5824C77.7518 79.7912 78.0534 80.1094 78.2688 80.5369C78.4843 80.9612 78.592 81.4981 78.592 82.1477V87H77.4187V82.2273C77.4187 81.6274 77.2629 81.16 76.9513 80.8253C76.6398 80.4872 76.2122 80.3182 75.6687 80.3182C75.2942 80.3182 74.9594 80.3994 74.6644 80.5618C74.3728 80.7242 74.1424 80.9612 73.9734 81.2727C73.8043 81.5843 73.7198 81.9621 73.7198 82.4062Z" fill="#090A0A"/>
</svg>
