<svg width="74" height="96" viewBox="0 0 74 96" fill="none" xmlns="http://www.w3.org/2000/svg">
<rect x="13" width="48" height="48" rx="5" fill="#E7F4FF"/>
<path fill-rule="evenodd" clip-rule="evenodd" d="M25 12V36H38.7143V25.7143H49V12H25ZM35.2857 15.4286H28.4286V22.2857H35.2857V15.4286ZM35.2857 25.7143H28.4286V32.5714H35.2857V25.7143ZM38.7143 22.2857H45.5714V15.4286H38.7143V22.2857Z" fill="#25435B"/>
<path d="M10.6278 72V60.3636H14.5597C15.4688 60.3636 16.215 60.5189 16.7983 60.8295C17.3816 61.1364 17.8134 61.5587 18.0938 62.0966C18.3741 62.6345 18.5142 63.2462 18.5142 63.9318C18.5142 64.6174 18.3741 65.2254 18.0938 65.7557C17.8134 66.286 17.3835 66.7027 16.804 67.0057C16.2244 67.3049 15.4839 67.4545 14.5824 67.4545H11.4006V66.1818H14.5369C15.1581 66.1818 15.6581 66.0909 16.0369 65.9091C16.4195 65.7273 16.696 65.4697 16.8665 65.1364C17.0407 64.7992 17.1278 64.3977 17.1278 63.9318C17.1278 63.4659 17.0407 63.0587 16.8665 62.7102C16.6922 62.3617 16.4138 62.0928 16.0312 61.9034C15.6487 61.7102 15.143 61.6136 14.5142 61.6136H12.0369V72H10.6278ZM16.1051 66.7727L18.9688 72H17.3324L14.5142 66.7727H16.1051ZM24.2457 72.1818C23.4048 72.1818 22.6795 71.9962 22.0696 71.625C21.4635 71.25 20.9957 70.7273 20.6662 70.0568C20.3404 69.3826 20.1776 68.5985 20.1776 67.7045C20.1776 66.8106 20.3404 66.0227 20.6662 65.3409C20.9957 64.6553 21.4541 64.1212 22.0412 63.7386C22.6321 63.3523 23.3215 63.1591 24.1094 63.1591C24.5639 63.1591 25.0128 63.2348 25.456 63.3864C25.8991 63.5379 26.3026 63.7841 26.6662 64.125C27.0298 64.4621 27.3196 64.9091 27.5355 65.4659C27.7514 66.0227 27.8594 66.7083 27.8594 67.5227V68.0909H21.1321V66.9318H26.4957C26.4957 66.4394 26.3973 66 26.2003 65.6136C26.0071 65.2273 25.7306 64.9223 25.3707 64.6989C25.0147 64.4754 24.5942 64.3636 24.1094 64.3636C23.5753 64.3636 23.1132 64.4962 22.723 64.7614C22.3366 65.0227 22.0393 65.3636 21.831 65.7841C21.6226 66.2045 21.5185 66.6553 21.5185 67.1364V67.9091C21.5185 68.5682 21.6321 69.1269 21.8594 69.5852C22.0904 70.0398 22.4105 70.3864 22.8196 70.625C23.2287 70.8598 23.7041 70.9773 24.2457 70.9773C24.598 70.9773 24.9162 70.928 25.2003 70.8295C25.4882 70.7273 25.7363 70.5758 25.9446 70.375C26.1529 70.1705 26.3139 69.9167 26.4276 69.6136L27.723 69.9773C27.5866 70.4167 27.3575 70.803 27.0355 71.1364C26.7135 71.4659 26.3158 71.7235 25.8423 71.9091C25.3688 72.0909 24.8366 72.1818 24.2457 72.1818ZM29.8991 75.2727V63.2727H31.1946V64.6591H31.3537C31.4522 64.5076 31.5885 64.3144 31.7628 64.0795C31.9408 63.8409 32.1946 63.6288 32.5241 63.4432C32.8575 63.2538 33.3082 63.1591 33.8764 63.1591C34.6113 63.1591 35.259 63.3428 35.8196 63.7102C36.3802 64.0777 36.8177 64.5985 37.1321 65.2727C37.4465 65.947 37.6037 66.7424 37.6037 67.6591C37.6037 68.5833 37.4465 69.3845 37.1321 70.0625C36.8177 70.7367 36.3821 71.2595 35.8253 71.6307C35.2685 71.9981 34.6264 72.1818 33.8991 72.1818C33.3385 72.1818 32.8897 72.089 32.5526 71.9034C32.2154 71.714 31.956 71.5 31.7741 71.2614C31.5923 71.0189 31.4522 70.8182 31.3537 70.6591H31.2401V75.2727H29.8991ZM31.2173 67.6364C31.2173 68.2955 31.3139 68.8769 31.5071 69.3807C31.7003 69.8807 31.9825 70.2727 32.3537 70.5568C32.7249 70.8371 33.1795 70.9773 33.7173 70.9773C34.2779 70.9773 34.7457 70.8295 35.1207 70.5341C35.4995 70.2348 35.7836 69.8333 35.973 69.3295C36.1662 68.822 36.2628 68.2576 36.2628 67.6364C36.2628 67.0227 36.1681 66.4697 35.9787 65.9773C35.7931 65.4811 35.5109 65.089 35.1321 64.8011C34.7571 64.5095 34.2855 64.3636 33.7173 64.3636C33.1719 64.3636 32.7135 64.5019 32.3423 64.7784C31.9711 65.0511 31.6908 65.4337 31.5014 65.9261C31.312 66.4148 31.2173 66.9848 31.2173 67.6364ZM43.1946 72.1818C42.4067 72.1818 41.7154 71.9943 41.1207 71.6193C40.5298 71.2443 40.0677 70.7197 39.7344 70.0455C39.4048 69.3712 39.2401 68.5833 39.2401 67.6818C39.2401 66.7727 39.4048 65.9792 39.7344 65.3011C40.0677 64.6231 40.5298 64.0966 41.1207 63.7216C41.7154 63.3466 42.4067 63.1591 43.1946 63.1591C43.9825 63.1591 44.6719 63.3466 45.2628 63.7216C45.8575 64.0966 46.3196 64.6231 46.6491 65.3011C46.9825 65.9792 47.1491 66.7727 47.1491 67.6818C47.1491 68.5833 46.9825 69.3712 46.6491 70.0455C46.3196 70.7197 45.8575 71.2443 45.2628 71.6193C44.6719 71.9943 43.9825 72.1818 43.1946 72.1818ZM43.1946 70.9773C43.7931 70.9773 44.2855 70.8239 44.6719 70.517C45.0582 70.2102 45.3442 69.8068 45.5298 69.3068C45.7154 68.8068 45.8082 68.2652 45.8082 67.6818C45.8082 67.0985 45.7154 66.5549 45.5298 66.0511C45.3442 65.5473 45.0582 65.1402 44.6719 64.8295C44.2855 64.5189 43.7931 64.3636 43.1946 64.3636C42.5961 64.3636 42.1037 64.5189 41.7173 64.8295C41.331 65.1402 41.045 65.5473 40.8594 66.0511C40.6738 66.5549 40.581 67.0985 40.581 67.6818C40.581 68.2652 40.6738 68.8068 40.8594 69.3068C41.045 69.8068 41.331 70.2102 41.7173 70.517C42.1037 70.8239 42.5961 70.9773 43.1946 70.9773ZM49.196 72V63.2727H50.4915V64.5909H50.5824C50.7415 64.1591 51.0294 63.8087 51.446 63.5398C51.8627 63.2708 52.3324 63.1364 52.8551 63.1364C52.9536 63.1364 53.0767 63.1383 53.2244 63.142C53.3722 63.1458 53.4839 63.1515 53.5597 63.1591V64.5227C53.5142 64.5114 53.41 64.4943 53.2472 64.4716C53.0881 64.4451 52.9195 64.4318 52.7415 64.4318C52.3172 64.4318 51.9384 64.5208 51.6051 64.6989C51.2756 64.8731 51.0142 65.1155 50.821 65.4261C50.6316 65.733 50.5369 66.0833 50.5369 66.4773V72H49.196ZM59.4915 63.2727V64.4091H54.9688V63.2727H59.4915ZM56.2869 61.1818H57.6278V69.5C57.6278 69.8788 57.6828 70.1629 57.7926 70.3523C57.9063 70.5379 58.0502 70.6629 58.2244 70.7273C58.4025 70.7879 58.59 70.8182 58.7869 70.8182C58.9347 70.8182 59.0559 70.8106 59.1506 70.7955C59.2453 70.7765 59.321 70.7614 59.3778 70.75L59.6506 71.9545C59.5597 71.9886 59.4328 72.0227 59.2699 72.0568C59.107 72.0947 58.9006 72.1136 58.6506 72.1136C58.2718 72.1136 57.9006 72.0322 57.5369 71.8693C57.1771 71.7064 56.8778 71.4583 56.6392 71.125C56.4044 70.7917 56.2869 70.3712 56.2869 69.8636V61.1818ZM1.58097 92V80.3636H8.60369V81.6136H2.99006V85.5455H8.24006V86.7955H2.99006V90.75H8.6946V92H1.58097ZM11.9616 83.2727L14.0526 86.8409L16.1435 83.2727H17.6889L14.8707 87.6364L17.6889 92H16.1435L14.0526 88.6136L11.9616 92H10.4162L13.1889 87.6364L10.4162 83.2727H11.9616ZM23.3977 83.2727V84.4091H18.875V83.2727H23.3977ZM20.1932 81.1818H21.5341V89.5C21.5341 89.8788 21.589 90.1629 21.6989 90.3523C21.8125 90.5379 21.9564 90.6629 22.1307 90.7273C22.3087 90.7879 22.4962 90.8182 22.6932 90.8182C22.8409 90.8182 22.9621 90.8106 23.0568 90.7955C23.1515 90.7765 23.2273 90.7614 23.2841 90.75L23.5568 91.9545C23.4659 91.9886 23.339 92.0227 23.1761 92.0568C23.0133 92.0947 22.8068 92.1136 22.5568 92.1136C22.178 92.1136 21.8068 92.0322 21.4432 91.8693C21.0833 91.7064 20.7841 91.4583 20.5455 91.125C20.3106 90.7917 20.1932 90.3712 20.1932 89.8636V81.1818ZM28.9801 92.1818C28.1392 92.1818 27.4138 91.9962 26.804 91.625C26.1979 91.25 25.7301 90.7273 25.4006 90.0568C25.0748 89.3826 24.9119 88.5985 24.9119 87.7045C24.9119 86.8106 25.0748 86.0227 25.4006 85.3409C25.7301 84.6553 26.1884 84.1212 26.7756 83.7386C27.3665 83.3523 28.0559 83.1591 28.8438 83.1591C29.2983 83.1591 29.7472 83.2348 30.1903 83.3864C30.6335 83.5379 31.0369 83.7841 31.4006 84.125C31.7642 84.4621 32.054 84.9091 32.2699 85.4659C32.4858 86.0227 32.5938 86.7083 32.5938 87.5227V88.0909H25.8665V86.9318H31.2301C31.2301 86.4394 31.1316 86 30.9347 85.6136C30.7415 85.2273 30.465 84.9223 30.1051 84.6989C29.7491 84.4754 29.3286 84.3636 28.8438 84.3636C28.3097 84.3636 27.8475 84.4962 27.4574 84.7614C27.071 85.0227 26.7737 85.3636 26.5653 85.7841C26.357 86.2045 26.2528 86.6553 26.2528 87.1364V87.9091C26.2528 88.5682 26.3665 89.1269 26.5938 89.5852C26.8248 90.0398 27.1449 90.3864 27.554 90.625C27.9631 90.8598 28.4384 90.9773 28.9801 90.9773C29.3324 90.9773 29.6506 90.928 29.9347 90.8295C30.2225 90.7273 30.4706 90.5758 30.679 90.375C30.8873 90.1705 31.0483 89.9167 31.1619 89.6136L32.4574 89.9773C32.321 90.4167 32.0919 90.803 31.7699 91.1364C31.4479 91.4659 31.0502 91.7235 30.5767 91.9091C30.1032 92.0909 29.571 92.1818 28.9801 92.1818ZM35.9744 86.75V92H34.6335V83.2727H35.929V84.6364H36.0426C36.2472 84.1932 36.5578 83.8371 36.9744 83.5682C37.3911 83.2955 37.929 83.1591 38.5881 83.1591C39.179 83.1591 39.696 83.2803 40.1392 83.5227C40.5824 83.7614 40.9271 84.125 41.1733 84.6136C41.4195 85.0985 41.5426 85.7121 41.5426 86.4545V92H40.2017V86.5455C40.2017 85.8598 40.0237 85.3258 39.6676 84.9432C39.3116 84.5568 38.8229 84.3636 38.2017 84.3636C37.7737 84.3636 37.3911 84.4564 37.054 84.642C36.7206 84.8277 36.4574 85.0985 36.2642 85.4545C36.071 85.8106 35.9744 86.2424 35.9744 86.75ZM50.1747 85.2273L48.9702 85.5682C48.8944 85.3674 48.7827 85.1723 48.6349 84.983C48.491 84.7898 48.294 84.6307 48.044 84.5057C47.794 84.3807 47.474 84.3182 47.0838 84.3182C46.5497 84.3182 46.1046 84.4413 45.7486 84.6875C45.3963 84.9299 45.2202 85.2386 45.2202 85.6136C45.2202 85.947 45.3414 86.2102 45.5838 86.4034C45.8262 86.5966 46.205 86.7576 46.7202 86.8864L48.0156 87.2045C48.7959 87.3939 49.3774 87.6837 49.7599 88.0739C50.1425 88.4602 50.3338 88.9583 50.3338 89.5682C50.3338 90.0682 50.1899 90.5152 49.902 90.9091C49.6179 91.303 49.2202 91.6136 48.7088 91.8409C48.1974 92.0682 47.6027 92.1818 46.9247 92.1818C46.0346 92.1818 45.2978 91.9886 44.7145 91.6023C44.1312 91.2159 43.7618 90.6515 43.6065 89.9091L44.8793 89.5909C45.0005 90.0606 45.2296 90.4129 45.5668 90.6477C45.9077 90.8826 46.3527 91 46.902 91C47.527 91 48.0232 90.8674 48.3906 90.6023C48.7618 90.3333 48.9474 90.0114 48.9474 89.6364C48.9474 89.3333 48.8414 89.0795 48.6293 88.875C48.4171 88.6667 48.0914 88.5114 47.652 88.4091L46.1974 88.0682C45.3982 87.8788 44.8111 87.5852 44.4361 87.1875C44.0649 86.786 43.8793 86.2841 43.8793 85.6818C43.8793 85.1894 44.0175 84.7538 44.294 84.375C44.5743 83.9962 44.955 83.6989 45.4361 83.483C45.9209 83.267 46.4702 83.1591 47.0838 83.1591C47.9474 83.1591 48.6255 83.3485 49.1179 83.7273C49.6141 84.1061 49.9664 84.6061 50.1747 85.2273ZM52.3523 92V83.2727H53.6932V92H52.3523ZM53.0341 81.8182C52.7727 81.8182 52.5473 81.7292 52.358 81.5511C52.1723 81.3731 52.0795 81.1591 52.0795 80.9091C52.0795 80.6591 52.1723 80.4451 52.358 80.267C52.5473 80.089 52.7727 80 53.0341 80C53.2955 80 53.5189 80.089 53.7045 80.267C53.8939 80.4451 53.9886 80.6591 53.9886 80.9091C53.9886 81.1591 53.8939 81.3731 53.7045 81.5511C53.5189 81.7292 53.2955 81.8182 53.0341 81.8182ZM59.6946 92.1818C58.9067 92.1818 58.2154 91.9943 57.6207 91.6193C57.0298 91.2443 56.5677 90.7197 56.2344 90.0455C55.9048 89.3712 55.7401 88.5833 55.7401 87.6818C55.7401 86.7727 55.9048 85.9792 56.2344 85.3011C56.5677 84.6231 57.0298 84.0966 57.6207 83.7216C58.2154 83.3466 58.9067 83.1591 59.6946 83.1591C60.4825 83.1591 61.1719 83.3466 61.7628 83.7216C62.3575 84.0966 62.8196 84.6231 63.1491 85.3011C63.4825 85.9792 63.6491 86.7727 63.6491 87.6818C63.6491 88.5833 63.4825 89.3712 63.1491 90.0455C62.8196 90.7197 62.3575 91.2443 61.7628 91.6193C61.1719 91.9943 60.4825 92.1818 59.6946 92.1818ZM59.6946 90.9773C60.2931 90.9773 60.7855 90.8239 61.1719 90.517C61.5582 90.2102 61.8442 89.8068 62.0298 89.3068C62.2154 88.8068 62.3082 88.2652 62.3082 87.6818C62.3082 87.0985 62.2154 86.5549 62.0298 86.0511C61.8442 85.5473 61.5582 85.1402 61.1719 84.8295C60.7855 84.5189 60.2931 84.3636 59.6946 84.3636C59.0961 84.3636 58.6037 84.5189 58.2173 84.8295C57.831 85.1402 57.545 85.5473 57.3594 86.0511C57.1738 86.5549 57.081 87.0985 57.081 87.6818C57.081 88.2652 57.1738 88.8068 57.3594 89.3068C57.545 89.8068 57.831 90.2102 58.2173 90.517C58.6037 90.8239 59.0961 90.9773 59.6946 90.9773ZM67.0369 86.75V92H65.696V83.2727H66.9915V84.6364H67.1051C67.3097 84.1932 67.6203 83.8371 68.0369 83.5682C68.4536 83.2955 68.9915 83.1591 69.6506 83.1591C70.2415 83.1591 70.7585 83.2803 71.2017 83.5227C71.6449 83.7614 71.9896 84.125 72.2358 84.6136C72.482 85.0985 72.6051 85.7121 72.6051 86.4545V92H71.2642V86.5455C71.2642 85.8598 71.0862 85.3258 70.7301 84.9432C70.3741 84.5568 69.8854 84.3636 69.2642 84.3636C68.8362 84.3636 68.4536 84.4564 68.1165 84.642C67.7831 84.8277 67.5199 85.0985 67.3267 85.4545C67.1335 85.8106 67.0369 86.2424 67.0369 86.75Z" fill="#090A0A"/>
</svg>
