<svg width="26" height="26" viewBox="0 0 26 26" fill="none" xmlns="http://www.w3.org/2000/svg">
<g id="report">
<path id="Vector" d="M8.30566 14.625H14.5649V16.25H8.30566V14.625ZM8.30566 10.5625H17.6946V12.1875H8.30566V10.5625ZM8.30566 18.6875H12.2177V20.3125H8.30566V18.6875Z" fill="#25435B"/>
<path id="Vector_2" d="M20.0417 4.0625H17.6945V3.25C17.6945 2.81902 17.5296 2.4057 17.2362 2.10095C16.9427 1.7962 16.5447 1.625 16.1297 1.625H9.87041C9.45539 1.625 9.05738 1.7962 8.76392 2.10095C8.47046 2.4057 8.30559 2.81902 8.30559 3.25V4.0625H5.95837C5.54335 4.0625 5.14534 4.2337 4.85188 4.53845C4.55842 4.8432 4.39355 5.25652 4.39355 5.6875V22.75C4.39355 23.181 4.55842 23.5943 4.85188 23.899C5.14534 24.2038 5.54335 24.375 5.95837 24.375H20.0417C20.4567 24.375 20.8547 24.2038 21.1482 23.899C21.4417 23.5943 21.6065 23.181 21.6065 22.75V5.6875C21.6065 5.25652 21.4417 4.8432 21.1482 4.53845C20.8547 4.2337 20.4567 4.0625 20.0417 4.0625ZM9.87041 3.25H16.1297V6.5H9.87041V3.25ZM20.0417 22.75H5.95837V5.6875H8.30559V8.125H17.6945V5.6875H20.0417V22.75Z" fill="#25435B"/>
</g>
</svg>
