<svg width="48" height="96" viewBox="0 0 48 96" fill="none" xmlns="http://www.w3.org/2000/svg">
<rect width="48" height="48" rx="5" fill="#E7F4FF"/>
<path d="M19.5 21.75H21V23.25H19.5V21.75ZM22.5 21.75H28.5V23.25H22.5V21.75ZM19.5 25.5H21V27H19.5V25.5ZM19.5 29.25H21V30.75H19.5V29.25Z" fill="#25435B"/>
<path d="M17.25 33V17.25H19.5V19.5H28.5V17.25H30.75V23.25H32.25V17.25C32.25 16.8522 32.092 16.4706 31.8107 16.1893C31.5294 15.908 31.1478 15.75 30.75 15.75H28.5V15C28.5 14.6022 28.342 14.2206 28.0607 13.9393C27.7794 13.658 27.3978 13.5 27 13.5H21C20.6022 13.5 20.2206 13.658 19.9393 13.9393C19.658 14.2206 19.5 14.6022 19.5 15V15.75H17.25C16.8522 15.75 16.4706 15.908 16.1893 16.1893C15.908 16.4706 15.75 16.8522 15.75 17.25V33C15.75 33.3978 15.908 33.7794 16.1893 34.0607C16.4706 34.342 16.8522 34.5 17.25 34.5H24V33H17.25ZM21 15H27V18H21V15Z" fill="#25435B"/>
<path d="M25.5 26.2499V28.0596C25.9711 27.272 26.6405 26.6217 27.4414 26.1737C28.2424 25.7256 29.1468 25.4955 30.0645 25.5062C30.9822 25.517 31.881 25.7682 32.6712 26.2349C33.4614 26.7016 34.1154 27.3674 34.5679 28.1658C35.0204 28.9642 35.2556 29.8674 35.2499 30.7851C35.2443 31.7028 34.9981 32.603 34.5358 33.3958C34.0735 34.1886 33.4114 34.8463 32.6155 35.3033C31.8196 35.7602 30.9177 36.0004 30 35.9999V34.4999C30.6763 34.5007 31.3402 34.3187 31.9215 33.9731C32.5028 33.6274 32.9798 33.131 33.302 32.5364C33.6242 31.9418 33.7796 31.2711 33.7517 30.5954C33.7239 29.9197 33.5138 29.264 33.1438 28.698C32.7737 28.1319 32.2575 27.6764 31.6497 27.3798C31.0419 27.0832 30.3652 26.9564 29.6913 27.013C29.0174 27.0696 28.3713 27.3073 27.8215 27.7011C27.2716 28.0949 26.8385 28.63 26.568 29.2499H28.5V30.7499H24V26.2499H25.5Z" fill="#25435B"/>
<path d="M2.82475 71V60.8182H6.26509C7.06055 60.8182 7.71348 60.9541 8.2239 61.2259C8.73432 61.4943 9.11216 61.8639 9.35742 62.3345C9.60269 62.8052 9.72532 63.3404 9.72532 63.9403C9.72532 64.5402 9.60269 65.0722 9.35742 65.5362C9.11216 66.0002 8.73597 66.3648 8.22887 66.63C7.72177 66.8918 7.0738 67.0227 6.28498 67.0227H3.50089V65.9091H6.24521C6.78877 65.9091 7.22627 65.8295 7.55771 65.6705C7.89246 65.5114 8.13441 65.286 8.28356 64.9943C8.43602 64.6993 8.51225 64.348 8.51225 63.9403C8.51225 63.5327 8.43602 63.1764 8.28356 62.8714C8.1311 62.5665 7.88749 62.3312 7.55273 62.1655C7.21798 61.9964 6.77551 61.9119 6.22532 61.9119H4.05771V71H2.82475ZM7.61737 66.4261L10.123 71H8.69123L6.22532 66.4261H7.61737ZM14.7404 71.1591C14.0046 71.1591 13.3699 70.9967 12.8363 70.6719C12.306 70.3438 11.8967 69.8864 11.6083 69.2997C11.3233 68.7098 11.1808 68.0237 11.1808 67.2415C11.1808 66.4593 11.3233 65.7699 11.6083 65.1733C11.8967 64.5734 12.2977 64.1061 12.8114 63.7713C13.3285 63.4332 13.9317 63.2642 14.6211 63.2642C15.0188 63.2642 15.4116 63.3305 15.7994 63.4631C16.1871 63.5956 16.5401 63.8111 16.8583 64.1094C17.1765 64.4044 17.43 64.7955 17.619 65.2827C17.8079 65.7699 17.9023 66.3698 17.9023 67.0824V67.5795H12.016V66.5653H16.7092C16.7092 66.1345 16.623 65.75 16.4506 65.4119C16.2816 65.0739 16.0397 64.8071 15.7248 64.6115C15.4132 64.416 15.0453 64.3182 14.6211 64.3182C14.1538 64.3182 13.7494 64.4342 13.408 64.6662C13.07 64.8949 12.8098 65.1932 12.6275 65.5611C12.4452 65.929 12.354 66.3234 12.354 66.7443V67.4205C12.354 67.9972 12.4535 68.486 12.6523 68.8871C12.8545 69.2848 13.1346 69.5881 13.4925 69.7969C13.8505 70.0024 14.2665 70.1051 14.7404 70.1051C15.0487 70.1051 15.3271 70.062 15.5756 69.9759C15.8275 69.8864 16.0446 69.7538 16.2269 69.5781C16.4092 69.3991 16.5501 69.1771 16.6495 68.9119L17.783 69.2301C17.6637 69.6146 17.4632 69.9527 17.1815 70.2443C16.8997 70.5327 16.5517 70.758 16.1374 70.9205C15.7231 71.0795 15.2575 71.1591 14.7404 71.1591ZM25.0962 65.0739L24.0423 65.3722C23.976 65.1965 23.8782 65.0258 23.7489 64.8601C23.623 64.6911 23.4506 64.5518 23.2319 64.4425C23.0131 64.3331 22.7331 64.2784 22.3917 64.2784C21.9244 64.2784 21.5349 64.3861 21.2234 64.6016C20.9151 64.8137 20.761 65.0838 20.761 65.4119C20.761 65.7036 20.8671 65.9339 21.0792 66.103C21.2913 66.272 21.6228 66.4129 22.0735 66.5256L23.207 66.804C23.8898 66.9697 24.3986 67.2232 24.7333 67.5646C25.0681 67.9027 25.2354 68.3385 25.2354 68.8722C25.2354 69.3097 25.1095 69.7008 24.8576 70.0455C24.609 70.3902 24.261 70.6619 23.8136 70.8608C23.3661 71.0597 22.8458 71.1591 22.2525 71.1591C21.4736 71.1591 20.829 70.9901 20.3185 70.652C19.8081 70.3139 19.485 69.8201 19.3491 69.1705L20.4627 68.892C20.5688 69.303 20.7693 69.6113 21.0643 69.8168C21.3626 70.0223 21.752 70.125 22.2326 70.125C22.7795 70.125 23.2137 70.009 23.5352 69.777C23.86 69.5417 24.0224 69.2599 24.0224 68.9318C24.0224 68.6667 23.9296 68.4446 23.744 68.2656C23.5584 68.0833 23.2733 67.9474 22.8888 67.858L21.6161 67.5597C20.9168 67.3939 20.4031 67.1371 20.0749 66.7891C19.7501 66.4377 19.5877 65.9986 19.5877 65.4716C19.5877 65.0407 19.7087 64.6596 19.9506 64.3281C20.1959 63.9967 20.529 63.7365 20.9499 63.5476C21.3742 63.3587 21.8548 63.2642 22.3917 63.2642C23.1474 63.2642 23.7406 63.4299 24.1715 63.7614C24.6057 64.0928 24.9139 64.5303 25.0962 65.0739ZM31.8141 67.8778V63.3636H32.9874V71H31.8141V69.7074H31.7346C31.5556 70.0952 31.2772 70.425 30.8993 70.6967C30.5215 70.9652 30.0442 71.0994 29.4675 71.0994C28.9902 71.0994 28.566 70.995 28.1948 70.7862C27.8236 70.5741 27.5319 70.2559 27.3198 69.8317C27.1077 69.4041 27.0016 68.8655 27.0016 68.2159V63.3636H28.1749V68.1364C28.1749 68.6932 28.3307 69.1373 28.6422 69.4688C28.9571 69.8002 29.3581 69.9659 29.8453 69.9659C30.137 69.9659 30.4337 69.8913 30.7353 69.7422C31.0402 69.593 31.2954 69.3643 31.5009 69.0561C31.7097 68.7479 31.8141 68.3551 31.8141 67.8778ZM36.3097 60.8182V71H35.1364V60.8182H36.3097ZM41.7797 63.3636V64.358H37.8223V63.3636H41.7797ZM38.9757 61.5341H40.149V68.8125C40.149 69.1439 40.197 69.3925 40.2931 69.5582C40.3926 69.7206 40.5185 69.83 40.671 69.8864C40.8268 69.9394 40.9908 69.9659 41.1632 69.9659C41.2924 69.9659 41.3985 69.9593 41.4814 69.946C41.5642 69.9295 41.6305 69.9162 41.6802 69.9062L41.9189 70.9602C41.8393 70.9901 41.7283 71.0199 41.5858 71.0497C41.4432 71.0829 41.2626 71.0994 41.0439 71.0994C40.7124 71.0994 40.3876 71.0282 40.0694 70.8857C39.7546 70.7431 39.4927 70.526 39.2839 70.2344C39.0784 69.9427 38.9757 69.5748 38.9757 69.1307V61.5341ZM1.43706 91V80.8182H2.67001V85.3523H8.09899V80.8182H9.33194V91H8.09899V86.446H2.67001V91H1.43706ZM11.6412 91V83.3636H12.8145V91H11.6412ZM12.2378 82.0909C12.0091 82.0909 11.8119 82.013 11.6462 81.8572C11.4838 81.7015 11.4026 81.5142 11.4026 81.2955C11.4026 81.0767 11.4838 80.8894 11.6462 80.7337C11.8119 80.5779 12.0091 80.5 12.2378 80.5C12.4665 80.5 12.6621 80.5779 12.8245 80.7337C12.9902 80.8894 13.0731 81.0767 13.0731 81.2955C13.0731 81.5142 12.9902 81.7015 12.8245 81.8572C12.6621 82.013 12.4665 82.0909 12.2378 82.0909ZM20.3726 85.0739L19.3186 85.3722C19.2523 85.1965 19.1546 85.0258 19.0253 84.8601C18.8994 84.6911 18.727 84.5518 18.5083 84.4425C18.2895 84.3331 18.0094 84.2784 17.6681 84.2784C17.2007 84.2784 16.8113 84.3861 16.4997 84.6016C16.1915 84.8137 16.0374 85.0838 16.0374 85.4119C16.0374 85.7036 16.1434 85.9339 16.3556 86.103C16.5677 86.272 16.8991 86.4129 17.3499 86.5256L18.4834 86.804C19.1662 86.9697 19.6749 87.2232 20.0097 87.5646C20.3444 87.9027 20.5118 88.3385 20.5118 88.8722C20.5118 89.3097 20.3859 89.7008 20.134 90.0455C19.8854 90.3902 19.5374 90.6619 19.0899 90.8608C18.6425 91.0597 18.1221 91.1591 17.5289 91.1591C16.75 91.1591 16.1053 90.9901 15.5949 90.652C15.0845 90.3139 14.7613 89.8201 14.6254 89.1705L15.7391 88.892C15.8451 89.303 16.0457 89.6113 16.3406 89.8168C16.6389 90.0223 17.0284 90.125 17.509 90.125C18.0558 90.125 18.49 90.009 18.8115 89.777C19.1363 89.5417 19.2987 89.2599 19.2987 88.9318C19.2987 88.6667 19.2059 88.4446 19.0203 88.2656C18.8347 88.0833 18.5497 87.9474 18.1652 87.858L16.8925 87.5597C16.1932 87.3939 15.6794 87.1371 15.3513 86.7891C15.0265 86.4377 14.8641 85.9986 14.8641 85.4716C14.8641 85.0407 14.9851 84.6596 15.227 84.3281C15.4723 83.9967 15.8054 83.7365 16.2263 83.5476C16.6505 83.3587 17.1311 83.2642 17.6681 83.2642C18.4237 83.2642 19.017 83.4299 19.4479 83.7614C19.8821 84.0928 20.1903 84.5303 20.3726 85.0739ZM25.599 83.3636V84.358H21.6416V83.3636H25.599ZM22.795 81.5341H23.9683V88.8125C23.9683 89.1439 24.0164 89.3925 24.1125 89.5582C24.2119 89.7206 24.3379 89.83 24.4903 89.8864C24.6461 89.9394 24.8102 89.9659 24.9825 89.9659C25.1118 89.9659 25.2178 89.9593 25.3007 89.946C25.3836 89.9295 25.4498 89.9162 25.4996 89.9062L25.7382 90.9602C25.6586 90.9901 25.5476 91.0199 25.4051 91.0497C25.2626 91.0829 25.0819 91.0994 24.8632 91.0994C24.5318 91.0994 24.2069 91.0282 23.8888 90.8857C23.5739 90.7431 23.3121 90.526 23.1032 90.2344C22.8978 89.9427 22.795 89.5748 22.795 89.1307V81.5341ZM30.3841 91.1591C29.6948 91.1591 29.0899 90.995 28.5695 90.6669C28.0525 90.3388 27.6481 89.8797 27.3564 89.2898C27.0681 88.6998 26.9239 88.0104 26.9239 87.2216C26.9239 86.4261 27.0681 85.7318 27.3564 85.1385C27.6481 84.5452 28.0525 84.0845 28.5695 83.7564C29.0899 83.4283 29.6948 83.2642 30.3841 83.2642C31.0735 83.2642 31.6768 83.4283 32.1938 83.7564C32.7142 84.0845 33.1185 84.5452 33.4069 85.1385C33.6985 85.7318 33.8444 86.4261 33.8444 87.2216C33.8444 88.0104 33.6985 88.6998 33.4069 89.2898C33.1185 89.8797 32.7142 90.3388 32.1938 90.6669C31.6768 90.995 31.0735 91.1591 30.3841 91.1591ZM30.3841 90.1051C30.9078 90.1051 31.3387 89.9709 31.6768 89.7024C32.0148 89.4339 32.2651 89.081 32.4275 88.6435C32.5899 88.206 32.6711 87.732 32.6711 87.2216C32.6711 86.7112 32.5899 86.2356 32.4275 85.7947C32.2651 85.3539 32.0148 84.9976 31.6768 84.7259C31.3387 84.4541 30.9078 84.3182 30.3841 84.3182C29.8605 84.3182 29.4296 84.4541 29.0915 84.7259C28.7535 84.9976 28.5032 85.3539 28.3408 85.7947C28.1784 86.2356 28.0972 86.7112 28.0972 87.2216C28.0972 87.732 28.1784 88.206 28.3408 88.6435C28.5032 89.081 28.7535 89.4339 29.0915 89.7024C29.4296 89.9709 29.8605 90.1051 30.3841 90.1051ZM35.6354 91V83.3636H36.7689V84.517H36.8485C36.9877 84.1392 37.2396 83.8326 37.6041 83.5973C37.9687 83.362 38.3797 83.2443 38.8371 83.2443C38.9233 83.2443 39.031 83.246 39.1602 83.2493C39.2895 83.2526 39.3873 83.2576 39.4536 83.2642V84.4574C39.4138 84.4474 39.3227 84.4325 39.1801 84.4126C39.0409 84.3894 38.8934 84.3778 38.7377 84.3778C38.3664 84.3778 38.035 84.4557 37.7433 84.6115C37.455 84.764 37.2263 84.9761 37.0573 85.2479C36.8915 85.5163 36.8087 85.8229 36.8087 86.1676V91H35.6354ZM41.8325 93.8636C41.6336 93.8636 41.4563 93.8471 41.3005 93.8139C41.1447 93.7841 41.037 93.7543 40.9774 93.7244L41.2757 92.6903C41.5607 92.7633 41.8126 92.7898 42.0313 92.7699C42.2501 92.75 42.444 92.6522 42.613 92.4766C42.7854 92.3042 42.9428 92.0241 43.0853 91.6364L43.3041 91.0398L40.4802 83.3636H41.7529L43.8609 89.4489H43.9404L46.0484 83.3636H47.3211L44.0796 92.1136C43.9338 92.508 43.7532 92.8345 43.5377 93.093C43.3223 93.3549 43.0721 93.5488 42.787 93.6747C42.5053 93.8007 42.1871 93.8636 41.8325 93.8636Z" fill="#090A0A"/>
</svg>
