<svg width="63" height="76" viewBox="0 0 63 76" fill="none" xmlns="http://www.w3.org/2000/svg">
<rect x="7.5" y="0.000976562" width="48" height="48" rx="5" fill="#E7F4FF"/>
<g clip-path="url(#clip0_16927_12388)">
<path d="M31.5 27.001C33.1569 27.001 34.5 25.6578 34.5 24.001C34.5 22.3441 33.1569 21.001 31.5 21.001C29.8431 21.001 28.5 22.3441 28.5 24.001C28.5 25.6578 29.8431 27.001 31.5 27.001Z" stroke="#090A0A" stroke-width="1.5" stroke-linecap="round" stroke-linejoin="round"/>
<path d="M38.9 27.001C38.7669 27.3026 38.7272 27.6372 38.786 27.9616C38.8448 28.286 38.9995 28.5853 39.23 28.821L39.29 28.881C39.476 29.0667 39.6235 29.2873 39.7241 29.5301C39.8248 29.7729 39.8766 30.0331 39.8766 30.296C39.8766 30.5588 39.8248 30.8191 39.7241 31.0619C39.6235 31.3047 39.476 31.5252 39.29 31.711C39.1043 31.8969 38.8837 32.0444 38.6409 32.1451C38.3981 32.2457 38.1378 32.2975 37.875 32.2975C37.6122 32.2975 37.3519 32.2457 37.1091 32.1451C36.8663 32.0444 36.6457 31.8969 36.46 31.711L36.4 31.651C36.1643 31.4204 35.865 31.2658 35.5406 31.207C35.2162 31.1482 34.8816 31.1879 34.58 31.321C34.2842 31.4477 34.032 31.6582 33.8543 31.9265C33.6766 32.1948 33.5813 32.5092 33.58 32.831V33.001C33.58 33.5314 33.3693 34.0401 32.9942 34.4152C32.6191 34.7903 32.1104 35.001 31.58 35.001C31.0496 35.001 30.5409 34.7903 30.1658 34.4152C29.7907 34.0401 29.58 33.5314 29.58 33.001V32.911C29.5723 32.58 29.4651 32.259 29.2725 31.9897C29.0799 31.7204 28.8107 31.5153 28.5 31.401C28.1984 31.2679 27.8638 31.2282 27.5394 31.287C27.215 31.3458 26.9157 31.5004 26.68 31.731L26.62 31.791C26.4343 31.9769 26.2137 32.1244 25.9709 32.2251C25.7281 32.3257 25.4678 32.3775 25.205 32.3775C24.9422 32.3775 24.6819 32.3257 24.4391 32.2251C24.1963 32.1244 23.9757 31.9769 23.79 31.791C23.604 31.6052 23.4565 31.3847 23.3559 31.1419C23.2552 30.8991 23.2034 30.6388 23.2034 30.376C23.2034 30.1131 23.2552 29.8529 23.3559 29.6101C23.4565 29.3673 23.604 29.1467 23.79 28.961L23.85 28.901C24.0805 28.6653 24.2352 28.366 24.294 28.0416C24.3528 27.7172 24.3131 27.3826 24.18 27.081C24.0532 26.7852 23.8428 26.533 23.5745 26.3553C23.3062 26.1776 22.9918 26.0823 22.67 26.081H22.5C21.9696 26.081 21.4609 25.8703 21.0858 25.4952C20.7107 25.1201 20.5 24.6114 20.5 24.081C20.5 23.5505 20.7107 23.0418 21.0858 22.6668C21.4609 22.2917 21.9696 22.081 22.5 22.081H22.59C22.921 22.0732 23.242 21.9661 23.5113 21.7735C23.7806 21.5809 23.9857 21.3117 24.1 21.001C24.2331 20.6994 24.2728 20.3648 24.214 20.0404C24.1552 19.716 24.0005 19.4167 23.77 19.181L23.71 19.121C23.524 18.9352 23.3765 18.7147 23.2759 18.4719C23.1752 18.2291 23.1234 17.9688 23.1234 17.706C23.1234 17.4431 23.1752 17.1829 23.2759 16.9401C23.3765 16.6973 23.524 16.4767 23.71 16.291C23.8957 16.105 24.1163 15.9575 24.3591 15.8569C24.6019 15.7562 24.8622 15.7044 25.125 15.7044C25.3878 15.7044 25.6481 15.7562 25.8909 15.8569C26.1337 15.9575 26.3543 16.105 26.54 16.291L26.6 16.351C26.8357 16.5815 27.135 16.7362 27.4594 16.795C27.7838 16.8538 28.1184 16.8141 28.42 16.681H28.5C28.7958 16.5542 29.048 16.3437 29.2257 16.0754C29.4034 15.8072 29.4987 15.4928 29.5 15.171V15.001C29.5 14.4705 29.7107 13.9618 30.0858 13.5868C30.4609 13.2117 30.9696 13.001 31.5 13.001C32.0304 13.001 32.5391 13.2117 32.9142 13.5868C33.2893 13.9618 33.5 14.4705 33.5 15.001V15.091C33.5013 15.4128 33.5966 15.7272 33.7743 15.9954C33.952 16.2637 34.2042 16.4742 34.5 16.601C34.8016 16.7341 35.1362 16.7738 35.4606 16.715C35.785 16.6562 36.0843 16.5015 36.32 16.271L36.38 16.211C36.5657 16.025 36.7863 15.8775 37.0291 15.7769C37.2719 15.6762 37.5322 15.6244 37.795 15.6244C38.0578 15.6244 38.3181 15.6762 38.5609 15.7769C38.8037 15.8775 39.0243 16.025 39.21 16.211C39.396 16.3967 39.5435 16.6173 39.6441 16.8601C39.7448 17.1029 39.7966 17.3631 39.7966 17.626C39.7966 17.8888 39.7448 18.1491 39.6441 18.3919C39.5435 18.6347 39.396 18.8552 39.21 19.041L39.15 19.101C38.9195 19.3367 38.7648 19.636 38.706 19.9604C38.6472 20.2848 38.6869 20.6194 38.82 20.921V21.001C38.9468 21.2967 39.1572 21.549 39.4255 21.7267C39.6938 21.9043 40.0082 21.9997 40.33 22.001H40.5C41.0304 22.001 41.5391 22.2117 41.9142 22.5868C42.2893 22.9618 42.5 23.4705 42.5 24.001C42.5 24.5314 42.2893 25.0401 41.9142 25.4152C41.5391 25.7903 41.0304 26.001 40.5 26.001H40.41C40.0882 26.0023 39.7738 26.0976 39.5055 26.2753C39.2372 26.453 39.0268 26.7052 38.9 27.001Z" stroke="#090A0A" stroke-width="1.5" stroke-linecap="round" stroke-linejoin="round"/>
</g>
<path d="M7.77273 63.2737C7.70455 62.6979 7.42803 62.251 6.94318 61.9328C6.45833 61.6146 5.86364 61.4555 5.15909 61.4555C4.64394 61.4555 4.19318 61.5389 3.80682 61.7055C3.42424 61.8722 3.125 62.1014 2.90909 62.393C2.69697 62.6847 2.59091 63.0161 2.59091 63.3873C2.59091 63.6979 2.66477 63.965 2.8125 64.1885C2.96402 64.4082 3.1572 64.5919 3.39205 64.7396C3.62689 64.8836 3.87311 65.0029 4.13068 65.0976C4.38826 65.1885 4.625 65.2623 4.84091 65.3192L6.02273 65.6373C6.32576 65.7169 6.66288 65.8267 7.03409 65.9669C7.40909 66.107 7.76705 66.2983 8.10795 66.5407C8.45265 66.7794 8.73674 67.0862 8.96023 67.4612C9.18371 67.8362 9.29545 68.2964 9.29545 68.8419C9.29545 69.4707 9.13068 70.0389 8.80114 70.5464C8.47538 71.054 7.99811 71.4574 7.36932 71.7567C6.74432 72.0559 5.98485 72.2055 5.09091 72.2055C4.25758 72.2055 3.53598 72.0711 2.92614 71.8021C2.32008 71.5332 1.8428 71.1582 1.49432 70.6771C1.14962 70.1961 0.954545 69.6373 0.909091 69.001H2.36364C2.40152 69.4404 2.54924 69.804 2.80682 70.0919C3.06818 70.376 3.39773 70.5881 3.79545 70.7282C4.19697 70.8646 4.62879 70.9328 5.09091 70.9328C5.62879 70.9328 6.11174 70.8457 6.53977 70.6714C6.9678 70.4934 7.30682 70.2472 7.55682 69.9328C7.80682 69.6146 7.93182 69.2434 7.93182 68.8192C7.93182 68.4328 7.82386 68.1184 7.60795 67.876C7.39205 67.6336 7.10795 67.4366 6.75568 67.2851C6.40341 67.1336 6.02273 67.001 5.61364 66.8873L4.18182 66.4782C3.27273 66.2169 2.55303 65.8438 2.02273 65.3589C1.49242 64.8741 1.22727 64.2396 1.22727 63.4555C1.22727 62.804 1.40341 62.2358 1.75568 61.751C2.11174 61.2623 2.58902 60.8836 3.1875 60.6146C3.78977 60.3419 4.46212 60.2055 5.20455 60.2055C5.95455 60.2055 6.62121 60.34 7.20455 60.6089C7.78788 60.8741 8.25 61.2377 8.59091 61.6998C8.93561 62.162 9.11742 62.6866 9.13636 63.2737H7.77273ZM15.0895 72.1828C14.2486 72.1828 13.5232 71.9972 12.9134 71.626C12.3073 71.251 11.8395 70.7282 11.5099 70.0578C11.1842 69.3836 11.0213 68.5995 11.0213 67.7055C11.0213 66.8116 11.1842 66.0237 11.5099 65.3419C11.8395 64.6563 12.2978 64.1222 12.8849 63.7396C13.4759 63.3532 14.1652 63.1601 14.9531 63.1601C15.4077 63.1601 15.8565 63.2358 16.2997 63.3873C16.7429 63.5389 17.1463 63.7851 17.5099 64.126C17.8736 64.4631 18.1634 64.9101 18.3793 65.4669C18.5952 66.0237 18.7031 66.7093 18.7031 67.5237V68.0919H11.9759V66.9328H17.3395C17.3395 66.4404 17.241 66.001 17.044 65.6146C16.8509 65.2282 16.5743 64.9233 16.2145 64.6998C15.8584 64.4764 15.438 64.3646 14.9531 64.3646C14.419 64.3646 13.9569 64.4972 13.5668 64.7623C13.1804 65.0237 12.883 65.3646 12.6747 65.7851C12.4664 66.2055 12.3622 66.6563 12.3622 67.1373V67.9101C12.3622 68.5692 12.4759 69.1279 12.7031 69.5862C12.9342 70.0407 13.2543 70.3873 13.6634 70.626C14.0724 70.8608 14.5478 70.9782 15.0895 70.9782C15.4418 70.9782 15.7599 70.929 16.044 70.8305C16.3319 70.7282 16.58 70.5767 16.7884 70.376C16.9967 70.1714 17.1577 69.9176 17.2713 69.6146L18.5668 69.9782C18.4304 70.4176 18.2012 70.804 17.8793 71.1373C17.5573 71.4669 17.1596 71.7245 16.6861 71.9101C16.2126 72.0919 15.6804 72.1828 15.0895 72.1828ZM24.5384 63.2737V64.4101H20.0156V63.2737H24.5384ZM21.3338 61.1828H22.6747V69.501C22.6747 69.8798 22.7296 70.1639 22.8395 70.3532C22.9531 70.5389 23.0971 70.6639 23.2713 70.7282C23.4493 70.7889 23.6368 70.8192 23.8338 70.8192C23.9815 70.8192 24.1027 70.8116 24.1974 70.7964C24.2921 70.7775 24.3679 70.7623 24.4247 70.751L24.6974 71.9555C24.6065 71.9896 24.4796 72.0237 24.3168 72.0578C24.1539 72.0957 23.9474 72.1146 23.6974 72.1146C23.3187 72.1146 22.9474 72.0332 22.5838 71.8703C22.224 71.7074 21.9247 71.4593 21.6861 71.126C21.4512 70.7926 21.3338 70.3722 21.3338 69.8646V61.1828ZM30.3509 63.2737V64.4101H25.8281V63.2737H30.3509ZM27.1463 61.1828H28.4872V69.501C28.4872 69.8798 28.5421 70.1639 28.652 70.3532C28.7656 70.5389 28.9096 70.6639 29.0838 70.7282C29.2618 70.7889 29.4493 70.8192 29.6463 70.8192C29.794 70.8192 29.9152 70.8116 30.0099 70.7964C30.1046 70.7775 30.1804 70.7623 30.2372 70.751L30.5099 71.9555C30.419 71.9896 30.2921 72.0237 30.1293 72.0578C29.9664 72.0957 29.7599 72.1146 29.5099 72.1146C29.1312 72.1146 28.7599 72.0332 28.3963 71.8703C28.0365 71.7074 27.7372 71.4593 27.4986 71.126C27.2637 70.7926 27.1463 70.3722 27.1463 69.8646V61.1828ZM32.3679 72.001V63.2737H33.7088V72.001H32.3679ZM33.0497 61.8192C32.7884 61.8192 32.563 61.7301 32.3736 61.5521C32.188 61.3741 32.0952 61.1601 32.0952 60.9101C32.0952 60.6601 32.188 60.4461 32.3736 60.268C32.563 60.09 32.7884 60.001 33.0497 60.001C33.3111 60.001 33.5346 60.09 33.7202 60.268C33.9096 60.4461 34.0043 60.6601 34.0043 60.9101C34.0043 61.1601 33.9096 61.3741 33.7202 61.5521C33.5346 61.7301 33.3111 61.8192 33.0497 61.8192ZM37.5057 66.751V72.001H36.1648V63.2737H37.4602V64.6373H37.5739C37.7784 64.1942 38.089 63.8381 38.5057 63.5692C38.9223 63.2964 39.4602 63.1601 40.1193 63.1601C40.7102 63.1601 41.2273 63.2813 41.6705 63.5237C42.1136 63.7623 42.4583 64.126 42.7045 64.6146C42.9508 65.0995 43.0739 65.7131 43.0739 66.4555V72.001H41.733V66.5464C41.733 65.8608 41.5549 65.3267 41.1989 64.9442C40.8428 64.5578 40.3542 64.3646 39.733 64.3646C39.3049 64.3646 38.9223 64.4574 38.5852 64.643C38.2519 64.8286 37.9886 65.0995 37.7955 65.4555C37.6023 65.8116 37.5057 66.2434 37.5057 66.751ZM49.0469 75.4555C48.3991 75.4555 47.8423 75.3722 47.3764 75.2055C46.9105 75.0426 46.5223 74.8267 46.2116 74.5578C45.9048 74.2926 45.6605 74.0086 45.4787 73.7055L46.5469 72.9555C46.6681 73.1146 46.8215 73.2964 47.0071 73.501C47.1927 73.7093 47.4465 73.8892 47.7685 74.0407C48.0942 74.1961 48.5204 74.2737 49.0469 74.2737C49.7514 74.2737 50.3329 74.1032 50.7912 73.7623C51.2495 73.4214 51.4787 72.8873 51.4787 72.1601V70.3873H51.3651C51.2666 70.5464 51.1264 70.7434 50.9446 70.9782C50.7666 71.2093 50.509 71.4157 50.1719 71.5976C49.8385 71.7756 49.3878 71.8646 48.8196 71.8646C48.1151 71.8646 47.4825 71.6979 46.9219 71.3646C46.3651 71.0313 45.9238 70.5464 45.598 69.9101C45.276 69.2737 45.1151 68.501 45.1151 67.5919C45.1151 66.6979 45.2723 65.9195 45.5866 65.2567C45.901 64.59 46.3385 64.0748 46.8991 63.7112C47.4598 63.3438 48.1075 63.1601 48.8423 63.1601C49.4105 63.1601 49.8613 63.2548 50.1946 63.4442C50.5317 63.6298 50.7893 63.8419 50.9673 64.0805C51.1491 64.3154 51.2893 64.5086 51.3878 64.6601H51.5241V63.2737H52.8196V72.251C52.8196 73.001 52.6491 73.6108 52.3082 74.0805C51.9711 74.554 51.5166 74.9006 50.9446 75.1203C50.3764 75.3438 49.7438 75.4555 49.0469 75.4555ZM49.0014 70.6601C49.5393 70.6601 49.9938 70.537 50.3651 70.2907C50.7363 70.0445 51.0185 69.6904 51.2116 69.2282C51.4048 68.7661 51.5014 68.2131 51.5014 67.5692C51.5014 66.9404 51.4067 66.3854 51.2173 65.9044C51.0279 65.4233 50.7476 65.0464 50.3764 64.7737C50.0052 64.501 49.5469 64.3646 49.0014 64.3646C48.4332 64.3646 47.9598 64.5086 47.581 64.7964C47.206 65.0843 46.9238 65.4707 46.7344 65.9555C46.5488 66.4404 46.456 66.9782 46.456 67.5692C46.456 68.1752 46.5507 68.7112 46.7401 69.1771C46.9332 69.6392 47.2173 70.0029 47.5923 70.268C47.9711 70.5294 48.4408 70.6601 49.0014 70.6601ZM61.456 65.2282L60.2514 65.5692C60.1757 65.3684 60.0639 65.1733 59.9162 64.9839C59.7723 64.7907 59.5753 64.6317 59.3253 64.5067C59.0753 64.3817 58.7552 64.3192 58.3651 64.3192C57.831 64.3192 57.3859 64.4423 57.0298 64.6885C56.6776 64.9309 56.5014 65.2396 56.5014 65.6146C56.5014 65.9479 56.6226 66.2112 56.8651 66.4044C57.1075 66.5976 57.4863 66.7586 58.0014 66.8873L59.2969 67.2055C60.0772 67.3949 60.6586 67.6847 61.0412 68.0748C61.4238 68.4612 61.6151 68.9593 61.6151 69.5692C61.6151 70.0692 61.4711 70.5161 61.1832 70.9101C60.8991 71.304 60.5014 71.6146 59.9901 71.8419C59.4787 72.0692 58.884 72.1828 58.206 72.1828C57.3158 72.1828 56.5791 71.9896 55.9957 71.6032C55.4124 71.2169 55.0431 70.6525 54.8878 69.9101L56.1605 69.5919C56.2817 70.0616 56.5109 70.4139 56.848 70.6487C57.1889 70.8836 57.634 71.001 58.1832 71.001C58.8082 71.001 59.3045 70.8684 59.6719 70.6032C60.0431 70.3343 60.2287 70.0123 60.2287 69.6373C60.2287 69.3343 60.1226 69.0805 59.9105 68.876C59.6984 68.6676 59.3726 68.5123 58.9332 68.4101L57.4787 68.0692C56.6795 67.8798 56.0923 67.5862 55.7173 67.1885C55.3461 66.787 55.1605 66.2851 55.1605 65.6828C55.1605 65.1904 55.2988 64.7548 55.5753 64.376C55.8556 63.9972 56.2363 63.6998 56.7173 63.4839C57.2022 63.268 57.7514 63.1601 58.3651 63.1601C59.2287 63.1601 59.9067 63.3495 60.3991 63.7282C60.8954 64.107 61.2476 64.607 61.456 65.2282Z" fill="#090A0A"/>
<defs>
<clipPath id="clip0_16927_12388">
<rect width="24" height="24" fill="white" transform="translate(19.5 12.001)"/>
</clipPath>
</defs>
</svg>
