<svg width="20" height="22" viewBox="0 0 20 22" fill="none" xmlns="http://www.w3.org/2000/svg">
<g id="logos:whatsapp-icon" clip-path="url(#clip0_16177_16244)">
<path id="Vector" d="M0.42666 10.8792C0.426191 12.5727 0.868691 14.2263 1.7101 15.6838L0.346191 20.6637L5.44244 19.3274C6.852 20.0948 8.4313 20.4969 10.0362 20.497H10.0404C15.3385 20.497 19.6512 16.1858 19.6535 10.8868C19.6545 8.31906 18.6554 5.90453 16.8403 4.08797C15.0254 2.27156 12.6117 1.2707 10.04 1.26953C4.74135 1.26953 0.428926 5.58047 0.426738 10.8792" fill="url(#paint0_linear_16177_16244)"/>
<path id="Vector_2" d="M0.0835938 10.8763C0.0830469 12.6307 0.541406 14.3434 1.41281 15.8531L0 21.0115L5.27898 19.6273C6.73352 20.4204 8.37117 20.8385 10.0376 20.8391H10.0419C15.53 20.8391 19.9977 16.3729 20 10.8842C20.0009 8.22422 18.9659 5.72289 17.0859 3.84125C15.2057 1.95984 12.7057 0.922969 10.0419 0.921875C4.55281 0.921875 0.0857813 5.3875 0.0835938 10.8763ZM3.22734 15.5931L3.03023 15.2802C2.20164 13.9627 1.7643 12.4402 1.76492 10.8769C1.76672 6.31477 5.47953 2.60313 10.045 2.60313C12.2559 2.60406 14.3337 3.46594 15.8966 5.02969C17.4593 6.59359 18.3192 8.6725 18.3187 10.8836C18.3166 15.4457 14.6037 19.1578 10.0419 19.1578H10.0386C8.5532 19.157 7.09641 18.7581 5.82594 18.0043L5.52359 17.825L2.39094 18.6463L3.22734 15.593V15.5931Z" fill="url(#paint1_linear_16177_16244)"/>
<path id="Vector_3" d="M7.55303 6.71501C7.36662 6.30071 7.17045 6.29235 6.99318 6.28509C6.84803 6.27884 6.68209 6.2793 6.51631 6.2793C6.35037 6.2793 6.08076 6.34173 5.85287 6.59055C5.62475 6.83962 4.98193 7.44149 4.98193 8.66563C4.98193 9.88985 5.87357 11.0729 5.99787 11.2391C6.12232 11.4049 7.7192 13.9974 10.2483 14.9948C12.3501 15.8236 12.7779 15.6588 13.234 15.6172C13.6903 15.5758 14.7062 15.0155 14.9135 14.4345C15.1209 13.8535 15.1209 13.3556 15.0587 13.2515C14.9965 13.1478 14.8306 13.0856 14.5818 12.9612C14.3329 12.8367 13.1096 12.2348 12.8815 12.1517C12.6534 12.0688 12.4876 12.0274 12.3216 12.2765C12.1557 12.5252 11.6792 13.0856 11.534 13.2515C11.3889 13.4178 11.2437 13.4385 10.9949 13.3141C10.7459 13.1892 9.94459 12.9268 8.99389 12.0792C8.2542 11.4197 7.75482 10.6052 7.60967 10.3561C7.46451 10.1074 7.59412 9.97251 7.71889 9.84852C7.83068 9.73704 7.96779 9.55798 8.09232 9.41274C8.21639 9.26743 8.25779 9.16376 8.34076 8.99782C8.42381 8.83173 8.38225 8.68641 8.32014 8.56196C8.25779 8.43751 7.77428 7.20696 7.55303 6.71501Z" fill="white"/>
</g>
<defs>
<linearGradient id="paint0_linear_16177_16244" x1="965.71" y1="1940.68" x2="965.71" y2="1.26953" gradientUnits="userSpaceOnUse">
<stop stop-color="#1FAF38"/>
<stop offset="1" stop-color="#60D669"/>
</linearGradient>
<linearGradient id="paint1_linear_16177_16244" x1="1000" y1="2009.88" x2="1000" y2="0.921875" gradientUnits="userSpaceOnUse">
<stop stop-color="#F9F9F9"/>
<stop offset="1" stop-color="white"/>
</linearGradient>
<clipPath id="clip0_16177_16244">
<rect width="20" height="20.1562" fill="white" transform="translate(0 0.921875)"/>
</clipPath>
</defs>
</svg>
